<?xml version="1.0" encoding="utf-8" standalone="no"?>
<!DOCTYPE svg PUBLIC "-//W3C//DTD SVG 1.1//EN"
  "http://www.w3.org/Graphics/SVG/1.1/DTD/svg11.dtd">
<!-- Created with matplotlib (https://matplotlib.org/) -->
<svg height="350.446663pt" version="1.1" viewBox="0 0 673.929 350.446663" width="673.929pt" xmlns="http://www.w3.org/2000/svg" xmlns:xlink="http://www.w3.org/1999/xlink">
 <metadata>
  <rdf:RDF xmlns:cc="http://creativecommons.org/ns#" xmlns:dc="http://purl.org/dc/elements/1.1/" xmlns:rdf="http://www.w3.org/1999/02/22-rdf-syntax-ns#">
   <cc:Work>
    <dc:type rdf:resource="http://purl.org/dc/dcmitype/StillImage"/>
    <dc:date>2022-10-18T11:12:56.678013</dc:date>
    <dc:format>image/svg+xml</dc:format>
    <dc:creator>
     <cc:Agent>
      <dc:title>Matplotlib v3.3.4, https://matplotlib.org/</dc:title>
     </cc:Agent>
    </dc:creator>
   </cc:Work>
  </rdf:RDF>
 </metadata>
 <defs>
  <style type="text/css">*{stroke-linecap:butt;stroke-linejoin:round;}</style>
 </defs>
 <g id="figure_1">
  <g id="patch_1">
   <path d="M -0 350.446663 
L 673.929 350.446663 
L 673.929 0 
L -0 0 
z
" style="fill:#ffffff;"/>
  </g>
  <g id="patch_2">
   <path d="M 209.6685 307.872 
L 475.7805 307.872 
L 475.7805 41.76 
L 209.6685 41.76 
z
" style="fill:#ffffff;"/>
  </g>
  <g id="pane3d_1">
   <g id="patch_3">
    <path d="M 229.761791 242.257309 
L 317.640664 168.595495 
L 316.419064 62.361991 
L 224.334734 129.560941 
" style="fill:#f2f2f2;opacity:0.5;stroke:#f2f2f2;stroke-linejoin:miter;"/>
   </g>
  </g>
  <g id="pane3d_2">
   <g id="patch_4">
    <path d="M 317.640664 168.595495 
L 458.654901 209.582766 
L 463.687202 99.690171 
L 316.419064 62.361991 
" style="fill:#e6e6e6;opacity:0.5;stroke:#e6e6e6;stroke-linejoin:miter;"/>
   </g>
  </g>
  <g id="pane3d_3">
   <g id="patch_5">
    <path d="M 229.761791 242.257309 
L 379.243769 291.078123 
L 458.654901 209.582766 
L 317.640664 168.595495 
" style="fill:#ececec;opacity:0.5;stroke:#ececec;stroke-linejoin:miter;"/>
   </g>
  </g>
  <g id="axis3d_1">
   <g id="line2d_1">
    <path d="M 229.761791 242.257309 
L 379.243769 291.078123 
" style="fill:none;stroke:#000000;stroke-linecap:square;stroke-width:0.8;"/>
   </g>
   <g id="text_1">
    <!-- Duration [s] -->
    <g transform="translate(256.356558 294.461149)rotate(-341.912962)scale(0.12 -0.12)">
     <defs>
      <path d="M 19 8.203125 
Q 19 5.71875 20.890625 4.953125 
Q 22.796875 4.203125 29.890625 4.203125 
Q 35.6875 4.203125 39.9375 5.203125 
Q 44.1875 6.203125 47.890625 8.6875 
Q 51.609375 11.1875 53.5625 16.140625 
Q 55.515625 21.09375 55.515625 28.421875 
Q 55.515625 34.625 54.09375 39.96875 
Q 52.6875 45.3125 49.578125 50.09375 
Q 46.484375 54.890625 40.84375 57.640625 
Q 35.203125 60.40625 27.390625 60.40625 
Q 23.1875 60.40625 21.09375 59.59375 
Q 19 58.796875 19 56.390625 
z
M 14.703125 64.5 
Q 17.921875 64.5 22.953125 64.640625 
Q 27.984375 64.796875 31.203125 64.796875 
Q 45.609375 64.796875 55.71875 54.8125 
Q 65.828125 44.828125 65.828125 30.8125 
Q 65.828125 23.734375 63.71875 18.15625 
Q 61.625 12.59375 58.34375 9.25 
Q 55.078125 5.90625 50.625 3.703125 
Q 46.1875 1.515625 41.890625 0.65625 
Q 37.59375 -0.203125 33.015625 -0.203125 
Q 27.390625 -0.203125 22.609375 -0.09375 
Q 17.828125 0 14.703125 0 
L 9.515625 -0.296875 
L 9.421875 0 
Q 10.40625 6.78125 10.40625 20.015625 
L 10.40625 44.484375 
Q 10.40625 57.375 9.421875 64.5 
L 9.625 64.796875 
Q 11.28125 64.5 14.703125 64.5 
z
" id="LinBiolinum-68"/>
      <path d="M 36.53125 9.1875 
Q 33.734375 4.890625 29.703125 1.953125 
Q 25.6875 -0.984375 21.390625 -0.984375 
Q 14.5 -0.984375 11.390625 3 
Q 8.296875 6.984375 8.296875 12.890625 
L 8.296875 24.90625 
Q 8.296875 36.53125 7.421875 42.921875 
L 7.625 43.21875 
Q 9.421875 42.921875 12.296875 42.921875 
Q 15.1875 42.921875 17 43.21875 
L 17.1875 42.921875 
Q 16.3125 36.921875 16.3125 24.90625 
L 16.3125 14.984375 
Q 16.3125 8.6875 18.0625 6.640625 
Q 19.828125 4.59375 23 4.59375 
Q 26.515625 4.59375 30.34375 7.734375 
Q 34.1875 10.890625 36.71875 15.09375 
L 36.71875 24.90625 
Q 36.71875 36.28125 35.796875 42.921875 
L 35.984375 43.21875 
Q 37.796875 42.921875 40.703125 42.921875 
Q 43.609375 42.921875 45.40625 43.21875 
L 45.609375 42.921875 
Q 44.734375 36.921875 44.671875 24.90625 
L 44.671875 19.1875 
Q 44.671875 9.078125 46.390625 0 
L 46.1875 -0.296875 
Q 44.1875 0 41.75 0 
Q 40.578125 0 38.28125 -0.296875 
Q 37.40625 -0.296875 37.40625 0 
L 36.921875 8.890625 
z
" id="LinBiolinum-117"/>
      <path d="M 16.703125 33.40625 
L 17 33.203125 
Q 20.515625 39.203125 23.140625 41.546875 
Q 25.78125 43.890625 29.6875 43.890625 
Q 30.90625 43.890625 33.296875 43.21875 
L 33.6875 42.828125 
L 31.6875 35.40625 
L 30.90625 35.203125 
Q 29.390625 36.625 25.6875 36.625 
Q 22.359375 36.625 20.125 33.109375 
Q 16.703125 27.9375 16.703125 23.1875 
L 16.703125 18.015625 
Q 16.703125 6.84375 17.578125 0 
L 17.390625 -0.296875 
Q 15.578125 0 12.6875 0 
Q 9.8125 0 8.015625 -0.296875 
L 7.8125 0 
Q 8.6875 6.203125 8.6875 18.015625 
L 8.6875 23.484375 
Q 8.6875 37.3125 7.8125 42.921875 
L 8.015625 43.21875 
Q 12.40625 42.828125 16.109375 43.5 
Q 16.703125 43.5 16.703125 42.484375 
z
" id="LinBiolinum-114"/>
      <path d="M 31 22.515625 
L 22.515625 20.21875 
Q 17 18.703125 14.796875 16.25 
Q 12.59375 13.8125 12.59375 10.203125 
Q 12.59375 7.8125 14.640625 5.953125 
Q 16.703125 4.109375 20.015625 4.109375 
Q 24.03125 4.109375 29.203125 8.015625 
Q 30.609375 8.984375 30.609375 10.59375 
z
M 31 4.78125 
L 30.609375 4.78125 
Q 26.609375 1.375 23.84375 0.1875 
Q 21.09375 -0.984375 17 -0.984375 
Q 11.1875 -0.984375 7.84375 1.703125 
Q 4.5 4.390625 4.5 9.8125 
Q 4.5 14.890625 8.9375 18.75 
Q 13.375 22.609375 21.09375 24.3125 
L 30.421875 26.421875 
Q 31.109375 26.609375 31.109375 27.59375 
Q 31.109375 30.8125 30.390625 33.15625 
Q 29.6875 35.5 28.78125 36.640625 
Q 27.875 37.796875 26.390625 38.453125 
Q 24.90625 39.109375 23.90625 39.25 
Q 22.90625 39.40625 21.484375 39.40625 
Q 15.765625 39.40625 10.5 30.90625 
L 9.1875 31 
L 7.515625 37.703125 
L 7.8125 38.09375 
Q 14.703125 43.890625 22.515625 43.890625 
Q 39.015625 43.890625 39.015625 27.6875 
Q 39.015625 27.34375 38.96875 25.265625 
Q 38.921875 23.1875 38.859375 20.8125 
Q 38.8125 18.453125 38.765625 16.015625 
Q 38.71875 13.578125 38.71875 12.59375 
Q 38.71875 6.296875 40.375 4.78125 
Q 41.21875 4.046875 43.3125 4.046875 
Q 44.53125 4.046875 46 4.59375 
L 46.78125 2.09375 
Q 43.84375 -0.984375 38.8125 -0.984375 
Q 35.984375 -0.984375 33.90625 0.484375 
Q 31.84375 1.953125 31 4.78125 
z
" id="LinBiolinum-97"/>
      <path d="M 9.515625 42.921875 
Q 9.515625 46 9.703125 50 
Q 9.90625 54 9.90625 55.71875 
L 10.109375 56 
Q 11.625 56.203125 12.671875 56.546875 
Q 13.71875 56.890625 15.0625 57.546875 
Q 16.40625 58.203125 17.09375 58.5 
Q 17.96875 58.5 18.015625 57.515625 
Q 17.53125 51.125 17.484375 42.921875 
L 22.21875 42.921875 
Q 24.125 42.921875 29.203125 43.109375 
L 29.6875 42.390625 
Q 28.90625 40.375 28.515625 38.28125 
Q 26.515625 38.484375 21.296875 38.484375 
L 17.484375 38.484375 
L 17.484375 25.875 
Q 17.484375 22.46875 17.328125 18.09375 
Q 17.1875 13.71875 17.1875 12.59375 
Q 17.1875 4.890625 20.515625 4.390625 
Q 24.359375 3.765625 28.375 5.171875 
L 29.59375 2.6875 
Q 23.78125 -1.03125 18.015625 -0.984375 
Q 14.3125 -0.984375 11.75 1.5 
Q 9.1875 4 9.1875 8.59375 
Q 9.1875 9.71875 9.34375 15.546875 
Q 9.515625 21.390625 9.515625 24.8125 
L 9.515625 38.484375 
Q 4.828125 38.484375 2.390625 38.28125 
L 1.90625 39.015625 
Q 3.328125 41.21875 4.109375 43.109375 
Q 5.515625 42.921875 9.515625 42.921875 
z
" id="LinBiolinum-116"/>
      <path d="M 11.078125 54.59375 
Q 8.015625 57.71875 8.015625 59.71875 
Q 8.015625 61.71875 9.546875 63.25 
Q 11.078125 64.796875 13.078125 64.796875 
Q 15.09375 64.796875 16.65625 63.25 
Q 18.21875 61.71875 18.21875 59.71875 
Q 18.21875 57.71875 16.65625 56.15625 
Q 15.09375 54.59375 13.078125 54.59375 
Q 11.078125 54.59375 8.015625 57.71875 
z
M 8.984375 23.484375 
Q 8.984375 36.765625 8.109375 42.921875 
L 8.296875 43.21875 
Q 12.59375 42.921875 17 43.3125 
Q 17.578125 43.3125 17.75 43.15625 
Q 17.921875 43.015625 17.921875 42.28125 
Q 17.046875 33.890625 17 25.09375 
L 17 18.015625 
Q 17 7.125 17.921875 0 
L 17.671875 -0.296875 
Q 15.875 0 12.984375 0 
Q 10.109375 0 8.296875 -0.296875 
L 8.109375 0 
Q 8.984375 6.6875 8.984375 18.015625 
z
" id="LinBiolinum-105"/>
      <path d="M 3.8125 20.515625 
Q 3.8125 31.109375 9.6875 37.5 
Q 15.578125 43.890625 25.390625 43.890625 
Q 35.40625 43.890625 40.796875 37.828125 
Q 46.1875 31.78125 46.1875 21.390625 
Q 46.1875 11.375 40.5 5.1875 
Q 34.8125 -0.984375 25 -0.984375 
Q 15.28125 -0.984375 9.546875 5.125 
Q 3.8125 11.234375 3.8125 20.515625 
z
M 24.703125 39.890625 
Q 20.3125 39.890625 17.453125 37.203125 
Q 14.59375 34.515625 13.59375 30.75 
Q 12.59375 27 12.59375 22.21875 
Q 12.59375 17.71875 13.59375 13.71875 
Q 14.59375 9.71875 17.796875 6.34375 
Q 21 2.984375 25.875 2.984375 
Q 30.859375 2.984375 34.125 7.6875 
Q 37.40625 12.40625 37.40625 19.578125 
Q 37.40625 29.6875 34.765625 34.78125 
Q 32.125 39.890625 24.703125 39.890625 
z
" id="LinBiolinum-111"/>
      <path d="M 46 18.015625 
Q 46 6.640625 46.921875 0 
L 46.6875 -0.296875 
Q 44.875 0 41.984375 0 
Q 39.109375 0 37.3125 -0.296875 
L 37.109375 0 
Q 37.984375 6.6875 37.984375 18.015625 
L 37.984375 27.78125 
Q 37.984375 33.6875 36.390625 35.78125 
Q 34.8125 37.890625 30.8125 37.890625 
Q 27.734375 37.890625 23.78125 35.890625 
Q 19.828125 33.890625 16.3125 29.6875 
L 16.3125 18.015625 
Q 16.3125 6.390625 17.1875 0 
L 17 -0.296875 
Q 15.1875 0 12.296875 0 
Q 9.421875 0 7.625 -0.296875 
L 7.421875 0 
Q 8.296875 6.109375 8.296875 18.015625 
L 8.296875 23.484375 
Q 8.296875 37.3125 7.421875 42.921875 
L 7.625 43.21875 
Q 12.015625 42.828125 15.71875 43.5 
Q 16.3125 43.5 16.3125 42.484375 
L 16.3125 35.203125 
L 16.5 34.90625 
Q 24.21875 43.890625 33.796875 43.890625 
Q 40.375 43.890625 43.28125 39.984375 
Q 46.1875 36.078125 46.1875 28.078125 
Q 46.1875 26.46875 46.09375 23.046875 
Q 46 19.625 46 18.015625 
z
" id="LinBiolinum-110"/>
      <path id="LinBiolinum-32"/>
      <path d="M 10.984375 -19.1875 
L 10.984375 70.3125 
L 32.515625 70.3125 
L 32.515625 67.28125 
Q 27.09375 66.890625 24.390625 66.40625 
Q 21.6875 65.921875 20.09375 64.546875 
Q 18.5 63.1875 18.15625 61.453125 
Q 17.828125 59.71875 17.828125 56.109375 
L 17.828125 -4.984375 
Q 17.828125 -8.59375 18.109375 -10.296875 
Q 18.40625 -12.015625 19.984375 -13.40625 
Q 21.578125 -14.796875 24.328125 -15.359375 
Q 27.09375 -15.921875 32.515625 -16.3125 
L 32.515625 -19.1875 
z
" id="LinBiolinum-91"/>
      <path d="M 4.984375 10.109375 
L 6.5 10.203125 
Q 11.671875 3.03125 18.3125 2.984375 
Q 22.40625 2.984375 24.9375 5.203125 
Q 27.484375 7.421875 27.484375 11.28125 
Q 27.484375 14.703125 25.046875 16.359375 
Q 22.609375 18.015625 17.390625 19.390625 
Q 11.765625 20.90625 8.59375 23.609375 
Q 5.421875 26.3125 5.421875 31.6875 
Q 5.421875 37.5 9.90625 40.6875 
Q 14.40625 43.890625 20.515625 43.890625 
Q 28.21875 43.890625 33.984375 40.921875 
L 34.1875 40.578125 
L 32.171875 33.203125 
L 30.8125 33.109375 
Q 28.90625 35.296875 28 36.25 
Q 27.09375 37.203125 24.796875 38.546875 
Q 22.515625 39.890625 20.125 39.890625 
Q 16.796875 39.890625 14.640625 38.25 
Q 12.5 36.625 12.5 33.59375 
Q 12.5 27.984375 21.78125 25.78125 
Q 27.984375 24.265625 31.6875 21.28125 
Q 35.40625 18.3125 35.40625 12.703125 
Q 35.40625 10.40625 34.640625 8.203125 
Q 33.890625 6 32.15625 3.796875 
Q 30.421875 1.609375 26.859375 0.3125 
Q 23.296875 -0.984375 18.40625 -0.984375 
Q 10.984375 -0.984375 3.328125 1.703125 
z
" id="LinBiolinum-115"/>
      <path d="M 25.09375 70.3125 
L 25.09375 -19.1875 
L 3.609375 -19.1875 
L 3.609375 -16.21875 
Q 9.03125 -15.828125 11.71875 -15.3125 
Q 14.40625 -14.796875 15.984375 -13.453125 
Q 17.578125 -12.109375 17.9375 -10.34375 
Q 18.3125 -8.59375 18.3125 -4.984375 
L 18.3125 56.109375 
Q 18.3125 59.71875 17.984375 61.40625 
Q 17.671875 63.09375 16.078125 64.5 
Q 14.5 65.921875 11.734375 66.453125 
Q 8.984375 67 3.609375 67.390625 
L 3.609375 70.3125 
z
" id="LinBiolinum-93"/>
     </defs>
     <use xlink:href="#LinBiolinum-68"/>
     <use x="70.996094" xlink:href="#LinBiolinum-117"/>
     <use x="124.658203" xlink:href="#LinBiolinum-114"/>
     <use x="160.15625" xlink:href="#LinBiolinum-97"/>
     <use x="208.251953" xlink:href="#LinBiolinum-116"/>
     <use x="242.236328" xlink:href="#LinBiolinum-105"/>
     <use x="268.212891" xlink:href="#LinBiolinum-111"/>
     <use x="318.212891" xlink:href="#LinBiolinum-110"/>
     <use x="372.070312" xlink:href="#LinBiolinum-32"/>
     <use x="397.070312" xlink:href="#LinBiolinum-91"/>
     <use x="433.154297" xlink:href="#LinBiolinum-115"/>
     <use x="472.753906" xlink:href="#LinBiolinum-93"/>
    </g>
   </g>
   <g id="Line3DCollection_1">
    <path d="M 236.659788 244.510195 
L 324.175367 170.494875 
L 323.229851 64.088327 
" style="fill:none;stroke:#b0b0b0;stroke-width:0.8;"/>
    <path d="M 256.451235 250.974081 
L 342.909667 175.940196 
L 342.763037 69.03942 
" style="fill:none;stroke:#b0b0b0;stroke-width:0.8;"/>
    <path d="M 276.527822 257.531095 
L 361.89148 181.45746 
L 362.56546 74.058757 
" style="fill:none;stroke:#b0b0b0;stroke-width:0.8;"/>
    <path d="M 296.895756 264.183262 
L 381.125744 187.048101 
L 382.642726 79.147759 
" style="fill:none;stroke:#b0b0b0;stroke-width:0.8;"/>
    <path d="M 317.561425 270.932669 
L 400.617527 192.713593 
L 403.000598 84.307886 
" style="fill:none;stroke:#b0b0b0;stroke-width:0.8;"/>
    <path d="M 338.531405 277.781465 
L 420.372038 198.45545 
L 423.644998 89.54064 
" style="fill:none;stroke:#b0b0b0;stroke-width:0.8;"/>
    <path d="M 359.812468 284.73186 
L 440.394624 204.275225 
L 444.58202 94.847564 
" style="fill:none;stroke:#b0b0b0;stroke-width:0.8;"/>
   </g>
   <g id="xtick_1">
    <g id="line2d_2">
     <path d="M 237.42182 243.865714 
L 235.132455 245.801919 
" style="fill:none;stroke:#000000;stroke-linecap:square;stroke-width:0.8;"/>
    </g>
    <g id="text_2">
     <!-- 2650 -->
     <g transform="translate(218.097989 268.585393)scale(0.12 -0.12)">
      <defs>
       <path d="M 20.21875 55.328125 
Q 15.4375 55.328125 12.5 52.984375 
Q 11.578125 52.25 10.859375 51.3125 
Q 10.15625 50.390625 9.890625 49.921875 
Q 9.625 49.46875 8.953125 47.90625 
Q 8.296875 46.34375 8.109375 45.90625 
L 6.78125 46 
L 4.59375 52.875 
Q 5.953125 54.6875 8.03125 56.375 
Q 10.109375 58.0625 13.859375 59.515625 
Q 17.625 60.984375 21.828125 60.984375 
Q 27.296875 60.984375 31.296875 58.9375 
Q 35.296875 56.890625 37.328125 53.25 
Q 39.359375 49.609375 39.359375 44.875 
Q 39.359375 37.59375 32.125 27.78125 
Q 29.046875 23.640625 25.890625 20.015625 
Q 22.75 16.40625 20.984375 14.640625 
Q 19.234375 12.890625 15.921875 9.71875 
Q 14.15625 8.015625 14.15625 6.984375 
Q 14.15625 6.84375 14.171875 6.734375 
Q 14.203125 6.640625 14.3125 6.5 
Q 17.046875 6.6875 22.46875 6.6875 
Q 31.734375 6.6875 40.765625 7.515625 
Q 40.28125 5.515625 40.28125 2.78125 
Q 40.28125 1.609375 40.578125 -0.484375 
Q 28.65625 0 23.1875 0 
Q 22.703125 0 4.25 -0.484375 
Q 3.21875 1.171875 3.265625 3.421875 
Q 3.328125 4.15625 3.421875 4.6875 
Q 3.609375 4.890625 6.875 7.9375 
Q 10.15625 10.984375 11.9375 12.765625 
Q 13.71875 14.546875 16.8125 17.71875 
Q 19.921875 20.90625 22.4375 23.96875 
Q 24.953125 27.046875 26.953125 30.078125 
Q 30.765625 35.796875 30.765625 43.5 
Q 30.765625 48.578125 27.53125 51.953125 
Q 24.3125 55.328125 20.21875 55.328125 
z
" id="LinBiolinum-50"/>
       <path d="M 12.703125 27.6875 
Q 12.59375 26.703125 12.59375 24.03125 
Q 12.59375 17.71875 13.78125 13.25 
Q 14.984375 8.796875 17.078125 6.640625 
Q 19.1875 4.5 21.1875 3.59375 
Q 23.1875 2.6875 25.484375 2.6875 
Q 34.375 2.6875 34.421875 17.28125 
Q 34.421875 19.484375 33.953125 21.671875 
Q 33.5 23.875 32.390625 26.34375 
Q 31.296875 28.8125 28.859375 30.296875 
Q 26.421875 31.78125 22.796875 31.78125 
Q 16.703125 31.78125 12.703125 27.6875 
z
M 39.984375 58.296875 
Q 28.90625 57.171875 22.40625 50.875 
Q 14.5 43.171875 12.890625 30.609375 
Q 14.703125 32.8125 18.234375 34.296875 
Q 21.78125 35.796875 24.90625 35.796875 
Q 30.421875 35.796875 34.296875 33.734375 
Q 38.1875 31.6875 39.9375 28.578125 
Q 41.703125 25.484375 42.453125 22.890625 
Q 43.21875 20.3125 43.21875 18.015625 
Q 43.21875 15.046875 42.265625 11.96875 
Q 41.3125 8.890625 39.3125 5.875 
Q 37.3125 2.875 33.453125 1 
Q 29.59375 -0.875 24.421875 -0.875 
Q 21.09375 -0.875 17.984375 0.171875 
Q 14.890625 1.21875 11.6875 3.75 
Q 8.5 6.296875 6.546875 11.59375 
Q 4.59375 16.890625 4.59375 24.3125 
Q 4.59375 40.140625 15.28125 50.78125 
Q 20.265625 55.859375 26.015625 58.21875 
Q 31.78125 60.59375 39.703125 61.078125 
z
" id="LinBiolinum-54"/>
       <path d="M 20.21875 -0.984375 
Q 11.53125 -0.984375 5.078125 4.59375 
L 4.6875 4.890625 
L 6.890625 12.890625 
L 8.296875 12.984375 
Q 8.59375 12.5 9.4375 10.890625 
Q 10.296875 9.28125 10.546875 8.84375 
Q 10.796875 8.40625 11.59375 7.25 
Q 12.40625 6.109375 12.796875 5.765625 
Q 13.1875 5.421875 14.078125 4.65625 
Q 14.984375 3.90625 15.84375 3.703125 
Q 16.703125 3.515625 17.84375 3.25 
Q 19 2.984375 20.40625 2.984375 
Q 25.484375 2.984375 28.625 7.03125 
Q 31.78125 11.078125 31.78125 17.921875 
Q 31.78125 25.828125 28.578125 29.90625 
Q 25.390625 33.984375 20.3125 33.984375 
Q 15.625 33.984375 7.90625 30.90625 
L 7.171875 31.15625 
L 10.40625 60.59375 
Q 17.1875 60.015625 21.78125 60.015625 
Q 30.078125 60.015625 38.1875 60.984375 
L 38.921875 60.6875 
L 37.3125 53.90625 
Q 32.421875 53.328125 26.8125 53.328125 
Q 20.796875 53.328125 14.109375 54.203125 
L 12.015625 36.53125 
Q 16.109375 38.03125 22.90625 37.984375 
Q 31 37.984375 35.78125 32.59375 
Q 40.578125 27.203125 40.578125 19.578125 
Q 40.578125 10.6875 34.84375 4.84375 
Q 29.109375 -0.984375 20.21875 -0.984375 
z
" id="LinBiolinum-53"/>
       <path d="M 23.296875 57.078125 
Q 12.5 57.078125 12.5 28.71875 
Q 12.5 25.640625 12.640625 22.65625 
Q 12.796875 19.671875 13.453125 15.890625 
Q 14.109375 12.109375 15.203125 9.390625 
Q 16.3125 6.6875 18.265625 4.78125 
Q 20.21875 2.875 22.90625 2.875 
Q 24.21875 2.875 25.5625 3.390625 
Q 26.90625 3.90625 28.859375 6.15625 
Q 30.8125 8.40625 31.78125 12.203125 
Q 33.5 18.40625 33.5 31.6875 
Q 33.5 41.21875 31.828125 47.3125 
Q 30.171875 53.421875 27.6875 55.515625 
Q 25.875 57.078125 23.296875 57.078125 
z
M 22.796875 -0.984375 
Q 13.921875 -0.984375 8.90625 7.5625 
Q 3.90625 16.109375 3.90625 28.90625 
Q 3.90625 43.109375 9.6875 52.046875 
Q 15.484375 60.984375 23.296875 60.984375 
Q 29 60.984375 32.8125 57.515625 
Q 42.09375 49.03125 42.09375 30.90625 
Q 42.09375 22.609375 40.1875 16.15625 
Q 38.28125 9.71875 35.296875 6.09375 
Q 32.328125 2.484375 29.09375 0.75 
Q 25.875 -0.984375 22.796875 -0.984375 
z
" id="LinBiolinum-48"/>
      </defs>
      <use xlink:href="#LinBiolinum-50"/>
      <use x="44.384766" xlink:href="#LinBiolinum-54"/>
      <use x="90.869141" xlink:href="#LinBiolinum-53"/>
      <use x="137.353516" xlink:href="#LinBiolinum-48"/>
     </g>
    </g>
   </g>
   <g id="xtick_2">
    <g id="line2d_3">
     <path d="M 257.2045 250.320353 
L 254.941453 252.284362 
" style="fill:none;stroke:#000000;stroke-linecap:square;stroke-width:0.8;"/>
    </g>
    <g id="text_3">
     <!-- 2675 -->
     <g transform="translate(237.909411 275.186139)scale(0.12 -0.12)">
      <defs>
       <path d="M 34.515625 52.484375 
Q 16.40625 53.078125 6.296875 51.609375 
Q 6.78125 55.421875 6.78125 56.5 
Q 6.78125 56.984375 6.296875 60.6875 
Q 11.28125 60.015625 34.28125 60.015625 
Q 37.703125 60.015625 40.71875 60.984375 
L 42.390625 60.015625 
Q 31.59375 33.59375 20.015625 -0.875 
L 12.703125 -1.3125 
L 12.40625 -0.6875 
Q 18.703125 13.375 34.515625 52.484375 
z
" id="LinBiolinum-55"/>
      </defs>
      <use xlink:href="#LinBiolinum-50"/>
      <use x="44.384766" xlink:href="#LinBiolinum-54"/>
      <use x="90.869141" xlink:href="#LinBiolinum-55"/>
      <use x="137.353516" xlink:href="#LinBiolinum-53"/>
     </g>
    </g>
   </g>
   <g id="xtick_3">
    <g id="line2d_4">
     <path d="M 277.271987 256.867917 
L 275.036257 258.860335 
" style="fill:none;stroke:#000000;stroke-linecap:square;stroke-width:0.8;"/>
    </g>
    <g id="text_4">
     <!-- 2700 -->
     <g transform="translate(258.007337 281.882342)scale(0.12 -0.12)">
      <use xlink:href="#LinBiolinum-50"/>
      <use x="44.384766" xlink:href="#LinBiolinum-55"/>
      <use x="90.869141" xlink:href="#LinBiolinum-48"/>
      <use x="137.353516" xlink:href="#LinBiolinum-48"/>
     </g>
    </g>
   </g>
   <g id="xtick_4">
    <g id="line2d_5">
     <path d="M 297.630476 263.510429 
L 295.423098 265.531876 
" style="fill:none;stroke:#000000;stroke-linecap:square;stroke-width:0.8;"/>
    </g>
    <g id="text_5">
     <!-- 2725 -->
     <g transform="translate(278.523651 288.676088)scale(0.12 -0.12)">
      <use xlink:href="#LinBiolinum-50"/>
      <use x="44.384766" xlink:href="#LinBiolinum-55"/>
      <use x="90.869141" xlink:href="#LinBiolinum-50"/>
      <use x="135.253906" xlink:href="#LinBiolinum-53"/>
     </g>
    </g>
   </g>
   <g id="xtick_5">
    <g id="line2d_6">
     <path d="M 318.286344 270.249969 
L 316.108389 272.301084 
" style="fill:none;stroke:#000000;stroke-linecap:square;stroke-width:0.8;"/>
    </g>
    <g id="text_6">
     <!-- 2750 -->
     <g transform="translate(299.087922 295.569523)scale(0.12 -0.12)">
      <use xlink:href="#LinBiolinum-50"/>
      <use x="44.384766" xlink:href="#LinBiolinum-55"/>
      <use x="90.869141" xlink:href="#LinBiolinum-53"/>
      <use x="137.353516" xlink:href="#LinBiolinum-48"/>
     </g>
    </g>
   </g>
   <g id="xtick_6">
    <g id="line2d_7">
     <path d="M 339.246153 277.088678 
L 337.098731 279.170119 
" style="fill:none;stroke:#000000;stroke-linecap:square;stroke-width:0.8;"/>
    </g>
    <g id="text_7">
     <!-- 2775 -->
     <g transform="translate(320.083659 302.564857)scale(0.12 -0.12)">
      <use xlink:href="#LinBiolinum-50"/>
      <use x="44.384766" xlink:href="#LinBiolinum-55"/>
      <use x="90.869141" xlink:href="#LinBiolinum-55"/>
      <use x="137.353516" xlink:href="#LinBiolinum-53"/>
     </g>
    </g>
   </g>
   <g id="xtick_7">
    <g id="line2d_8">
     <path d="M 360.516663 284.028761 
L 358.400923 286.141206 
" style="fill:none;stroke:#000000;stroke-linecap:square;stroke-width:0.8;"/>
    </g>
    <g id="text_8">
     <!-- 2800 -->
     <g transform="translate(341.392071 309.664368)scale(0.12 -0.12)">
      <defs>
       <path d="M 23.484375 57.71875 
Q 19.1875 57.71875 16.6875 55.25 
Q 14.203125 52.78125 14.203125 49.125 
Q 14.203125 42.828125 21.1875 38.1875 
L 24.3125 36.375 
Q 27.296875 38.484375 29.859375 41.75 
Q 32.421875 45.015625 32.421875 48.578125 
Q 32.421875 52.484375 30.25 55.09375 
Q 28.078125 57.71875 23.484375 57.71875 
z
M 39.796875 48.484375 
Q 39.796875 46.1875 38.6875 43.984375 
Q 37.59375 41.796875 35.5 39.84375 
Q 33.40625 37.890625 31.859375 36.6875 
Q 30.328125 35.5 27.984375 33.984375 
L 34.078125 29.984375 
Q 42.78125 24.265625 42.828125 16.21875 
Q 42.828125 9.90625 37.296875 4.515625 
Q 31.78125 -0.875 22.609375 -0.875 
Q 14.3125 -0.875 9.109375 3.140625 
Q 3.90625 7.171875 3.90625 14.59375 
Q 3.90625 20.796875 10.5 26.609375 
Q 13.71875 29.390625 17.484375 32.328125 
L 15.484375 33.40625 
Q 6.6875 38.484375 6.6875 47.3125 
Q 6.6875 53.125 11.59375 57.046875 
Q 16.5 60.984375 24.125 60.984375 
Q 31.453125 60.984375 35.625 57.484375 
Q 39.796875 54 39.796875 48.484375 
z
M 22.796875 2.390625 
Q 27.296875 2.390625 30.90625 5 
Q 34.515625 7.625 34.515625 14.109375 
Q 34.515625 21.625 25.6875 27.09375 
L 21.09375 29.984375 
Q 11.671875 23.78125 11.71875 14.59375 
Q 11.71875 8.5 15.15625 5.4375 
Q 18.609375 2.390625 22.796875 2.390625 
z
" id="LinBiolinum-56"/>
      </defs>
      <use xlink:href="#LinBiolinum-50"/>
      <use x="44.384766" xlink:href="#LinBiolinum-56"/>
      <use x="90.869141" xlink:href="#LinBiolinum-48"/>
      <use x="137.353516" xlink:href="#LinBiolinum-48"/>
     </g>
    </g>
   </g>
  </g>
  <g id="axis3d_2">
   <g id="line2d_9">
    <path d="M 458.654901 209.582766 
L 379.243769 291.078123 
" style="fill:none;stroke:#000000;stroke-linecap:square;stroke-width:0.8;"/>
   </g>
   <g id="text_9">
    <!-- Average Interlayertemperature [°C] -->
    <g transform="translate(388.51334 341.255062)rotate(-45.742112)scale(0.12 -0.12)">
     <defs>
      <path d="M 40.71875 27.546875 
Q 38.578125 33.15625 36.0625 39.296875 
Q 33.546875 45.453125 30.609375 52.203125 
L 30.421875 52.203125 
L 19.875 27.59375 
Q 21.046875 27.59375 24.84375 27.484375 
Q 28.65625 27.390625 30.328125 27.390625 
Q 34.578125 27.390625 40.71875 27.546875 
z
M 17.921875 22.859375 
Q 15.046875 15.765625 12.890625 9.90625 
Q 10.75 4.046875 9.625 -0.296875 
Q 8.40625 0 5.078125 0 
Q 2.78125 0 1.609375 -0.296875 
Q 18.609375 37.015625 31.109375 65.828125 
L 33.890625 65.828125 
Q 37.3125 57.71875 43.5625 42.203125 
Q 49.8125 26.703125 54.4375 15.40625 
Q 59.078125 4.109375 61.28125 -0.296875 
Q 59.578125 0 55.328125 0 
Q 52 0 50.296875 -0.296875 
Q 50.09375 0.390625 49.828125 1.296875 
Q 49.5625 2.203125 49.09375 3.734375 
Q 48.640625 5.28125 48 7.203125 
Q 47.359375 9.125 46.578125 11.4375 
Q 45.796875 13.765625 44.75 16.75 
Q 43.703125 19.734375 42.53125 22.859375 
Q 39.265625 22.953125 36.328125 22.96875 
Q 33.40625 23 30.8125 23 
Q 25.09375 23 17.921875 22.859375 
z
" id="LinBiolinum-65"/>
      <path d="M 19.671875 -0.296875 
Q 8.40625 29.109375 2 43.21875 
Q 3.609375 42.921875 7.296875 42.921875 
Q 10.984375 42.921875 12.3125 43.21875 
Q 12.796875 41.65625 14.375 36.59375 
Q 15.96875 31.546875 16.703125 29.25 
Q 17.4375 26.953125 18.796875 22.921875 
Q 20.171875 18.890625 21.453125 15.59375 
Q 22.75 12.3125 24.171875 9.03125 
L 24.359375 9.03125 
Q 26.421875 13.375 28.4375 19.109375 
Q 30.46875 24.859375 32.78125 32.078125 
Q 35.109375 39.3125 36.53125 43.21875 
Q 37.40625 42.921875 39.890625 42.921875 
Q 42.78125 42.921875 43.703125 43.21875 
Q 31.296875 15.234375 25.78125 -0.296875 
Q 24.90625 0 22.78125 0 
Q 20.65625 0 19.671875 -0.296875 
z
" id="LinBiolinum-118"/>
      <path d="M 12.5 27.296875 
L 30.90625 27.296875 
Q 32.328125 27.296875 32.328125 28.71875 
Q 32.328125 33.890625 29.65625 36.890625 
Q 27 39.890625 23.875 39.890625 
Q 22.75 39.890625 21.328125 39.34375 
Q 19.921875 38.8125 18.0625 37.546875 
Q 16.21875 36.28125 14.65625 33.59375 
Q 13.09375 30.90625 12.5 27.296875 
z
M 39.203125 10.40625 
L 41.21875 7.90625 
Q 38.328125 3.90625 33.71875 1.453125 
Q 29.109375 -0.984375 23.78125 -0.984375 
Q 13.375 -0.984375 7.90625 5.609375 
Q 3.421875 11.03125 3.421875 20.90625 
Q 3.421875 31.296875 9.765625 37.59375 
Q 16.109375 43.890625 23.875 43.890625 
Q 32.859375 43.890625 37.03125 38.203125 
Q 41.21875 32.515625 41.21875 25 
Q 41.21875 23.296875 39.40625 23.296875 
L 12.203125 23.296875 
Q 12.203125 14.40625 14.59375 10.59375 
Q 18.21875 4.890625 25.484375 4.890625 
Q 34.125 4.890625 39.203125 10.40625 
z
" id="LinBiolinum-101"/>
      <path d="M 10.109375 -10.40625 
Q 10.109375 -13.484375 12.734375 -15.703125 
Q 15.375 -17.921875 18.234375 -18.703125 
Q 21.09375 -19.484375 23.1875 -19.484375 
Q 30.078125 -19.484375 35.03125 -16.984375 
Q 39.984375 -14.5 39.984375 -10.109375 
Q 39.984375 -5.21875 36.078125 -2.875 
Q 33.203125 -1.171875 25.484375 -1.21875 
Q 25 -1.21875 21.65625 -1.359375 
Q 18.3125 -1.515625 16.609375 -1.515625 
Q 13.921875 -3.03125 12.015625 -5.515625 
Q 10.109375 -8.015625 10.109375 -10.40625 
z
M 39.015625 28.90625 
Q 39.015625 22.3125 34.71875 17.96875 
Q 30.421875 13.625 22.40625 13.625 
Q 17.625 13.625 14.984375 14.984375 
Q 12.015625 12.40625 12.015625 9.421875 
Q 12.015625 6.546875 13.546875 5.609375 
Q 15.09375 4.6875 17.828125 4.6875 
Q 17.921875 4.6875 20.703125 4.890625 
Q 24.515625 5.375 29 5.421875 
Q 39.203125 5.421875 43.109375 2.09375 
Q 47.3125 -1.515625 47.3125 -7.8125 
Q 47.3125 -12.890625 43.203125 -16.640625 
Q 39.109375 -20.40625 33.15625 -22.09375 
Q 27.203125 -23.78125 20.40625 -23.78125 
Q 16.3125 -23.78125 12.640625 -22.84375 
Q 8.984375 -21.921875 6.09375 -19.203125 
Q 3.21875 -16.5 3.21875 -12.40625 
Q 3.21875 -9.328125 5.515625 -5.8125 
Q 6.734375 -4.828125 13.671875 -0.921875 
Q 13.875 -0.828125 14.015625 -0.734375 
Q 10.15625 -0.046875 8.265625 2.265625 
Q 6.390625 4.59375 6.390625 7.90625 
Q 6.390625 11.921875 12.59375 16.21875 
Q 5.515625 20.3125 5.515625 28.71875 
Q 5.515625 35.6875 10.765625 39.78125 
Q 16.015625 43.890625 22.515625 43.890625 
Q 25.875 43.890625 28.609375 43.015625 
Q 32.859375 43.265625 37.84375 44.015625 
Q 42.828125 44.78125 44.390625 44.921875 
L 44.671875 44.578125 
Q 44.390625 43.171875 44.390625 42 
Q 44.390625 40.828125 44.671875 39.40625 
L 44.390625 39.109375 
Q 35.0625 40.09375 33.984375 40.140625 
Q 39.015625 36.8125 39.015625 28.90625 
z
M 31.203125 28.421875 
Q 31.203125 40.140625 22.125 40.09375 
Q 17.828125 40.09375 15.546875 37.1875 
Q 13.28125 34.28125 13.28125 29.203125 
Q 13.28125 23.390625 15.46875 20.484375 
Q 17.671875 17.578125 22.90625 17.578125 
Q 27.390625 17.578125 29.296875 20.40625 
Q 31.203125 23.25 31.203125 28.421875 
z
" id="LinBiolinum-103"/>
      <path d="M 10.40625 44.484375 
Q 10.40625 57.375 9.421875 64.5 
L 9.625 64.796875 
Q 11.421875 64.5 14.71875 64.5 
Q 18.015625 64.5 19.828125 64.796875 
L 20.015625 64.5 
Q 19.046875 57.90625 19 44.484375 
L 19 20.015625 
Q 19 7.125 20.015625 0 
L 19.828125 -0.296875 
Q 18.015625 0 14.6875 0 
Q 11.375 0 9.625 -0.296875 
L 9.421875 0 
Q 10.40625 6.78125 10.40625 20.015625 
z
" id="LinBiolinum-73"/>
      <path d="M 8.984375 20.015625 
L 8.984375 48.1875 
Q 8.984375 62.5 8.109375 67.484375 
L 8.296875 67.828125 
Q 12.796875 68.109375 17 69.828125 
Q 17.875 69.828125 17.921875 68.796875 
Q 17.046875 56.6875 17 50 
L 17 20.015625 
Q 17 6.640625 17.921875 0 
L 17.671875 -0.296875 
Q 15.875 0 12.984375 0 
Q 10.109375 0 8.296875 -0.296875 
L 8.109375 0 
Q 8.984375 6.390625 8.984375 20.015625 
z
" id="LinBiolinum-108"/>
      <path d="M 2.78125 43.21875 
Q 4.203125 42.921875 8.015625 42.921875 
Q 11.625 42.921875 12.890625 43.21875 
Q 16.21875 33.015625 26.265625 8.734375 
L 26.46875 8.734375 
Q 33.203125 23.09375 39.59375 43.21875 
Q 40.578125 42.921875 43.5 42.921875 
Q 46.828125 42.921875 47.796875 43.21875 
Q 43.5 34.515625 32.390625 9.46875 
Q 21.296875 -15.578125 18.796875 -23.6875 
Q 17.09375 -23.1875 13.921875 -23.1875 
Q 12.109375 -23.1875 10.40625 -23.6875 
Q 17.578125 -11.578125 22.21875 -0.984375 
Q 20.171875 4.390625 2.78125 43.21875 
z
" id="LinBiolinum-121"/>
      <path d="M 16.21875 35.203125 
L 16.5 34.90625 
Q 25 43.890625 33.296875 43.890625 
Q 37.5 43.890625 40.359375 41.734375 
Q 43.21875 39.59375 43.890625 35.984375 
Q 51.421875 43.890625 60.796875 43.890625 
Q 68.21875 43.890625 70.703125 39.84375 
Q 73.1875 35.796875 73.1875 27.984375 
L 73.1875 18.015625 
Q 73.1875 6.390625 74.125 0 
L 73.875 -0.296875 
Q 72.078125 0 69.1875 0 
Q 66.3125 0 64.5 -0.296875 
L 64.3125 0 
Q 65.1875 6.109375 65.1875 18.015625 
L 65.1875 29 
Q 65.1875 33.890625 63.28125 35.890625 
Q 61.375 37.890625 57.171875 37.890625 
Q 49.859375 37.890625 44.484375 31.890625 
Q 44.578125 30.671875 44.578125 28.078125 
L 44.578125 18.015625 
Q 44.578125 6.390625 45.515625 0 
L 45.3125 -0.296875 
Q 43.5 0 40.59375 0 
Q 37.703125 0 35.890625 -0.296875 
L 35.6875 0 
Q 36.578125 6.109375 36.625 18.015625 
L 36.625 29 
Q 36.625 37.890625 29.984375 37.890625 
Q 27.296875 37.890625 23.484375 35.734375 
Q 19.671875 33.59375 16.21875 30.078125 
L 16.21875 18.015625 
Q 16.21875 6.390625 17.09375 0 
L 16.890625 -0.296875 
Q 15.09375 0 12.1875 0 
Q 9.28125 0 7.515625 -0.296875 
L 7.328125 0 
Q 8.203125 6.109375 8.203125 18.015625 
L 8.203125 23.484375 
Q 8.203125 37.3125 7.328125 42.921875 
L 7.515625 43.21875 
Q 11.921875 42.828125 15.578125 43.5 
Q 16.15625 43.5 16.21875 42.484375 
z
" id="LinBiolinum-109"/>
      <path d="M 16.21875 29.390625 
L 16.21875 7.515625 
Q 20.015625 3.03125 25.484375 2.984375 
Q 29.296875 2.984375 32 4.6875 
Q 34.71875 6.390625 36.0625 9.34375 
Q 37.40625 12.3125 37.9375 15.359375 
Q 38.484375 18.40625 38.484375 21.78125 
Q 38.484375 39.265625 28.21875 39.3125 
Q 25.25 39.3125 21.53125 36.296875 
Q 17.828125 33.296875 16.21875 29.390625 
z
M 16.21875 35.203125 
L 16.40625 34.90625 
Q 22.3125 43.890625 29.890625 43.890625 
Q 37.890625 43.890625 42.59375 37.734375 
Q 47.3125 31.59375 47.3125 23.09375 
Q 47.3125 12.40625 41.59375 5.703125 
Q 35.890625 -0.984375 26.125 -0.984375 
Q 20.3125 -0.984375 16.21875 1.21875 
L 16.21875 -3.21875 
Q 16.21875 -16.109375 17.09375 -23.1875 
L 16.890625 -23.484375 
Q 15.09375 -23.1875 12.1875 -23.1875 
Q 9.28125 -23.1875 7.515625 -23.484375 
L 7.328125 -23.1875 
Q 8.203125 -16.5 8.203125 -3.21875 
L 8.203125 23.484375 
Q 8.203125 37.3125 7.328125 42.921875 
L 7.515625 43.21875 
Q 11.921875 42.828125 15.578125 43.5 
Q 16.15625 43.5 16.21875 42.484375 
z
" id="LinBiolinum-112"/>
      <path d="M 20.015625 52.390625 
Q 20.015625 55.171875 18.25 57.4375 
Q 16.5 59.71875 13.390625 59.71875 
Q 10.296875 59.71875 8.484375 57.515625 
Q 6.6875 55.328125 6.6875 52.390625 
Q 6.6875 49.609375 8.546875 47.5 
Q 10.40625 45.40625 13.375 45.40625 
Q 16.265625 45.40625 18.140625 47.546875 
Q 20.015625 49.703125 20.015625 52.390625 
z
M 3.421875 52.484375 
Q 3.421875 56.6875 6.34375 59.59375 
Q 9.28125 62.5 13.375 62.5 
Q 17.484375 62.5 20.390625 59.59375 
Q 23.296875 56.6875 23.296875 52.484375 
Q 23.296875 48.390625 20.390625 45.484375 
Q 17.484375 42.578125 13.375 42.578125 
Q 9.28125 42.578125 6.34375 45.484375 
Q 3.421875 48.390625 3.421875 52.484375 
z
" id="LinBiolinum-176"/>
      <path d="M 37.984375 65.828125 
Q 43.40625 65.828125 48.84375 64.71875 
Q 54.296875 63.625 57.03125 62.453125 
L 59.8125 61.28125 
L 60.015625 60.984375 
Q 58.296875 53.8125 58.015625 49.90625 
L 56.984375 49.8125 
Q 51.375 61.078125 36.625 61.078125 
Q 33.296875 61.078125 29.796875 59.546875 
Q 26.3125 58.015625 22.984375 54.90625 
Q 19.671875 51.8125 17.578125 46.1875 
Q 15.484375 40.578125 15.484375 33.40625 
Q 15.484375 25.78125 17.9375 19.28125 
Q 20.40625 12.796875 25.75 8.453125 
Q 31.109375 4.109375 38.484375 4.109375 
Q 45.359375 4.109375 49.875 6.296875 
Q 54.390625 8.5 59.8125 14.40625 
L 62.203125 12.5 
Q 51.90625 -0.984375 37.59375 -0.984375 
Q 27.296875 -0.984375 19.75 3.84375 
Q 12.203125 8.6875 8.6875 15.9375 
Q 5.171875 23.1875 5.171875 31.5 
Q 5.171875 45.90625 15.078125 55.859375 
Q 25 65.828125 37.984375 65.828125 
z
" id="LinBiolinum-67"/>
     </defs>
     <use xlink:href="#LinBiolinum-65"/>
     <use x="62.890625" xlink:href="#LinBiolinum-118"/>
     <use x="108.544922" xlink:href="#LinBiolinum-101"/>
     <use x="153.808594" xlink:href="#LinBiolinum-114"/>
     <use x="189.306641" xlink:href="#LinBiolinum-97"/>
     <use x="237.402344" xlink:href="#LinBiolinum-103"/>
     <use x="287.255859" xlink:href="#LinBiolinum-101"/>
     <use x="332.519531" xlink:href="#LinBiolinum-32"/>
     <use x="357.519531" xlink:href="#LinBiolinum-73"/>
     <use x="386.914062" xlink:href="#LinBiolinum-110"/>
     <use x="440.771484" xlink:href="#LinBiolinum-116"/>
     <use x="474.755859" xlink:href="#LinBiolinum-101"/>
     <use x="520.019531" xlink:href="#LinBiolinum-114"/>
     <use x="555.517578" xlink:href="#LinBiolinum-108"/>
     <use x="580.712891" xlink:href="#LinBiolinum-97"/>
     <use x="628.808594" xlink:href="#LinBiolinum-121"/>
     <use x="679.394531" xlink:href="#LinBiolinum-101"/>
     <use x="724.658203" xlink:href="#LinBiolinum-114"/>
     <use x="760.15625" xlink:href="#LinBiolinum-116"/>
     <use x="794.140625" xlink:href="#LinBiolinum-101"/>
     <use x="839.404297" xlink:href="#LinBiolinum-109"/>
     <use x="920.068359" xlink:href="#LinBiolinum-112"/>
     <use x="972.363281" xlink:href="#LinBiolinum-101"/>
     <use x="1017.626953" xlink:href="#LinBiolinum-114"/>
     <use x="1053.125" xlink:href="#LinBiolinum-97"/>
     <use x="1101.220703" xlink:href="#LinBiolinum-116"/>
     <use x="1135.205078" xlink:href="#LinBiolinum-117"/>
     <use x="1188.867188" xlink:href="#LinBiolinum-114"/>
     <use x="1224.365234" xlink:href="#LinBiolinum-101"/>
     <use x="1269.628906" xlink:href="#LinBiolinum-32"/>
     <use x="1294.628906" xlink:href="#LinBiolinum-91"/>
     <use x="1330.712891" xlink:href="#LinBiolinum-176"/>
     <use x="1357.373047" xlink:href="#LinBiolinum-67"/>
     <use x="1425.048828" xlink:href="#LinBiolinum-93"/>
    </g>
   </g>
   <g id="Line3DCollection_2">
    <path d="M 231.460101 124.361172 
L 236.537962 236.577389 
L 385.392005 284.76852 
" style="fill:none;stroke:#b0b0b0;stroke-width:0.8;"/>
    <path d="M 245.76372 113.923043 
L 250.152601 225.165328 
L 397.732332 272.104309 
" style="fill:none;stroke:#b0b0b0;stroke-width:0.8;"/>
    <path d="M 259.691291 103.759336 
L 263.424733 214.040364 
L 409.745951 259.77538 
" style="fill:none;stroke:#b0b0b0;stroke-width:0.8;"/>
    <path d="M 273.257452 93.85937 
L 276.367121 203.191797 
L 421.445667 247.768593 
" style="fill:none;stroke:#b0b0b0;stroke-width:0.8;"/>
    <path d="M 286.47609 84.213009 
L 288.991903 192.609455 
L 432.843624 236.071485 
" style="fill:none;stroke:#b0b0b0;stroke-width:0.8;"/>
    <path d="M 299.36039 74.810634 
L 301.310629 182.283655 
L 443.951348 224.672228 
" style="fill:none;stroke:#b0b0b0;stroke-width:0.8;"/>
    <path d="M 311.922878 65.643102 
L 313.334294 172.20518 
L 454.779785 213.559588 
" style="fill:none;stroke:#b0b0b0;stroke-width:0.8;"/>
   </g>
   <g id="xtick_8">
    <g id="line2d_10">
     <path d="M 384.137652 284.362427 
L 387.903951 285.581757 
" style="fill:none;stroke:#000000;stroke-linecap:square;stroke-width:0.8;"/>
    </g>
    <g id="text_10">
     <!-- 82.5 -->
     <g transform="translate(388.704191 306.56125)scale(0.12 -0.12)">
      <defs>
       <path d="M 5.421875 4.390625 
L 5.421875 4.78125 
Q 6.734375 8.5 10.796875 10.203125 
L 11.1875 10.203125 
Q 15.28125 8.6875 16.609375 4.78125 
L 16.609375 4.390625 
Q 15.1875 0 11.1875 -0.984375 
L 10.796875 -0.984375 
Q 8.40625 -0.484375 7.25 0.703125 
Q 6.109375 1.90625 5.421875 4.390625 
z
" id="LinBiolinum-46"/>
      </defs>
      <use xlink:href="#LinBiolinum-56"/>
      <use x="46.484375" xlink:href="#LinBiolinum-50"/>
      <use x="90.869141" xlink:href="#LinBiolinum-46"/>
      <use x="112.841797" xlink:href="#LinBiolinum-53"/>
     </g>
    </g>
   </g>
   <g id="xtick_9">
    <g id="line2d_11">
     <path d="M 396.489562 271.709035 
L 400.22104 272.895863 
" style="fill:none;stroke:#000000;stroke-linecap:square;stroke-width:0.8;"/>
    </g>
    <g id="text_11">
     <!-- 85.0 -->
     <g transform="translate(400.7534 293.709516)scale(0.12 -0.12)">
      <use xlink:href="#LinBiolinum-56"/>
      <use x="46.484375" xlink:href="#LinBiolinum-53"/>
      <use x="92.96875" xlink:href="#LinBiolinum-46"/>
      <use x="114.941406" xlink:href="#LinBiolinum-48"/>
     </g>
    </g>
   </g>
   <g id="xtick_10">
    <g id="line2d_12">
     <path d="M 408.514594 259.3905 
L 412.211762 260.546109 
" style="fill:none;stroke:#000000;stroke-linecap:square;stroke-width:0.8;"/>
    </g>
    <g id="text_12">
     <!-- 87.5 -->
     <g transform="translate(412.60572 281.198228)scale(0.12 -0.12)">
      <use xlink:href="#LinBiolinum-56"/>
      <use x="46.484375" xlink:href="#LinBiolinum-55"/>
      <use x="92.96875" xlink:href="#LinBiolinum-46"/>
      <use x="114.941406" xlink:href="#LinBiolinum-53"/>
     </g>
    </g>
   </g>
   <g id="xtick_11">
    <g id="line2d_13">
     <path d="M 420.225555 247.393702 
L 423.88892 248.519307 
" style="fill:none;stroke:#000000;stroke-linecap:square;stroke-width:0.8;"/>
    </g>
    <g id="text_13">
     <!-- 90.0 -->
     <g transform="translate(424.148173 269.014035)scale(0.12 -0.12)">
      <defs>
       <path d="M 33.296875 32.328125 
Q 33.40625 33.296875 33.40625 35.984375 
Q 33.40625 42.28125 32.203125 46.75 
Q 31 51.21875 28.90625 53.359375 
Q 26.8125 55.515625 24.796875 56.421875 
Q 22.796875 57.328125 20.515625 57.328125 
Q 11.625 57.328125 11.625 42.671875 
Q 11.625 40.484375 12.0625 38.28125 
Q 12.5 36.078125 13.59375 33.640625 
Q 14.703125 31.203125 17.140625 29.703125 
Q 19.578125 28.21875 23.1875 28.21875 
Q 29.296875 28.21875 33.296875 32.328125 
z
M 6 1.703125 
Q 17.09375 2.828125 23.578125 9.078125 
Q 31.5 16.796875 33.109375 29.390625 
Q 31.296875 27.203125 27.75 25.703125 
Q 24.21875 24.21875 21.09375 24.21875 
Q 15.578125 24.21875 11.6875 26.265625 
Q 7.8125 28.328125 6.046875 31.421875 
Q 4.296875 34.515625 3.53125 37.109375 
Q 2.78125 39.703125 2.78125 42 
Q 2.78125 44.96875 3.734375 48.046875 
Q 4.6875 51.125 6.6875 54.09375 
Q 8.6875 57.078125 12.546875 58.984375 
Q 16.40625 60.890625 21.578125 60.890625 
Q 24.90625 60.890625 28 59.84375 
Q 31.109375 58.796875 34.296875 56.25 
Q 37.5 53.71875 39.453125 48.40625 
Q 41.40625 43.109375 41.40625 35.6875 
Q 41.40625 19.875 30.71875 9.1875 
Q 25.734375 4.109375 19.96875 1.75 
Q 14.203125 -0.59375 6.296875 -1.125 
z
" id="LinBiolinum-57"/>
      </defs>
      <use xlink:href="#LinBiolinum-57"/>
      <use x="46.484375" xlink:href="#LinBiolinum-48"/>
      <use x="92.96875" xlink:href="#LinBiolinum-46"/>
      <use x="114.941406" xlink:href="#LinBiolinum-48"/>
     </g>
    </g>
   </g>
   <g id="xtick_12">
    <g id="line2d_14">
     <path d="M 431.63459 235.706199 
L 435.264655 236.802953 
" style="fill:none;stroke:#000000;stroke-linecap:square;stroke-width:0.8;"/>
    </g>
    <g id="text_14">
     <!-- 92.5 -->
     <g transform="translate(435.518379 257.144275)scale(0.12 -0.12)">
      <use xlink:href="#LinBiolinum-57"/>
      <use x="46.484375" xlink:href="#LinBiolinum-50"/>
      <use x="90.869141" xlink:href="#LinBiolinum-46"/>
      <use x="112.841797" xlink:href="#LinBiolinum-53"/>
     </g>
    </g>
   </g>
   <g id="xtick_13">
    <g id="line2d_15">
     <path d="M 442.753227 224.316182 
L 446.350489 225.385181 
" style="fill:none;stroke:#000000;stroke-linecap:square;stroke-width:0.8;"/>
    </g>
    <g id="text_15">
     <!-- 95.0 -->
     <g transform="translate(446.350847 245.57693)scale(0.12 -0.12)">
      <use xlink:href="#LinBiolinum-57"/>
      <use x="46.484375" xlink:href="#LinBiolinum-53"/>
      <use x="92.96875" xlink:href="#LinBiolinum-46"/>
      <use x="114.941406" xlink:href="#LinBiolinum-48"/>
     </g>
    </g>
   </g>
   <g id="xtick_14">
    <g id="line2d_16">
     <path d="M 453.592414 213.212436 
L 457.157365 214.254721 
" style="fill:none;stroke:#000000;stroke-linecap:square;stroke-width:0.8;"/>
    </g>
    <g id="text_16">
     <!-- 97.5 -->
     <g transform="translate(457.033263 234.30059)scale(0.12 -0.12)">
      <use xlink:href="#LinBiolinum-57"/>
      <use x="46.484375" xlink:href="#LinBiolinum-55"/>
      <use x="92.96875" xlink:href="#LinBiolinum-46"/>
      <use x="114.941406" xlink:href="#LinBiolinum-53"/>
     </g>
    </g>
   </g>
  </g>
  <g id="axis3d_3">
   <g id="line2d_17">
    <path d="M 458.654901 209.582766 
L 463.687202 99.690171 
" style="fill:none;stroke:#000000;stroke-linecap:square;stroke-width:0.8;"/>
   </g>
   <g id="text_17">
    <!-- Relative Density [%] -->
    <g transform="translate(501.981227 200.895812)rotate(-87.378092)scale(0.12 -0.12)">
     <defs>
      <path d="M 19 28.609375 
L 19 20.015625 
Q 19 7.125 20.015625 0 
L 19.828125 -0.296875 
Q 18.015625 0 14.6875 0 
Q 11.375 0 9.625 -0.296875 
L 9.421875 0 
Q 10.40625 6.78125 10.40625 20.015625 
L 10.40625 44.484375 
Q 10.40625 57.375 9.421875 64.5 
L 9.625 64.796875 
Q 11.421875 64.5 14.703125 64.5 
Q 16.3125 64.5 21.65625 64.84375 
Q 27 65.1875 28.21875 65.1875 
Q 41.84375 65.1875 46.921875 60.40625 
Q 52.25 55.421875 52.203125 47.90625 
Q 52.203125 36.8125 42.1875 31.78125 
Q 39.984375 30.671875 36.140625 29.890625 
Q 38.484375 26.765625 46.578125 14.96875 
Q 54.6875 3.171875 57.515625 0 
L 57.328125 -0.296875 
Q 55.328125 0 51.3125 0 
Q 47.21875 0 45.3125 -0.296875 
Q 43.5 5.125 35.796875 17.578125 
Q 35.296875 18.359375 34 20.5 
Q 32.71875 22.65625 32.078125 23.65625 
Q 31.453125 24.65625 30.34375 26.1875 
Q 29.25 27.734375 28.265625 28.90625 
Q 24.078125 28.609375 19 28.609375 
z
M 28.328125 60.890625 
Q 21.734375 60.890625 20.359375 60.203125 
Q 19 59.515625 19 56.5 
L 19 32.625 
L 24.8125 32.625 
Q 33.015625 32.625 37.796875 35.96875 
Q 42.578125 39.3125 42.578125 47.796875 
Q 42.578125 51.609375 41.234375 54.34375 
Q 39.890625 57.078125 37.640625 58.4375 
Q 35.40625 59.8125 33.15625 60.34375 
Q 30.90625 60.890625 28.328125 60.890625 
z
" id="LinBiolinum-82"/>
      <path d="M 46.1875 8.890625 
Q 46.1875 5.078125 47.65625 3.4375 
Q 49.125 1.8125 50.984375 1.8125 
Q 55.078125 1.8125 57.875 7.109375 
Q 60.6875 12.40625 60.6875 17.484375 
Q 60.6875 21.1875 59.15625 22.609375 
Q 57.625 24.03125 55.90625 24.03125 
Q 52.203125 24.03125 49.1875 18.953125 
Q 46.1875 13.875 46.1875 8.890625 
z
M 40.578125 10.5 
Q 40.578125 16.703125 44.796875 22 
Q 49.03125 27.296875 54.6875 27.296875 
Q 58.59375 27.296875 61.25 25.09375 
Q 63.921875 22.90625 63.921875 17.578125 
Q 63.921875 11.1875 60.15625 4.9375 
Q 56.390625 -1.3125 50.296875 -1.3125 
Q 45.703125 -1.3125 43.140625 2.25 
Q 40.578125 5.8125 40.578125 10.5 
z
M 38.921875 55.71875 
Q 43.3125 55.71875 48 57.0625 
Q 52.6875 58.40625 54.890625 61.375 
L 58.296875 59.71875 
L 14.5 -1.3125 
L 10.890625 0.296875 
L 49.21875 53.71875 
Q 44.140625 51.703125 37.796875 51.703125 
Q 33.015625 51.703125 29.296875 53.90625 
Q 29.59375 52.78125 29.59375 51.3125 
Q 29.59375 45.21875 25.796875 38.8125 
Q 22.015625 32.421875 15.921875 32.421875 
Q 11.328125 32.421875 8.8125 35.953125 
Q 6.296875 39.5 6.296875 44 
Q 6.296875 50.296875 10.5 55.640625 
Q 14.703125 60.984375 20.3125 60.984375 
Q 22.40625 60.984375 24.5 60.125 
Q 26.609375 59.28125 27.484375 58.296875 
Q 33.109375 55.71875 38.921875 55.71875 
z
M 11.8125 42.484375 
Q 11.8125 38.671875 13.296875 37.078125 
Q 14.796875 35.5 16.609375 35.5 
Q 20.703125 35.5 23.5 40.703125 
Q 26.3125 45.90625 26.3125 51.21875 
Q 26.3125 54.828125 24.84375 56.265625 
Q 23.390625 57.71875 21.484375 57.71875 
Q 17.78125 57.71875 14.796875 52.59375 
Q 11.8125 47.46875 11.8125 42.484375 
z
" id="LinBiolinum-37"/>
     </defs>
     <use xlink:href="#LinBiolinum-82"/>
     <use x="59.960938" xlink:href="#LinBiolinum-101"/>
     <use x="105.224609" xlink:href="#LinBiolinum-108"/>
     <use x="130.419922" xlink:href="#LinBiolinum-97"/>
     <use x="178.515625" xlink:href="#LinBiolinum-116"/>
     <use x="212.5" xlink:href="#LinBiolinum-105"/>
     <use x="238.476562" xlink:href="#LinBiolinum-118"/>
     <use x="284.130859" xlink:href="#LinBiolinum-101"/>
     <use x="329.394531" xlink:href="#LinBiolinum-32"/>
     <use x="354.394531" xlink:href="#LinBiolinum-68"/>
     <use x="425.390625" xlink:href="#LinBiolinum-101"/>
     <use x="470.654297" xlink:href="#LinBiolinum-110"/>
     <use x="524.511719" xlink:href="#LinBiolinum-115"/>
     <use x="564.111328" xlink:href="#LinBiolinum-105"/>
     <use x="590.087891" xlink:href="#LinBiolinum-116"/>
     <use x="624.072266" xlink:href="#LinBiolinum-121"/>
     <use x="674.658203" xlink:href="#LinBiolinum-32"/>
     <use x="699.658203" xlink:href="#LinBiolinum-91"/>
     <use x="735.742188" xlink:href="#LinBiolinum-37"/>
     <use x="803.710938" xlink:href="#LinBiolinum-93"/>
    </g>
   </g>
   <g id="Line3DCollection_3">
    <path d="M 459.816242 184.222032 
L 317.358289 144.039362 
L 228.510972 216.283244 
" style="fill:none;stroke:#b0b0b0;stroke-width:0.8;"/>
    <path d="M 460.975253 158.912196 
L 317.076754 119.55637 
L 227.261693 190.341156 
" style="fill:none;stroke:#b0b0b0;stroke-width:0.8;"/>
    <path d="M 462.15818 133.080101 
L 316.789692 94.59272 
L 225.985635 163.84298 
" style="fill:none;stroke:#b0b0b0;stroke-width:0.8;"/>
    <path d="M 463.36577 106.709415 
L 316.496938 69.134118 
L 224.681927 136.770643 
" style="fill:none;stroke:#b0b0b0;stroke-width:0.8;"/>
   </g>
   <g id="xtick_15">
    <g id="line2d_18">
     <path d="M 458.620049 183.884625 
L 462.211502 184.897655 
" style="fill:none;stroke:#000000;stroke-linecap:square;stroke-width:0.8;"/>
    </g>
    <g id="text_18">
     <!-- 70 -->
     <g transform="translate(472.671326 190.046381)scale(0.12 -0.12)">
      <use xlink:href="#LinBiolinum-55"/>
      <use x="46.484375" xlink:href="#LinBiolinum-48"/>
     </g>
    </g>
   </g>
   <g id="xtick_16">
    <g id="line2d_19">
     <path d="M 459.766381 158.581573 
L 463.395931 159.574244 
" style="fill:none;stroke:#000000;stroke-linecap:square;stroke-width:0.8;"/>
    </g>
    <g id="text_19">
     <!-- 80 -->
     <g transform="translate(474.014454 164.78798)scale(0.12 -0.12)">
      <use xlink:href="#LinBiolinum-56"/>
      <use x="46.484375" xlink:href="#LinBiolinum-48"/>
     </g>
    </g>
   </g>
   <g id="xtick_17">
    <g id="line2d_20">
     <path d="M 460.936358 132.756615 
L 464.60482 133.727867 
" style="fill:none;stroke:#000000;stroke-linecap:square;stroke-width:0.8;"/>
    </g>
    <g id="text_20">
     <!-- 90 -->
     <g transform="translate(475.38521 139.009993)scale(0.12 -0.12)">
      <use xlink:href="#LinBiolinum-57"/>
      <use x="46.484375" xlink:href="#LinBiolinum-48"/>
     </g>
    </g>
   </g>
   <g id="xtick_18">
    <g id="line2d_21">
     <path d="M 462.130718 106.393436 
L 465.838935 107.342156 
" style="fill:none;stroke:#000000;stroke-linecap:square;stroke-width:0.8;"/>
    </g>
    <g id="text_21">
     <!-- 100 -->
     <g transform="translate(473.995395 112.696221)scale(0.12 -0.12)">
      <defs>
       <path d="M 32.625 18.890625 
Q 32.625 7.71875 33.5 0 
L 33.296875 -0.296875 
Q 30.515625 0 28.515625 0 
Q 28.515625 0 23.875 -0.296875 
L 23.78125 0 
Q 24.5625 6.5 24.609375 18.890625 
L 24.609375 43.703125 
Q 24.609375 51.3125 22.796875 51.3125 
Q 21.6875 51.3125 17.578125 50.609375 
Q 13.484375 49.90625 11.375 49.703125 
L 10.796875 52.59375 
Q 14.984375 53.90625 22.375 57 
Q 29.78125 60.109375 32.71875 60.984375 
Q 33.40625 60.984375 33.40625 60.5 
Q 32.625 54.890625 32.625 44.28125 
z
" id="LinBiolinum-49"/>
      </defs>
      <use xlink:href="#LinBiolinum-49"/>
      <use x="46.484375" xlink:href="#LinBiolinum-48"/>
      <use x="92.96875" xlink:href="#LinBiolinum-48"/>
     </g>
    </g>
   </g>
  </g>
  <g id="axes_1">
   <g id="Path3DCollection_1">
    <defs>
     <path d="M 0 2.236068 
C 0.593012 2.236068 1.161816 2.000462 1.581139 1.581139 
C 2.000462 1.161816 2.236068 0.593012 2.236068 -0 
C 2.236068 -0.593012 2.000462 -1.161816 1.581139 -1.581139 
C 1.161816 -2.000462 0.593012 -2.236068 0 -2.236068 
C -0.593012 -2.236068 -1.161816 -2.000462 -1.581139 -1.581139 
C -2.000462 -1.161816 -2.236068 -0.593012 -2.236068 0 
C -2.236068 0.593012 -2.000462 1.161816 -1.581139 1.581139 
C -1.161816 2.000462 -0.593012 2.236068 0 2.236068 
z
" id="C0_0_a8ea78bac7"/>
    </defs>
    <g clip-path="url(#p567895dd8b)">
     <use style="fill:#ff0000;fill-opacity:0.3;stroke:#ff0000;stroke-opacity:0.3;stroke-width:0.5;" x="279.505485" xlink:href="#C0_0_a8ea78bac7" y="121.581948"/>
    </g>
    <g clip-path="url(#p567895dd8b)">
     <use style="fill:#ff0000;fill-opacity:0.304348;stroke:#ff0000;stroke-opacity:0.304348;stroke-width:0.5;" x="279.491312" xlink:href="#C0_0_a8ea78bac7" y="121.042953"/>
    </g>
    <g clip-path="url(#p567895dd8b)">
     <use style="fill:#ff0000;fill-opacity:0.337665;stroke:#ff0000;stroke-opacity:0.337665;stroke-width:0.5;" x="316.733856" xlink:href="#C0_0_a8ea78bac7" y="123.016803"/>
    </g>
    <g clip-path="url(#p567895dd8b)">
     <use style="fill:#ff0000;fill-opacity:0.344211;stroke:#ff0000;stroke-opacity:0.344211;stroke-width:0.5;" x="316.724424" xlink:href="#C0_0_a8ea78bac7" y="122.207197"/>
    </g>
    <g clip-path="url(#p567895dd8b)">
     <use style="fill:#ff0000;fill-opacity:0.391317;stroke:#ff0000;stroke-opacity:0.391317;stroke-width:0.5;" x="275.13983" xlink:href="#C0_0_a8ea78bac7" y="124.35308"/>
    </g>
    <g clip-path="url(#p567895dd8b)">
     <use style="fill:#ff0000;fill-opacity:0.468952;stroke:#ff0000;stroke-opacity:0.468952;stroke-width:0.5;" x="258.542997" xlink:href="#C0_0_a8ea78bac7" y="171.345116"/>
    </g>
    <g clip-path="url(#p567895dd8b)">
     <use style="fill:#ff0000;fill-opacity:0.567458;stroke:#ff0000;stroke-opacity:0.567458;stroke-width:0.5;" x="266.326738" xlink:href="#C0_0_a8ea78bac7" y="131.057105"/>
    </g>
    <g clip-path="url(#p567895dd8b)">
     <use style="fill:#ff0000;fill-opacity:0.699186;stroke:#ff0000;stroke-opacity:0.699186;stroke-width:0.5;" x="285.848187" xlink:href="#C0_0_a8ea78bac7" y="137.507156"/>
    </g>
    <g clip-path="url(#p567895dd8b)">
     <use style="fill:#ff0000;fill-opacity:0.719019;stroke:#ff0000;stroke-opacity:0.719019;stroke-width:0.5;" x="297.856797" xlink:href="#C0_0_a8ea78bac7" y="139.341686"/>
    </g>
    <g clip-path="url(#p567895dd8b)">
     <use style="fill:#ff0000;fill-opacity:0.817868;stroke:#ff0000;stroke-opacity:0.817868;stroke-width:0.5;" x="333.842121" xlink:href="#C0_0_a8ea78bac7" y="140.587882"/>
    </g>
    <g clip-path="url(#p567895dd8b)">
     <use style="fill:#ff0000;stroke:#ff0000;stroke-width:0.5;" x="406.254885" xlink:href="#C0_0_a8ea78bac7" y="147.155674"/>
    </g>
   </g>
   <g id="Path3DCollection_2">
    <defs>
     <path d="M 0 2.236068 
C 0.593012 2.236068 1.161816 2.000462 1.581139 1.581139 
C 2.000462 1.161816 2.236068 0.593012 2.236068 -0 
C 2.236068 -0.593012 2.000462 -1.161816 1.581139 -1.581139 
C 1.161816 -2.000462 0.593012 -2.236068 0 -2.236068 
C -0.593012 -2.236068 -1.161816 -2.000462 -1.581139 -1.581139 
C -2.000462 -1.161816 -2.236068 -0.593012 -2.236068 0 
C -2.236068 0.593012 -2.000462 1.161816 -1.581139 1.581139 
C -1.161816 2.000462 -0.593012 2.236068 0 2.236068 
z
" id="C1_0_396bd336dd"/>
    </defs>
    <g clip-path="url(#p567895dd8b)">
     <use style="fill-opacity:0.3;stroke:#000000;stroke-opacity:0.3;stroke-width:0.5;" x="244.551977" xlink:href="#C1_0_396bd336dd" y="233.243348"/>
    </g>
    <g clip-path="url(#p567895dd8b)">
     <use style="fill-opacity:0.318586;stroke:#000000;stroke-opacity:0.318586;stroke-width:0.5;" x="448.267737" xlink:href="#C1_0_396bd336dd" y="119.71562"/>
    </g>
    <g clip-path="url(#p567895dd8b)">
     <use style="fill-opacity:0.429233;stroke:#000000;stroke-opacity:0.429233;stroke-width:0.5;" x="365.468884" xlink:href="#C1_0_396bd336dd" y="115.612288"/>
    </g>
    <g clip-path="url(#p567895dd8b)">
     <use style="fill-opacity:0.431489;stroke:#000000;stroke-opacity:0.431489;stroke-width:0.5;" x="365.472911" xlink:href="#C1_0_396bd336dd" y="115.076642"/>
    </g>
    <g clip-path="url(#p567895dd8b)">
     <use style="fill-opacity:0.464083;stroke:#000000;stroke-opacity:0.464083;stroke-width:0.5;" x="438.240499" xlink:href="#C1_0_396bd336dd" y="124.436528"/>
    </g>
    <g clip-path="url(#p567895dd8b)">
     <use style="fill-opacity:0.473015;stroke:#000000;stroke-opacity:0.473015;stroke-width:0.5;" x="322.878763" xlink:href="#C1_0_396bd336dd" y="118.424616"/>
    </g>
    <g clip-path="url(#p567895dd8b)">
     <use style="fill-opacity:0.476427;stroke:#000000;stroke-opacity:0.476427;stroke-width:0.5;" x="322.871337" xlink:href="#C1_0_396bd336dd" y="117.618672"/>
    </g>
    <g clip-path="url(#p567895dd8b)">
     <use style="fill-opacity:0.492818;stroke:#000000;stroke-opacity:0.492818;stroke-width:0.5;" x="308.49143" xlink:href="#C1_0_396bd336dd" y="118.449395"/>
    </g>
    <g clip-path="url(#p567895dd8b)">
     <use style="fill-opacity:0.517253;stroke:#000000;stroke-opacity:0.517253;stroke-width:0.5;" x="357.756495" xlink:href="#C1_0_396bd336dd" y="121.971164"/>
    </g>
    <g clip-path="url(#p567895dd8b)">
     <use style="fill-opacity:0.519546;stroke:#000000;stroke-opacity:0.519546;stroke-width:0.5;" x="357.75892" xlink:href="#C1_0_396bd336dd" y="121.43247"/>
    </g>
    <g clip-path="url(#p567895dd8b)">
     <use style="fill-opacity:0.54854;stroke:#000000;stroke-opacity:0.54854;stroke-width:0.5;" x="302.935741" xlink:href="#C1_0_396bd336dd" y="123.87837"/>
    </g>
    <g clip-path="url(#p567895dd8b)">
     <use style="fill-opacity:0.549626;stroke:#000000;stroke-opacity:0.549626;stroke-width:0.5;" x="257.487798" xlink:href="#C1_0_396bd336dd" y="122.897331"/>
    </g>
    <g clip-path="url(#p567895dd8b)">
     <use style="fill-opacity:0.567324;stroke:#000000;stroke-opacity:0.567324;stroke-width:0.5;" x="245.056435" xlink:href="#C1_0_396bd336dd" y="161.314581"/>
    </g>
    <g clip-path="url(#p567895dd8b)">
     <use style="fill-opacity:0.568656;stroke:#000000;stroke-opacity:0.568656;stroke-width:0.5;" x="275.14741" xlink:href="#C1_0_396bd336dd" y="124.623396"/>
    </g>
    <g clip-path="url(#p567895dd8b)">
     <use style="fill-opacity:0.583265;stroke:#000000;stroke-opacity:0.583265;stroke-width:0.5;" x="254.135832" xlink:href="#C1_0_396bd336dd" y="125.677429"/>
    </g>
    <g clip-path="url(#p567895dd8b)">
     <use style="fill-opacity:0.588676;stroke:#000000;stroke-opacity:0.588676;stroke-width:0.5;" x="258.720933" xlink:href="#C1_0_396bd336dd" y="176.395334"/>
    </g>
    <g clip-path="url(#p567895dd8b)">
     <use style="fill-opacity:0.603118;stroke:#000000;stroke-opacity:0.603118;stroke-width:0.5;" x="427.857384" xlink:href="#C1_0_396bd336dd" y="131.723308"/>
    </g>
    <g clip-path="url(#p567895dd8b)">
     <use style="fill-opacity:0.605535;stroke:#000000;stroke-opacity:0.605535;stroke-width:0.5;" x="349.918637" xlink:href="#C1_0_396bd336dd" y="128.703971"/>
    </g>
    <g clip-path="url(#p567895dd8b)">
     <use style="fill-opacity:0.611363;stroke:#000000;stroke-opacity:0.611363;stroke-width:0.5;" x="349.92056" xlink:href="#C1_0_396bd336dd" y="127.349403"/>
    </g>
    <g clip-path="url(#p567895dd8b)">
     <use style="fill-opacity:0.611821;stroke:#000000;stroke-opacity:0.611821;stroke-width:0.5;" x="297.292178" xlink:href="#C1_0_396bd336dd" y="127.737614"/>
    </g>
    <g clip-path="url(#p567895dd8b)">
     <use style="fill-opacity:0.612044;stroke:#000000;stroke-opacity:0.612044;stroke-width:0.5;" x="310.50418" xlink:href="#C1_0_396bd336dd" y="127.398537"/>
    </g>
    <g clip-path="url(#p567895dd8b)">
     <use style="fill-opacity:0.612524;stroke:#000000;stroke-opacity:0.612524;stroke-width:0.5;" x="247.720304" xlink:href="#C1_0_396bd336dd" y="140.220155"/>
    </g>
    <g clip-path="url(#p567895dd8b)">
     <use style="fill-opacity:0.613211;stroke:#000000;stroke-opacity:0.613211;stroke-width:0.5;" x="310.50035" xlink:href="#C1_0_396bd336dd" y="127.127437"/>
    </g>
    <g clip-path="url(#p567895dd8b)">
     <use style="fill-opacity:0.616075;stroke:#000000;stroke-opacity:0.616075;stroke-width:0.5;" x="270.754192" xlink:href="#C1_0_396bd336dd" y="127.689188"/>
    </g>
    <g clip-path="url(#p567895dd8b)">
     <use style="fill-opacity:0.617242;stroke:#000000;stroke-opacity:0.617242;stroke-width:0.5;" x="270.746108" xlink:href="#C1_0_396bd336dd" y="127.41802"/>
    </g>
    <g clip-path="url(#p567895dd8b)">
     <use style="fill-opacity:0.619463;stroke:#000000;stroke-opacity:0.619463;stroke-width:0.5;" x="250.741262" xlink:href="#C1_0_396bd336dd" y="127.933517"/>
    </g>
    <g clip-path="url(#p567895dd8b)">
     <use style="fill-opacity:0.660424;stroke:#000000;stroke-opacity:0.660424;stroke-width:0.5;" x="266.343919" xlink:href="#C1_0_396bd336dd" y="131.600864"/>
    </g>
    <g clip-path="url(#p567895dd8b)">
     <use style="fill-opacity:0.674666;stroke:#000000;stroke-opacity:0.674666;stroke-width:0.5;" x="291.588093" xlink:href="#C1_0_396bd336dd" y="131.914455"/>
    </g>
    <g clip-path="url(#p567895dd8b)">
     <use style="fill-opacity:0.677874;stroke:#000000;stroke-opacity:0.677874;stroke-width:0.5;" x="262.11052" xlink:href="#C1_0_396bd336dd" y="141.7935"/>
    </g>
    <g clip-path="url(#p567895dd8b)">
     <use style="fill-opacity:0.679972;stroke:#000000;stroke-opacity:0.679972;stroke-width:0.5;" x="304.206589" xlink:href="#C1_0_396bd336dd" y="132.654435"/>
    </g>
    <g clip-path="url(#p567895dd8b)">
     <use style="fill-opacity:0.682334;stroke:#000000;stroke-opacity:0.682334;stroke-width:0.5;" x="304.197526" xlink:href="#C1_0_396bd336dd" y="132.109932"/>
    </g>
    <g clip-path="url(#p567895dd8b)">
     <use style="fill-opacity:0.684962;stroke:#000000;stroke-opacity:0.684962;stroke-width:0.5;" x="262.056137" xlink:href="#C1_0_396bd336dd" y="140.165504"/>
    </g>
    <g clip-path="url(#p567895dd8b)">
     <use style="fill-opacity:0.701201;stroke:#000000;stroke-opacity:0.701201;stroke-width:0.5;" x="341.948819" xlink:href="#C1_0_396bd336dd" y="134.186054"/>
    </g>
    <g clip-path="url(#p567895dd8b)">
     <use style="fill-opacity:0.704759;stroke:#000000;stroke-opacity:0.704759;stroke-width:0.5;" x="341.947405" xlink:href="#C1_0_396bd336dd" y="133.368128"/>
    </g>
    <g clip-path="url(#p567895dd8b)">
     <use style="fill-opacity:0.751138;stroke:#000000;stroke-opacity:0.751138;stroke-width:0.5;" x="297.820062" xlink:href="#C1_0_396bd336dd" y="137.429052"/>
    </g>
    <g clip-path="url(#p567895dd8b)">
     <use style="fill-opacity:0.752981;stroke:#000000;stroke-opacity:0.752981;stroke-width:0.5;" x="417.247504" xlink:href="#C1_0_396bd336dd" y="137.561987"/>
    </g>
    <g clip-path="url(#p567895dd8b)">
     <use style="fill-opacity:0.758092;stroke:#000000;stroke-opacity:0.758092;stroke-width:0.5;" x="280.24331" xlink:href="#C1_0_396bd336dd" y="150.528316"/>
    </g>
    <g clip-path="url(#p567895dd8b)">
     <use style="fill-opacity:0.759381;stroke:#000000;stroke-opacity:0.759381;stroke-width:0.5;" x="291.664708" xlink:href="#C1_0_396bd336dd" y="156.742299"/>
    </g>
    <g clip-path="url(#p567895dd8b)">
     <use style="fill-opacity:0.794941;stroke:#000000;stroke-opacity:0.794941;stroke-width:0.5;" x="333.842121" xlink:href="#C1_0_396bd336dd" y="140.587882"/>
    </g>
    <g clip-path="url(#p567895dd8b)">
     <use style="fill-opacity:0.814768;stroke:#000000;stroke-opacity:0.814768;stroke-width:0.5;" x="291.390899" xlink:href="#C1_0_396bd336dd" y="144.188346"/>
    </g>
    <g clip-path="url(#p567895dd8b)">
     <use style="fill-opacity:0.859709;stroke:#000000;stroke-opacity:0.859709;stroke-width:0.5;" x="325.652854" xlink:href="#C1_0_396bd336dd" y="153.976405"/>
    </g>
    <g clip-path="url(#p567895dd8b)">
     <use style="fill-opacity:0.882936;stroke:#000000;stroke-opacity:0.882936;stroke-width:0.5;" x="325.609825" xlink:href="#C1_0_396bd336dd" y="148.753506"/>
    </g>
    <g clip-path="url(#p567895dd8b)">
     <use style="stroke:#000000;stroke-width:0.5;" x="394.846835" xlink:href="#C1_0_396bd336dd" y="164.202875"/>
    </g>
   </g>
   <g id="legend_1">
    <g id="patch_6">
     <path d="M 321.323625 85.831875 
L 467.3805 85.831875 
Q 469.7805 85.831875 469.7805 83.431875 
L 469.7805 50.16 
Q 469.7805 47.76 467.3805 47.76 
L 321.323625 47.76 
Q 318.923625 47.76 318.923625 50.16 
L 318.923625 83.431875 
Q 318.923625 85.831875 321.323625 85.831875 
z
" style="fill:#ffffff;opacity:0.8;stroke:#cccccc;stroke-linejoin:miter;"/>
    </g>
    <g id="Path3DCollection_3">
     <defs>
      <path d="M 0 2.236068 
C 0.593012 2.236068 1.161816 2.000462 1.581139 1.581139 
C 2.000462 1.161816 2.236068 0.593012 2.236068 0 
C 2.236068 -0.593012 2.000462 -1.161816 1.581139 -1.581139 
C 1.161816 -2.000462 0.593012 -2.236068 0 -2.236068 
C -0.593012 -2.236068 -1.161816 -2.000462 -1.581139 -1.581139 
C -2.000462 -1.161816 -2.236068 -0.593012 -2.236068 0 
C -2.236068 0.593012 -2.000462 1.161816 -1.581139 1.581139 
C -1.161816 2.000462 -0.593012 2.236068 0 2.236068 
z
" id="m57455e12bd" style="stroke:#000000;stroke-width:0.5;"/>
     </defs>
     <g>
      <use style="stroke:#000000;stroke-width:0.5;" x="335.723625" xlink:href="#m57455e12bd" y="57.81"/>
     </g>
    </g>
    <g id="text_22">
     <!-- Trainings Data Points -->
     <g transform="translate(357.323625 60.96)scale(0.12 -0.12)">
      <defs>
       <path d="M 22.703125 44.484375 
Q 22.703125 56.203125 21.921875 58.890625 
Q 15.921875 58.890625 10.859375 58.546875 
Q 5.8125 58.203125 3.765625 57.859375 
L 1.703125 57.515625 
L 1.515625 57.90625 
Q 1.8125 60.203125 1.515625 64.5 
L 1.703125 64.796875 
Q 4.109375 64.5 7.71875 64.5 
L 46.296875 64.5 
Q 49.90625 64.5 52.296875 64.796875 
L 52.484375 64.5 
Q 52.203125 60.203125 52.484375 57.90625 
L 52.296875 57.515625 
Q 45.515625 58.9375 32.078125 58.890625 
Q 31.296875 56.203125 31.296875 44.484375 
L 31.296875 20.015625 
Q 31.296875 7.125 32.328125 0 
L 32.078125 -0.296875 
Q 30.28125 0 26.984375 0 
Q 23.6875 0 21.921875 -0.296875 
L 21.6875 0 
Q 22.65625 6.78125 22.703125 20.015625 
z
" id="LinBiolinum-84"/>
       <path d="M 19 56.5 
L 19 32.90625 
Q 20.90625 31.9375 26.90625 31.890625 
Q 34.625 31.890625 38.40625 35.34375 
Q 42.1875 38.8125 42.1875 47.125 
Q 42.1875 51.421875 40.984375 54.25 
Q 39.796875 57.078125 37.59375 58.484375 
Q 35.40625 59.90625 33.15625 60.390625 
Q 30.90625 60.890625 27.984375 60.890625 
Q 22.796875 60.890625 20.890625 59.84375 
Q 19 58.796875 19 56.5 
z
M 10.40625 44.484375 
Q 10.40625 57.375 9.421875 64.5 
L 9.625 64.796875 
Q 11.421875 64.5 14.703125 64.5 
Q 16.21875 64.5 21.796875 64.84375 
Q 27.390625 65.1875 28.71875 65.1875 
Q 35.296875 65.1875 40.109375 63.546875 
Q 44.921875 61.921875 47.3125 59.15625 
Q 49.703125 56.390625 50.796875 53.53125 
Q 51.90625 50.6875 51.90625 47.609375 
Q 51.90625 44.1875 50.5625 40.84375 
Q 49.21875 37.5 46.5 34.4375 
Q 43.796875 31.390625 38.84375 29.484375 
Q 33.890625 27.59375 27.390625 27.59375 
Q 22.078125 27.59375 19 28.609375 
L 19 20.015625 
Q 19 7.125 20.015625 0 
L 19.828125 -0.296875 
Q 18.015625 0 14.6875 0 
Q 11.375 0 9.625 -0.296875 
L 9.421875 0 
Q 10.40625 6.78125 10.40625 20.015625 
z
" id="LinBiolinum-80"/>
      </defs>
      <use xlink:href="#LinBiolinum-84"/>
      <use x="53.955078" xlink:href="#LinBiolinum-114"/>
      <use x="89.453125" xlink:href="#LinBiolinum-97"/>
      <use x="137.548828" xlink:href="#LinBiolinum-105"/>
      <use x="163.525391" xlink:href="#LinBiolinum-110"/>
      <use x="217.382812" xlink:href="#LinBiolinum-105"/>
      <use x="243.359375" xlink:href="#LinBiolinum-110"/>
      <use x="297.216797" xlink:href="#LinBiolinum-103"/>
      <use x="347.070312" xlink:href="#LinBiolinum-115"/>
      <use x="386.669922" xlink:href="#LinBiolinum-32"/>
      <use x="411.669922" xlink:href="#LinBiolinum-68"/>
      <use x="482.666016" xlink:href="#LinBiolinum-97"/>
      <use x="530.761719" xlink:href="#LinBiolinum-116"/>
      <use x="564.746094" xlink:href="#LinBiolinum-97"/>
      <use x="612.841797" xlink:href="#LinBiolinum-32"/>
      <use x="637.841797" xlink:href="#LinBiolinum-80"/>
      <use x="693.701172" xlink:href="#LinBiolinum-111"/>
      <use x="743.701172" xlink:href="#LinBiolinum-105"/>
      <use x="769.677734" xlink:href="#LinBiolinum-110"/>
      <use x="823.535156" xlink:href="#LinBiolinum-116"/>
      <use x="857.519531" xlink:href="#LinBiolinum-115"/>
     </g>
    </g>
    <g id="Path3DCollection_4">
     <defs>
      <path d="M 0 2.236068 
C 0.593012 2.236068 1.161816 2.000462 1.581139 1.581139 
C 2.000462 1.161816 2.236068 0.593012 2.236068 0 
C 2.236068 -0.593012 2.000462 -1.161816 1.581139 -1.581139 
C 1.161816 -2.000462 0.593012 -2.236068 0 -2.236068 
C -0.593012 -2.236068 -1.161816 -2.000462 -1.581139 -1.581139 
C -2.000462 -1.161816 -2.236068 -0.593012 -2.236068 0 
C -2.236068 0.593012 -2.000462 1.161816 -1.581139 1.581139 
C -1.161816 2.000462 -0.593012 2.236068 0 2.236068 
z
" id="m9a7bd7f168" style="stroke:#ff0000;stroke-width:0.5;"/>
     </defs>
     <g>
      <use style="fill:#ff0000;stroke:#ff0000;stroke-width:0.5;" x="335.723625" xlink:href="#m9a7bd7f168" y="75.06375"/>
     </g>
    </g>
    <g id="text_23">
     <!-- Test Data Points -->
     <g transform="translate(357.323625 78.21375)scale(0.12 -0.12)">
      <use xlink:href="#LinBiolinum-84"/>
      <use x="53.955078" xlink:href="#LinBiolinum-101"/>
      <use x="99.21875" xlink:href="#LinBiolinum-115"/>
      <use x="138.818359" xlink:href="#LinBiolinum-116"/>
      <use x="172.802734" xlink:href="#LinBiolinum-32"/>
      <use x="197.802734" xlink:href="#LinBiolinum-68"/>
      <use x="268.798828" xlink:href="#LinBiolinum-97"/>
      <use x="316.894531" xlink:href="#LinBiolinum-116"/>
      <use x="350.878906" xlink:href="#LinBiolinum-97"/>
      <use x="398.974609" xlink:href="#LinBiolinum-32"/>
      <use x="423.974609" xlink:href="#LinBiolinum-80"/>
      <use x="479.833984" xlink:href="#LinBiolinum-111"/>
      <use x="529.833984" xlink:href="#LinBiolinum-105"/>
      <use x="555.810547" xlink:href="#LinBiolinum-110"/>
      <use x="609.667969" xlink:href="#LinBiolinum-116"/>
      <use x="643.652344" xlink:href="#LinBiolinum-115"/>
     </g>
    </g>
   </g>
  </g>
  <g id="text_24">
   <!-- 3D Visualisation of Input Data Divided in 80.00 % Training and 20.00 % Test Data Set  -->
   <g transform="translate(7.2 19.2663)scale(0.1728 -0.1728)">
    <defs>
     <path d="M 21.296875 3.078125 
Q 24.90625 3.078125 28.203125 6.546875 
Q 31.5 10.015625 31.5 17.671875 
Q 31.5 29.390625 20.21875 29.390625 
Q 16.5 29.390625 15.28125 29.203125 
L 15.28125 33.203125 
Q 31.109375 34.328125 31.109375 46.578125 
Q 31.109375 50.484375 28.484375 53.625 
Q 25.875 56.78125 22.90625 56.78125 
Q 18.3125 56.78125 16.109375 54.625 
Q 13.921875 52.484375 11.28125 47.015625 
L 6.890625 47.125 
L 4.78125 54.984375 
L 5.078125 55.421875 
Q 7.375 57.421875 12.59375 59.203125 
Q 17.828125 60.984375 23.78125 60.984375 
Q 43.796875 60.984375 43.796875 48.1875 
Q 43.796875 42.1875 40.25 38.296875 
Q 36.71875 34.421875 30.90625 32.90625 
L 30.90625 32.625 
Q 37.3125 32.03125 42 28.3125 
Q 46.6875 24.609375 46.6875 18.015625 
Q 46.6875 9.125 39.421875 4 
Q 32.171875 -1.125 21.09375 -1.125 
Q 10.40625 -1.125 4 4.5 
L 3.609375 4.984375 
L 5.8125 12.890625 
L 10.203125 12.984375 
Q 10.796875 11.859375 11.84375 9.734375 
Q 12.890625 7.625 13.40625 6.859375 
Q 13.921875 6.109375 15.0625 4.953125 
Q 16.21875 3.8125 17.65625 3.4375 
Q 19.09375 3.078125 21.296875 3.078125 
z
" id="LinBiolinumB-51"/>
     <path d="M 24.515625 10.109375 
Q 24.515625 7.625 26.65625 6.34375 
Q 28.8125 5.078125 34.28125 5.078125 
Q 39.890625 5.078125 43.5 6.03125 
Q 47.125 6.984375 49.796875 9.640625 
Q 52.484375 12.3125 53.625 17.109375 
Q 54.78125 21.921875 54.78125 29.390625 
Q 54.78125 34.90625 54.484375 38.546875 
Q 54.203125 42.1875 52.90625 46.53125 
Q 51.609375 50.875 49.265625 53.4375 
Q 46.921875 56 42.5 57.75 
Q 38.09375 59.515625 31.78125 59.515625 
Q 24.46875 59.515625 24.515625 54.5 
z
M 17.484375 64.5 
Q 21 64.5 26.53125 64.640625 
Q 32.078125 64.796875 35.59375 64.796875 
Q 50.296875 64.796875 60.59375 55.484375 
Q 70.90625 46.1875 70.90625 31.78125 
Q 70.90625 24.703125 68.75 19.03125 
Q 66.609375 13.375 63.203125 9.875 
Q 59.8125 6.390625 55.25 4.046875 
Q 50.6875 1.703125 46.28125 0.75 
Q 41.890625 -0.203125 37.390625 -0.203125 
Q 32.90625 -0.203125 27.09375 -0.09375 
Q 21.296875 0 17.484375 0 
L 8.984375 -0.296875 
L 8.890625 0 
Q 10.109375 8.109375 10.109375 20.015625 
L 10.109375 44.484375 
Q 10.109375 56 8.890625 64.5 
L 9.078125 64.796875 
Q 14.0625 64.5 17.484375 64.5 
z
" id="LinBiolinumB-68"/>
     <path id="LinBiolinumB-32"/>
     <path d="M 36.421875 17.875 
Q 51.703125 53.21875 54.78125 64.796875 
Q 56 64.5 60.59375 64.5 
Q 64.203125 64.5 65.375 64.796875 
Q 43.453125 17 35.890625 -0.6875 
L 29 -0.6875 
Q 25.78125 7.03125 19.375 22.65625 
Q 12.984375 38.28125 8.390625 49.28125 
Q 3.8125 60.296875 1.609375 64.796875 
Q 3.328125 64.5 11.71875 64.5 
Q 17.625 64.5 19.28125 64.796875 
Q 25.046875 44.78125 36.421875 17.875 
z
" id="LinBiolinumB-86"/>
     <path d="M 12.59375 53.8125 
Q 8.5 57.8125 8.5 60.71875 
Q 8.5 63.625 10.546875 65.59375 
Q 12.59375 67.578125 15.59375 67.578125 
Q 18.609375 67.578125 20.65625 65.59375 
Q 22.703125 63.625 22.703125 60.71875 
Q 22.703125 57.8125 20.65625 55.8125 
Q 18.609375 53.8125 15.59375 53.8125 
Q 12.59375 53.8125 8.5 57.8125 
z
M 8.984375 23.484375 
Q 8.984375 37.40625 8.015625 42.828125 
L 8.296875 43.21875 
Q 12.40625 42.921875 15.375 42.921875 
Q 18.890625 42.921875 22.3125 43.40625 
Q 23.1875 43.40625 23.1875 42.390625 
Q 22.21875 32.859375 22.21875 24.609375 
L 22.21875 18.015625 
Q 22.21875 7.125 23.1875 0 
L 23 -0.296875 
Q 20.21875 0 15.578125 0 
Q 10.890625 0 8.203125 -0.296875 
L 8.015625 0 
Q 8.984375 6.78125 8.984375 18.015625 
z
" id="LinBiolinumB-105"/>
     <path d="M 5.421875 11.28125 
L 8.40625 11.375 
Q 12.5 3.375 19.09375 3.421875 
Q 21.390625 3.421875 22.625 3.609375 
Q 23.875 3.8125 24.921875 4.953125 
Q 25.984375 6.109375 25.984375 8.296875 
Q 25.984375 11.1875 24.09375 13.078125 
Q 22.21875 14.984375 16.5 18.109375 
Q 11.421875 20.90625 8.65625 23.953125 
Q 5.90625 27 5.90625 31.78125 
Q 5.90625 37.40625 10.8125 40.640625 
Q 15.71875 43.890625 22.796875 43.890625 
Q 31.390625 43.890625 36.078125 41.3125 
L 36.28125 41.015625 
L 34.421875 31.984375 
L 31.6875 31.890625 
Q 28.171875 39.40625 22.609375 39.40625 
Q 17.71875 39.40625 17.671875 34.515625 
Q 17.671875 32.328125 19.1875 30.859375 
Q 20.703125 29.390625 23.6875 27.78125 
Q 24.078125 27.59375 26.296875 26.4375 
Q 28.515625 25.296875 29 25 
Q 29.5 24.703125 31.25 23.609375 
Q 33.015625 22.515625 33.546875 21.90625 
Q 34.078125 21.296875 35.21875 20.09375 
Q 36.375 18.890625 36.734375 17.84375 
Q 37.109375 16.796875 37.5 15.359375 
Q 37.890625 13.921875 37.890625 12.203125 
Q 37.890625 6.59375 33.25 2.796875 
Q 28.609375 -0.984375 19.390625 -0.984375 
Q 11.078125 -0.984375 3.8125 1.703125 
z
" id="LinBiolinumB-115"/>
     <path d="M 37.203125 6.390625 
Q 30.328125 -1.03125 20.40625 -0.984375 
Q 13.53125 -0.984375 10.25 2.890625 
Q 6.984375 6.78125 7.078125 12.59375 
L 7.328125 24.90625 
Q 7.421875 33.890625 6.5 42.921875 
L 6.6875 43.21875 
Q 10.296875 42.921875 13.71875 42.921875 
L 21.1875 43.21875 
L 21.296875 42.921875 
Q 20.796875 37.59375 20.515625 24.90625 
L 20.3125 15.921875 
Q 20.21875 10.296875 21.703125 8.484375 
Q 23.1875 6.6875 25.984375 6.6875 
Q 29.6875 6.6875 33.4375 9.734375 
Q 37.203125 12.796875 37.203125 16.890625 
L 37.203125 24.90625 
Q 37.203125 37.3125 36.53125 42.921875 
L 36.71875 43.21875 
Q 40.140625 42.921875 43.5 42.921875 
L 51.21875 43.21875 
L 51.3125 42.921875 
Q 50.4375 37.59375 50.390625 24.90625 
L 50.390625 19.1875 
Q 50.390625 9.078125 52.09375 0 
L 51.90625 -0.296875 
Q 49.90625 0 44.53125 0 
Q 41.0625 0 38.8125 -0.296875 
Q 37.9375 -0.296875 37.890625 0 
L 37.40625 6.390625 
z
" id="LinBiolinumB-117"/>
     <path d="M 31.109375 22.21875 
L 23.09375 20.125 
Q 16.796875 18.40625 16.796875 10.6875 
Q 16.796875 8.59375 18.3125 6.78125 
Q 19.828125 4.984375 22.015625 4.984375 
Q 26.03125 4.984375 29.390625 8.40625 
Q 29.890625 8.890625 30.390625 10.40625 
Q 30.90625 11.921875 30.90625 12.890625 
z
M 43.703125 8.015625 
Q 43.703125 5.71875 45.046875 5.046875 
Q 46.390625 4.390625 49.8125 4.390625 
Q 50.59375 3.71875 50.78125 2.296875 
Q 46.484375 -1.03125 38.921875 -0.984375 
Q 35.6875 -0.984375 33.875 0.359375 
Q 32.078125 1.703125 31 4.78125 
L 30.8125 4.78125 
Q 25 -1.03125 17.09375 -0.984375 
Q 11.46875 -0.984375 7.4375 1.953125 
Q 3.421875 4.890625 3.421875 9.8125 
Q 3.421875 14.890625 7.46875 18.59375 
Q 11.53125 22.3125 18.796875 24.03125 
L 30.515625 27.09375 
Q 31.109375 27.296875 31.109375 28.328125 
Q 31.109375 33.9375 29.390625 36.203125 
Q 27.6875 38.484375 24.21875 38.484375 
Q 17.328125 38.484375 11.921875 30.609375 
L 8.59375 30.71875 
L 6.59375 38.1875 
L 6.890625 38.625 
Q 8.890625 40.328125 14.9375 42.109375 
Q 21 43.890625 26.125 43.890625 
Q 30.125 43.890625 34 42.890625 
Q 37.890625 41.890625 40.09375 39.890625 
Q 44.09375 36.28125 44.09375 27.6875 
Q 44.09375 27.390625 43.890625 18.546875 
Q 43.703125 9.71875 43.703125 8.015625 
z
" id="LinBiolinumB-97"/>
     <path d="M 8.59375 20.015625 
L 8.59375 47.40625 
Q 8.59375 59.515625 7.421875 66.21875 
L 7.625 66.5 
Q 10.40625 66.703125 15.109375 67.84375 
Q 19.828125 69 21.921875 69.828125 
Q 23.046875 69.828125 23 68.796875 
Q 21.78125 59.1875 21.78125 50 
L 21.78125 20.015625 
Q 21.78125 8.015625 23 0 
L 22.796875 -0.296875 
Q 18.609375 0 15.1875 0 
L 7.515625 -0.296875 
L 7.421875 0 
Q 8.59375 7.625 8.59375 20.015625 
z
" id="LinBiolinumB-108"/>
     <path d="M 8.984375 42.921875 
Q 8.984375 49.8125 9.421875 52.984375 
L 9.625 53.328125 
Q 11.421875 53.71875 13.625 54.5625 
Q 15.828125 55.421875 18.5 56.5625 
Q 21.1875 57.71875 21.484375 57.8125 
Q 22.359375 57.8125 22.40625 56.78125 
Q 21.921875 50.875 21.921875 42.921875 
L 26.609375 42.921875 
Q 30.125 42.921875 33.59375 43.21875 
L 34.078125 42.390625 
Q 33.109375 39.984375 32.90625 37.703125 
Q 30.90625 37.890625 25.6875 37.890625 
L 21.921875 37.890625 
L 21.6875 27.203125 
Q 21.578125 21.734375 21.578125 13.09375 
Q 21.578125 9.671875 22.484375 7.390625 
Q 23.390625 5.125 25.296875 5.125 
Q 28.71875 5.125 31.109375 6.296875 
Q 32.8125 5.21875 32.8125 2.484375 
Q 27 -1.03125 18.109375 -0.984375 
Q 13.625 -0.984375 11.015625 1.96875 
Q 8.40625 4.9375 8.40625 8.796875 
Q 8.40625 14.109375 8.6875 26.125 
L 8.984375 37.890625 
Q 4.296875 37.890625 1.90625 37.703125 
L 1.421875 38.375 
Q 2.734375 40.375 3.609375 43.21875 
Q 5.765625 42.921875 8.984375 42.921875 
z
" id="LinBiolinumB-116"/>
     <path d="M 4.109375 20.515625 
Q 4.109375 31.78125 10.75 37.828125 
Q 17.390625 43.890625 28.515625 43.890625 
Q 40.625 43.890625 46.546875 37.6875 
Q 52.484375 31.5 52.484375 21.390625 
Q 52.484375 10.984375 46.09375 5 
Q 39.703125 -0.984375 28.328125 -0.984375 
Q 17.140625 -0.984375 10.625 4.75 
Q 4.109375 10.5 4.109375 20.515625 
z
M 27.78125 38.921875 
Q 23.6875 38.921875 21.484375 36.5 
Q 19.28125 34.078125 18.796875 30.96875 
Q 18.3125 27.875 18.3125 22.796875 
Q 18.3125 4 29.6875 4 
Q 38.28125 4 38.28125 18.703125 
Q 38.28125 29.59375 36.078125 34.25 
Q 33.890625 38.921875 27.78125 38.921875 
z
" id="LinBiolinumB-111"/>
     <path d="M 51.21875 18.015625 
Q 51.21875 7.03125 52.296875 0 
L 52.09375 -0.296875 
Q 47.703125 0 44.28125 0 
Q 44.28125 0 37.59375 -0.296875 
L 37.40625 0 
Q 37.984375 5.328125 37.984375 18.015625 
L 37.984375 26.90625 
Q 37.984375 36.1875 32.8125 36.1875 
Q 27.296875 36.1875 21.1875 28.21875 
L 21.1875 18.015625 
Q 21.1875 6.84375 21.78125 0 
L 21.484375 -0.296875 
Q 18.703125 0 15.28125 0 
Q 15.28125 0 7.078125 -0.296875 
L 6.890625 0 
Q 8.015625 6.890625 8.015625 18.015625 
L 8.015625 23.484375 
Q 8.015625 36.765625 6.890625 42.921875 
L 7.078125 43.21875 
Q 15.578125 42.828125 20.015625 43.5 
Q 20.703125 43.5 20.90625 42.484375 
Q 21.1875 40.921875 21.1875 35.203125 
L 21.578125 34.90625 
Q 25 39.203125 29.203125 41.546875 
Q 33.40625 43.890625 37.3125 43.890625 
Q 44.1875 43.890625 47.703125 40.34375 
Q 51.21875 36.8125 51.21875 29.109375 
z
" id="LinBiolinumB-110"/>
     <path d="M 22.21875 37.890625 
L 22.515625 20.015625 
Q 22.796875 4.4375 23.296875 0 
L 23.09375 -0.296875 
Q 19.578125 0 16.21875 0 
Q 16.21875 0 8.6875 -0.296875 
L 8.59375 0 
Q 9.28125 5.078125 9.28125 20.015625 
L 9.28125 37.890625 
Q 4.59375 37.890625 2.203125 37.703125 
L 1.703125 38.375 
Q 3.03125 40.375 3.90625 43.21875 
Q 6.109375 42.921875 9.28125 42.921875 
L 9.28125 45.90625 
Q 9.28125 55.71875 16.21875 62.890625 
Q 22.796875 69.78125 33.984375 69.828125 
Q 39.3125 69.828125 41.5 68.40625 
L 41.609375 68.109375 
Q 39.984375 64.40625 39.3125 58.015625 
L 36.28125 57.90625 
Q 35.6875 60.109375 33.875 61.5 
Q 32.078125 62.890625 29.890625 62.890625 
Q 25.875 62.890625 23.671875 60.296875 
Q 21.484375 57.71875 21.484375 53.515625 
Q 21.484375 52.390625 21.84375 48.796875 
Q 22.21875 45.21875 22.21875 43.890625 
L 22.21875 42.921875 
L 26.90625 42.921875 
Q 30.421875 42.921875 33.890625 43.21875 
L 34.421875 42.390625 
Q 33.453125 39.984375 33.203125 37.703125 
Q 31.203125 37.890625 25.984375 37.890625 
z
" id="LinBiolinumB-102"/>
     <path d="M 9.28125 44.484375 
Q 9.28125 56 8.109375 64.5 
L 8.296875 64.796875 
Q 13.09375 64.5 16.5 64.5 
Q 16.5 64.5 24.8125 64.796875 
L 24.90625 64.5 
Q 23.6875 56.59375 23.6875 44.484375 
L 23.6875 20.015625 
Q 23.6875 8.640625 24.90625 0 
L 24.703125 -0.296875 
Q 19.921875 0 16.5 0 
Q 16.5 0 8.203125 -0.296875 
L 8.109375 0 
Q 9.328125 8.109375 9.28125 20.015625 
z
" id="LinBiolinumB-73"/>
     <path d="M 21.1875 28.21875 
L 21.1875 7.625 
Q 25.484375 4 30.078125 4 
Q 34.375 4 37.234375 8.484375 
Q 40.09375 12.984375 40.09375 20.796875 
Q 40.09375 28.71875 38.40625 32.8125 
Q 36.71875 36.921875 32.421875 36.921875 
Q 29.640625 36.921875 26.21875 34.421875 
Q 22.796875 31.9375 21.1875 28.21875 
z
M 21.578125 35.796875 
Q 27.484375 43.890625 37.109375 43.890625 
Q 43.5 43.890625 47.265625 40.671875 
Q 54.296875 34.578125 54.296875 23.484375 
Q 54.296875 12.984375 47.84375 6 
Q 41.40625 -0.984375 31.890625 -0.984375 
Q 25.59375 -0.984375 21.1875 1.8125 
L 21.1875 -3.21875 
Q 21.1875 -16.5 22.21875 -23.1875 
L 22.015625 -23.484375 
Q 17.921875 -23.1875 14.5 -23.1875 
L 7.078125 -23.484375 
L 6.984375 -23.1875 
Q 7.953125 -16.890625 8.015625 -3.21875 
L 8.015625 23.484375 
Q 8.015625 36.765625 6.890625 42.921875 
L 7.078125 43.21875 
Q 15.578125 42.828125 20.015625 43.5 
Q 20.703125 43.5 20.90625 42.484375 
Q 21.1875 40.921875 21.1875 36.078125 
z
" id="LinBiolinumB-112"/>
     <path d="M 21.390625 -0.296875 
Q 15.1875 15.921875 2 43.21875 
Q 3.609375 42.921875 10.6875 42.921875 
Q 16.796875 42.921875 18.109375 43.21875 
Q 23.1875 27.09375 29.390625 12.3125 
L 30.03125 12.25 
Q 36.03125 23 43.015625 43.21875 
Q 43.890625 42.921875 47.3125 42.921875 
Q 52.09375 42.921875 52.984375 43.21875 
Q 38.09375 14.890625 31.109375 -0.296875 
Q 29.78125 0 26.90625 0 
Q 23 0 21.390625 -0.296875 
z
" id="LinBiolinumB-118"/>
     <path d="M 37.3125 13.28125 
L 37.3125 30.328125 
Q 36.53125 34.234375 33.90625 36.578125 
Q 31.296875 38.921875 27.78125 38.921875 
Q 18.609375 38.921875 18.609375 22.125 
Q 18.609375 4.828125 27.59375 4.78125 
Q 33.984375 4.78125 37.3125 13.28125 
z
M 37.3125 5.421875 
Q 33.59375 -0.984375 23 -0.984375 
Q 14.703125 -0.984375 9.546875 5 
Q 4.390625 10.984375 4.390625 20.3125 
Q 4.390625 33.015625 12.984375 39.265625 
Q 16.5 41.84375 19.75 42.859375 
Q 23 43.890625 27.875 43.890625 
Q 30.171875 43.890625 33.03125 42.59375 
Q 35.890625 41.3125 37.3125 39.40625 
L 37.3125 47.40625 
Q 37.3125 59.515625 36.078125 66.21875 
L 36.28125 66.5 
Q 39.0625 66.703125 43.765625 67.84375 
Q 48.484375 69 50.59375 69.828125 
Q 51.703125 69.828125 51.703125 68.796875 
Q 50.484375 59.1875 50.484375 50 
L 50.484375 19.1875 
Q 50.484375 10.203125 52.390625 0 
L 52.203125 -0.296875 
Q 50.203125 0 45.265625 0 
Q 41.21875 0 38.921875 -0.296875 
Q 38.03125 -0.296875 37.984375 0 
L 37.5 5.421875 
z
" id="LinBiolinumB-100"/>
     <path d="M 17.28125 25.484375 
L 32.90625 25.484375 
Q 32.90625 38.875 26.421875 38.921875 
Q 22.5625 38.921875 20.359375 35.890625 
Q 17.78125 32.421875 17.28125 25.484375 
z
M 44.828125 10.6875 
Q 45.515625 10.6875 45.953125 9.6875 
Q 46.390625 8.6875 46.390625 7.625 
Q 38.96875 -0.984375 26.609375 -0.984375 
Q 14.796875 -0.984375 9.8125 4.203125 
Q 3.515625 10.6875 3.515625 20.609375 
Q 3.515625 32.171875 11.671875 38.921875 
Q 14.546875 41.3125 18.703125 42.59375 
Q 22.859375 43.890625 27.09375 43.890625 
Q 37.796875 43.890625 41.890625 37.9375 
Q 46 31.984375 46 21.390625 
L 45.40625 20.796875 
Q 36.8125 21 26.859375 21 
L 16.890625 21 
Q 16.890625 14.109375 20.21875 10.5 
Q 23.78125 6.59375 31.109375 6.59375 
Q 39.75 6.59375 44.828125 10.6875 
z
" id="LinBiolinumB-101"/>
     <path d="M 26.125 56.984375 
Q 22.40625 56.984375 20.453125 54.6875 
Q 18.5 52.390625 18.5 48.6875 
Q 18.5 46.1875 20.203125 43.5 
Q 21.921875 40.828125 24.90625 39.109375 
L 27.78125 37.40625 
Q 29.59375 38.8125 30.59375 39.8125 
Q 31.59375 40.828125 32.6875 42.96875 
Q 33.796875 45.125 33.796875 47.609375 
Q 33.796875 51.515625 31.90625 54.25 
Q 30.03125 56.984375 26.125 56.984375 
z
M 44.921875 48.390625 
Q 44.921875 43.796875 42.015625 40.640625 
Q 39.109375 37.5 33.109375 35.015625 
L 39.015625 31.5 
Q 42.828125 28.90625 45.3125 24.609375 
Q 47.796875 20.3125 47.796875 16.109375 
Q 47.796875 7.234375 40.28125 2.203125 
Q 35.40625 -1.03125 25.203125 -0.984375 
Q 16.796875 -0.984375 10.453125 3.21875 
Q 4.109375 7.421875 4.109375 14.59375 
Q 4.109375 20.015625 7.546875 24 
Q 10.984375 27.984375 17.921875 31.59375 
L 16.109375 32.625 
Q 7.234375 37.59375 7.171875 46.296875 
Q 7.171875 52.6875 12.546875 56.828125 
Q 17.921875 60.984375 26.703125 60.984375 
Q 34.71875 60.984375 39.8125 57.546875 
Q 44.921875 54.109375 44.921875 48.390625 
z
M 25.390625 2.984375 
Q 29.890625 2.984375 32.5 5.296875 
Q 35.109375 7.625 35.109375 14.109375 
Q 35.109375 18.40625 33.4375 21.265625 
Q 31.78125 24.125 27.484375 26.90625 
L 23.1875 29.203125 
Q 19.1875 26.21875 17.890625 22.65625 
Q 16.609375 19.09375 16.609375 14.59375 
Q 16.609375 9.421875 19.28125 6.203125 
Q 21.96875 2.984375 25.390625 2.984375 
z
" id="LinBiolinumB-56"/>
     <path d="M 25.984375 56.5 
Q 24.265625 56.5 22.921875 55.5 
Q 21.578125 54.5 20.1875 51.8125 
Q 18.796875 49.125 18.03125 43.265625 
Q 17.28125 37.40625 17.28125 28.71875 
Q 17.28125 25.484375 17.328125 23.75 
Q 17.390625 22.015625 17.609375 18.453125 
Q 17.828125 14.890625 18.3125 12.6875 
Q 18.796875 10.5 19.703125 8.109375 
Q 20.609375 5.71875 22.09375 4.515625 
Q 23.578125 3.328125 25.59375 3.328125 
Q 34.1875 3.328125 34.1875 32.71875 
Q 34.1875 41.015625 32.890625 46.609375 
Q 31.59375 52.203125 29.828125 54.34375 
Q 28.078125 56.5 25.984375 56.5 
z
M 25.484375 -0.984375 
Q 14.984375 -0.984375 8.984375 7.90625 
Q 2.984375 16.796875 2.984375 29.78125 
Q 2.984375 44.390625 9.5 52.6875 
Q 16.015625 60.984375 25.984375 60.984375 
Q 30.078125 60.984375 33.78125 59.5 
Q 37.5 58.015625 40.890625 54.765625 
Q 44.28125 51.515625 46.328125 45.3125 
Q 48.390625 39.109375 48.390625 30.71875 
Q 48.390625 22.21875 46.234375 15.75 
Q 44.09375 9.28125 40.59375 5.828125 
Q 37.109375 2.390625 33.296875 0.703125 
Q 29.5 -0.984375 25.484375 -0.984375 
z
" id="LinBiolinumB-48"/>
     <path d="M 5.421875 4.78125 
L 5.421875 5.328125 
Q 7.328125 10.109375 12.3125 12.109375 
L 12.703125 12.109375 
Q 17.78125 10.296875 19.578125 5.328125 
L 19.578125 4.78125 
Q 18.609375 1.703125 16.984375 0.1875 
Q 15.375 -1.3125 12.703125 -2 
L 12.3125 -2 
Q 9.234375 -1.3125 7.71875 0.125 
Q 6.203125 1.5625 5.421875 4.78125 
z
" id="LinBiolinumB-46"/>
     <path d="M 46.296875 5.328125 
Q 46.296875 2 48.296875 2 
Q 51.375 2 53.71875 6 
Q 56.203125 10.296875 56.203125 15.71875 
Q 56.203125 21.4375 52.296875 21.390625 
Q 50.78125 21.390625 49.484375 19.9375 
Q 48.1875 18.5 47.515625 16.21875 
Q 46.296875 12.5 46.296875 5.328125 
z
M 37.015625 9.078125 
Q 37.015625 15.484375 40.921875 20.234375 
Q 44.828125 25 51.21875 25 
Q 60.40625 25 60.40625 15.921875 
Q 60.40625 8.40625 56.640625 3.25 
Q 52.875 -1.90625 47.125 -1.90625 
Q 41.609375 -1.90625 39.3125 1.09375 
Q 37.015625 4.109375 37.015625 9.078125 
z
M 14.40625 36.921875 
Q 14.40625 33.59375 16.40625 33.59375 
Q 19.484375 33.59375 21.78125 37.59375 
Q 24.265625 41.890625 24.3125 47.3125 
Q 24.3125 53.03125 20.40625 52.984375 
Q 18.890625 52.984375 17.59375 51.53125 
Q 16.3125 50.09375 15.578125 47.796875 
Q 14.40625 44.09375 14.40625 36.921875 
z
M 5.078125 40.71875 
Q 5.078125 47.125 8.984375 51.859375 
Q 12.890625 56.59375 19.28125 56.59375 
Q 23.78125 56.59375 26.125 54.390625 
Q 28.515625 54.296875 32.15625 53.09375 
Q 35.796875 51.90625 36.375 51.90625 
Q 46.6875 51.90625 51.421875 56.890625 
L 56.109375 54.78125 
L 14.984375 -1.609375 
L 9.625 -0.390625 
L 46.1875 49.703125 
Q 40.578125 47.40625 35.40625 47.40625 
Q 31.984375 47.40625 28.421875 49.265625 
Q 28.515625 48.484375 28.515625 47.515625 
Q 28.515625 39.984375 24.75 34.828125 
Q 21 29.6875 15.1875 29.6875 
Q 9.671875 29.6875 7.375 32.71875 
Q 5.078125 35.75 5.078125 40.71875 
z
" id="LinBiolinumB-37"/>
     <path d="M 22.90625 43.609375 
Q 22.90625 54 22.125 56.6875 
Q 16.109375 56.6875 11 56.140625 
Q 5.90625 55.609375 3.8125 55.03125 
L 1.703125 54.5 
L 1.515625 54.890625 
Q 1.90625 58.203125 1.515625 64.5 
L 1.703125 64.796875 
Q 4.109375 64.5 7.71875 64.5 
L 52.484375 64.5 
Q 56.109375 64.5 58.5 64.796875 
L 58.6875 64.5 
Q 58.296875 58.203125 58.6875 54.890625 
L 58.5 54.5 
Q 51.515625 56.6875 38.09375 56.6875 
Q 37.3125 54 37.3125 43.609375 
L 37.3125 20.015625 
Q 37.3125 7.125 38.28125 0 
L 38.09375 -0.296875 
Q 33.5 0 30.078125 0 
L 22.015625 -0.296875 
L 21.921875 0 
Q 22.90625 6.78125 22.90625 20.015625 
z
" id="LinBiolinumB-84"/>
     <path d="M 22.515625 34.90625 
Q 24.90625 38.421875 28.140625 41.15625 
Q 31.390625 43.890625 34.625 43.890625 
Q 37.3125 43.890625 39.703125 43.21875 
L 40.09375 42.828125 
L 38.09375 32.515625 
L 36.28125 32.328125 
Q 33.890625 34.234375 30.515625 34.1875 
Q 29.203125 34.1875 27.53125 33.6875 
Q 25.875 33.203125 24 31 
Q 22.125 28.8125 22.125 25.296875 
L 22.125 18.015625 
Q 22.125 7.125 23.09375 0 
L 22.90625 -0.296875 
Q 18.109375 0 14.703125 0 
L 8.015625 -0.296875 
L 7.90625 0 
Q 8.890625 6.78125 8.890625 18.015625 
L 8.890625 23.484375 
Q 8.890625 36.765625 7.8125 42.921875 
L 8.015625 43.21875 
Q 16.5 42.828125 20.90625 43.5 
Q 21.578125 43.5 21.78125 42.484375 
Q 22.078125 40.921875 22.078125 35.203125 
z
" id="LinBiolinumB-114"/>
     <path d="M 45.90625 28.90625 
Q 45.90625 22.125 40.3125 18.109375 
Q 34.71875 14.109375 25.78125 14.109375 
Q 20.84375 14.109375 18.265625 15.1875 
Q 17.09375 13.421875 17.09375 10.6875 
Q 17.09375 5.90625 22.90625 5.90625 
Q 23.09375 5.90625 23.5625 5.953125 
Q 24.03125 6 24.8125 6.109375 
Q 28.609375 6.59375 31.109375 6.59375 
Q 35.109375 6.59375 38.5 6.046875 
Q 41.890625 5.515625 45.375 4.1875 
Q 48.875 2.875 50.921875 0.046875 
Q 52.984375 -2.78125 52.984375 -6.78125 
Q 52.984375 -10.6875 50.09375 -14.234375 
Q 47.21875 -17.78125 42.625 -20.0625 
Q 35.015625 -23.828125 22.515625 -23.78125 
Q 17.625 -23.78125 13.515625 -22.84375 
Q 9.421875 -21.921875 6.3125 -19.203125 
Q 3.21875 -16.5 3.21875 -12.40625 
Q 3.21875 -7.421875 5.421875 -4.59375 
Q 6.546875 -3.90625 9.625 -2.515625 
Q 12.703125 -1.125 13.8125 -0.390625 
Q 5.90625 0.828125 5.90625 7.421875 
Q 5.90625 9.8125 8.546875 12.296875 
Q 11.1875 14.796875 14.59375 16.015625 
L 14.796875 16.5 
Q 12.3125 17.28125 10.84375 18.3125 
Q 5.375 22.125 5.421875 28.515625 
Q 5.421875 35.5 11.0625 39.6875 
Q 16.703125 43.890625 25.09375 43.890625 
Q 29.59375 43.890625 32.328125 43.015625 
Q 35.109375 43.171875 41.640625 43.40625 
Q 48.1875 43.65625 50.875 43.890625 
L 51.21875 43.609375 
Q 50.921875 42.1875 50.875 40.71875 
Q 50.875 39.359375 51.21875 37.984375 
L 50.875 37.703125 
Q 49.609375 37.796875 46.046875 38.15625 
Q 42.484375 38.53125 40.765625 38.578125 
Q 43.0625 37.015625 44.484375 34.28125 
Q 45.90625 31.546875 45.90625 28.90625 
z
M 32.625 28.8125 
Q 32.625 34.8125 31.203125 37.34375 
Q 29.78125 39.890625 25.484375 39.890625 
Q 18.703125 39.890625 18.703125 29 
Q 18.703125 23.09375 20.09375 20.59375 
Q 21.484375 18.109375 25.78125 18.109375 
Q 32.625 18.109375 32.625 28.8125 
z
M 18.3125 -1.609375 
Q 15.09375 -4.9375 15.09375 -10.40625 
Q 15.09375 -14.890625 18.5 -17.078125 
Q 21.921875 -19.28125 25.296875 -19.28125 
Q 31.78125 -19.28125 35.875 -16.5 
Q 39.984375 -13.71875 39.984375 -9.078125 
Q 39.984375 -6.59375 38.9375 -5.046875 
Q 37.890625 -3.515625 35.84375 -2.796875 
Q 33.796875 -2.09375 31.984375 -1.890625 
Q 30.171875 -1.703125 27.59375 -1.703125 
Q 27.09375 -1.703125 24.703125 -1.75 
Q 22.3125 -1.8125 20.609375 -1.8125 
Q 19.921875 -1.8125 18.3125 -1.609375 
z
" id="LinBiolinumB-103"/>
     <path d="M 22.609375 55.609375 
Q 19 55.609375 16.234375 53.609375 
Q 13.484375 51.609375 10.984375 47.125 
L 6.59375 47.21875 
L 4.5 55.078125 
L 4.78125 55.515625 
Q 6.890625 57.328125 12.640625 59.15625 
Q 18.40625 60.984375 23.390625 60.984375 
Q 33.015625 60.984375 39.359375 56.984375 
Q 45.703125 52.984375 45.703125 45.3125 
Q 45.703125 43.890625 45.40625 42.546875 
Q 45.125 41.21875 44.890625 40.265625 
Q 44.671875 39.3125 43.796875 38.015625 
Q 42.921875 36.71875 42.59375 36.109375 
Q 42.28125 35.5 40.890625 34.0625 
Q 39.5 32.625 39.203125 32.25 
Q 38.921875 31.890625 37.15625 30.25 
Q 35.40625 28.609375 35.109375 28.328125 
L 25.09375 18.609375 
Q 23.390625 17 21.390625 14.03125 
Q 19.390625 11.078125 19.390625 10.015625 
L 27.59375 10.015625 
Q 33.203125 10.015625 46.1875 10.890625 
Q 45.609375 8.296875 45.609375 4.296875 
Q 45.609375 2.203125 46.1875 -0.390625 
Q 36.1875 0 28.8125 0 
Q 28.21875 0 3.90625 -0.390625 
L 3.8125 0 
Q 3.8125 4.390625 6.5 8.640625 
Q 9.1875 12.890625 16.609375 20.515625 
L 24.03125 27.78125 
Q 28.03125 31.890625 29.09375 35.734375 
Q 30.171875 39.59375 30.171875 45.40625 
Q 30.171875 49.8125 27.828125 52.703125 
Q 25.484375 55.609375 22.609375 55.609375 
z
" id="LinBiolinumB-50"/>
     <path d="M 25.296875 4.203125 
Q 34.578125 4.203125 34.625 14.5 
Q 34.625 17.390625 32.109375 20.234375 
Q 29.59375 23.09375 25.875 25 
Q 15.484375 30.328125 11.375 33.9375 
Q 9.328125 35.75 7.8125 37.703125 
Q 4.734375 41.703125 4.6875 48.484375 
Q 4.6875 56.203125 11.078125 61.015625 
Q 17.484375 65.828125 26.3125 65.828125 
Q 31.734375 65.828125 36.8125 64.71875 
Q 41.890625 63.625 44.28125 62.453125 
L 46.6875 61.28125 
L 46.921875 60.984375 
Q 45.796875 57.46875 44.921875 49.03125 
L 41.890625 48.875 
Q 39.5 53.375 35.5 57.125 
Q 31.5 60.890625 27.390625 60.890625 
Q 23.390625 60.890625 20.84375 57.984375 
Q 18.3125 55.078125 18.3125 51.21875 
Q 18.3125 48.640625 19.0625 46.609375 
Q 19.828125 44.578125 21.453125 43.140625 
Q 23.09375 41.703125 24.53125 40.890625 
Q 25.984375 40.09375 28.515625 38.921875 
Q 32.625 37.015625 35.203125 35.546875 
Q 37.796875 34.078125 41.234375 31.53125 
Q 44.671875 29 46.484375 25.75 
Q 48.296875 22.515625 48.296875 18.609375 
Q 48.296875 10.59375 41.65625 4.796875 
Q 35.015625 -0.984375 24.421875 -0.984375 
Q 19 -0.984375 13.59375 0.109375 
Q 8.203125 1.21875 5.5625 2.34375 
L 2.875 3.515625 
L 2.6875 3.8125 
Q 3.8125 7.90625 4.6875 16.015625 
L 7.328125 16.109375 
Q 10.109375 11.8125 15.546875 8 
Q 21 4.203125 25.296875 4.203125 
z
" id="LinBiolinumB-83"/>
    </defs>
    <use xlink:href="#LinBiolinumB-51"/>
    <use x="51.367188" xlink:href="#LinBiolinumB-68"/>
    <use x="127.441406" xlink:href="#LinBiolinumB-32"/>
    <use x="152.441406" xlink:href="#LinBiolinumB-86"/>
    <use x="219.628906" xlink:href="#LinBiolinumB-105"/>
    <use x="250.78125" xlink:href="#LinBiolinumB-115"/>
    <use x="292.675781" xlink:href="#LinBiolinumB-117"/>
    <use x="351.757812" xlink:href="#LinBiolinumB-97"/>
    <use x="403.320312" xlink:href="#LinBiolinumB-108"/>
    <use x="433.691406" xlink:href="#LinBiolinumB-105"/>
    <use x="464.84375" xlink:href="#LinBiolinumB-115"/>
    <use x="506.738281" xlink:href="#LinBiolinumB-97"/>
    <use x="558.300781" xlink:href="#LinBiolinumB-116"/>
    <use x="593.652344" xlink:href="#LinBiolinumB-105"/>
    <use x="624.804688" xlink:href="#LinBiolinumB-111"/>
    <use x="681.396484" xlink:href="#LinBiolinumB-110"/>
    <use x="741.357422" xlink:href="#LinBiolinumB-32"/>
    <use x="766.357422" xlink:href="#LinBiolinumB-111"/>
    <use x="822.949219" xlink:href="#LinBiolinumB-102"/>
    <use x="859.521484" xlink:href="#LinBiolinumB-32"/>
    <use x="884.521484" xlink:href="#LinBiolinumB-73"/>
    <use x="917.480469" xlink:href="#LinBiolinumB-110"/>
    <use x="977.441406" xlink:href="#LinBiolinumB-112"/>
    <use x="1035.9375" xlink:href="#LinBiolinumB-117"/>
    <use x="1095.019531" xlink:href="#LinBiolinumB-116"/>
    <use x="1130.371094" xlink:href="#LinBiolinumB-32"/>
    <use x="1155.371094" xlink:href="#LinBiolinumB-68"/>
    <use x="1231.445312" xlink:href="#LinBiolinumB-97"/>
    <use x="1283.007812" xlink:href="#LinBiolinumB-116"/>
    <use x="1318.359375" xlink:href="#LinBiolinumB-97"/>
    <use x="1369.921875" xlink:href="#LinBiolinumB-32"/>
    <use x="1394.921875" xlink:href="#LinBiolinumB-68"/>
    <use x="1470.996094" xlink:href="#LinBiolinumB-105"/>
    <use x="1502.148438" xlink:href="#LinBiolinumB-118"/>
    <use x="1557.128906" xlink:href="#LinBiolinumB-105"/>
    <use x="1588.28125" xlink:href="#LinBiolinumB-100"/>
    <use x="1647.363281" xlink:href="#LinBiolinumB-101"/>
    <use x="1698.144531" xlink:href="#LinBiolinumB-100"/>
    <use x="1757.226562" xlink:href="#LinBiolinumB-32"/>
    <use x="1782.226562" xlink:href="#LinBiolinumB-105"/>
    <use x="1813.378906" xlink:href="#LinBiolinumB-110"/>
    <use x="1873.339844" xlink:href="#LinBiolinumB-32"/>
    <use x="1898.339844" xlink:href="#LinBiolinumB-56"/>
    <use x="1949.707031" xlink:href="#LinBiolinumB-48"/>
    <use x="2001.074219" xlink:href="#LinBiolinumB-46"/>
    <use x="2025.634766" xlink:href="#LinBiolinumB-48"/>
    <use x="2077.001953" xlink:href="#LinBiolinumB-48"/>
    <use x="2128.369141" xlink:href="#LinBiolinumB-32"/>
    <use x="2153.369141" xlink:href="#LinBiolinumB-37"/>
    <use x="2217.041016" xlink:href="#LinBiolinumB-32"/>
    <use x="2242.041016" xlink:href="#LinBiolinumB-84"/>
    <use x="2302.197266" xlink:href="#LinBiolinumB-114"/>
    <use x="2344.287109" xlink:href="#LinBiolinumB-97"/>
    <use x="2395.849609" xlink:href="#LinBiolinumB-105"/>
    <use x="2427.001953" xlink:href="#LinBiolinumB-110"/>
    <use x="2486.962891" xlink:href="#LinBiolinumB-105"/>
    <use x="2518.115234" xlink:href="#LinBiolinumB-110"/>
    <use x="2578.076172" xlink:href="#LinBiolinumB-103"/>
    <use x="2634.130859" xlink:href="#LinBiolinumB-32"/>
    <use x="2659.130859" xlink:href="#LinBiolinumB-97"/>
    <use x="2710.693359" xlink:href="#LinBiolinumB-110"/>
    <use x="2770.654297" xlink:href="#LinBiolinumB-100"/>
    <use x="2829.736328" xlink:href="#LinBiolinumB-32"/>
    <use x="2854.736328" xlink:href="#LinBiolinumB-50"/>
    <use x="2906.103516" xlink:href="#LinBiolinumB-48"/>
    <use x="2957.470703" xlink:href="#LinBiolinumB-46"/>
    <use x="2982.03125" xlink:href="#LinBiolinumB-48"/>
    <use x="3033.398438" xlink:href="#LinBiolinumB-48"/>
    <use x="3084.765625" xlink:href="#LinBiolinumB-32"/>
    <use x="3109.765625" xlink:href="#LinBiolinumB-37"/>
    <use x="3173.4375" xlink:href="#LinBiolinumB-32"/>
    <use x="3198.4375" xlink:href="#LinBiolinumB-84"/>
    <use x="3258.59375" xlink:href="#LinBiolinumB-101"/>
    <use x="3309.375" xlink:href="#LinBiolinumB-115"/>
    <use x="3351.269531" xlink:href="#LinBiolinumB-116"/>
    <use x="3386.621094" xlink:href="#LinBiolinumB-32"/>
    <use x="3411.621094" xlink:href="#LinBiolinumB-68"/>
    <use x="3487.695312" xlink:href="#LinBiolinumB-97"/>
    <use x="3539.257812" xlink:href="#LinBiolinumB-116"/>
    <use x="3574.609375" xlink:href="#LinBiolinumB-97"/>
    <use x="3626.171875" xlink:href="#LinBiolinumB-32"/>
    <use x="3651.171875" xlink:href="#LinBiolinumB-83"/>
    <use x="3705.371094" xlink:href="#LinBiolinumB-101"/>
    <use x="3756.152344" xlink:href="#LinBiolinumB-116"/>
    <use x="3791.503906" xlink:href="#LinBiolinumB-32"/>
   </g>
  </g>
 </g>
 <defs>
  <clipPath id="p567895dd8b">
   <rect height="266.112" width="266.112" x="209.6685" y="41.76"/>
  </clipPath>
 </defs>
</svg>
