<?xml version="1.0" encoding="utf-8" standalone="no"?>
<!DOCTYPE svg PUBLIC "-//W3C//DTD SVG 1.1//EN"
  "http://www.w3.org/Graphics/SVG/1.1/DTD/svg11.dtd">
<!-- Created with matplotlib (https://matplotlib.org/) -->
<svg height="611.555pt" version="1.1" viewBox="0 0 1003.13875 611.555" width="1003.13875pt" xmlns="http://www.w3.org/2000/svg" xmlns:xlink="http://www.w3.org/1999/xlink">
 <metadata>
  <rdf:RDF xmlns:cc="http://creativecommons.org/ns#" xmlns:dc="http://purl.org/dc/elements/1.1/" xmlns:rdf="http://www.w3.org/1999/02/22-rdf-syntax-ns#">
   <cc:Work>
    <dc:type rdf:resource="http://purl.org/dc/dcmitype/StillImage"/>
    <dc:date>2022-10-16T09:56:08.391722</dc:date>
    <dc:format>image/svg+xml</dc:format>
    <dc:creator>
     <cc:Agent>
      <dc:title>Matplotlib v3.3.4, https://matplotlib.org/</dc:title>
     </cc:Agent>
    </dc:creator>
   </cc:Work>
  </rdf:RDF>
 </metadata>
 <defs>
  <style type="text/css">*{stroke-linecap:butt;stroke-linejoin:round;}</style>
 </defs>
 <g id="figure_1">
  <g id="patch_1">
   <path d="M 0 611.555 
L 1003.13875 611.555 
L 1003.13875 0 
L 0 0 
z
" style="fill:#ffffff;"/>
  </g>
  <g id="axes_1">
   <g id="patch_2">
    <path d="M 189.53875 570.96 
L 995.93875 570.96 
L 995.93875 72 
L 189.53875 72 
z
" style="fill:#ffffff;"/>
   </g>
   <g id="patch_3">
    <path clip-path="url(#p652aca5a79)" d="M 254.237052 94.68 
L 707.844812 94.68 
L 707.844812 170.28 
L 254.237052 170.28 
z
" style="fill:#228b22;"/>
   </g>
   <g id="patch_4">
    <path clip-path="url(#p652aca5a79)" d="M 254.237052 189.18 
L 531.759775 189.18 
L 531.759775 264.78 
L 254.237052 264.78 
z
" style="fill:#b22222;"/>
   </g>
   <g id="patch_5">
    <path clip-path="url(#p652aca5a79)" d="M 254.237052 283.68 
L 300.228478 283.68 
L 300.228478 359.28 
L 254.237052 359.28 
z
" style="fill:#b22222;"/>
   </g>
   <g id="patch_6">
    <path clip-path="url(#p652aca5a79)" d="M 254.237052 378.18 
L 299.053333 378.18 
L 299.053333 453.78 
L 254.237052 453.78 
z
" style="fill:#b22222;"/>
   </g>
   <g id="patch_7">
    <path clip-path="url(#p652aca5a79)" d="M 254.237052 472.68 
L 254.129028 472.68 
L 254.129028 548.28 
L 254.237052 548.28 
z
" style="fill:#b22222;"/>
   </g>
   <g id="matplotlib.axis_1">
    <g id="xtick_1">
     <g id="line2d_1">
      <path clip-path="url(#p652aca5a79)" d="M 254.237052 570.96 
L 254.237052 72 
" style="fill:none;stroke:#808080;stroke-dasharray:3.2,0.8,0.5,0.8;stroke-dashoffset:0;stroke-opacity:0.8;stroke-width:0.5;"/>
     </g>
     <g id="line2d_2">
      <defs>
       <path d="M 0 0 
L 0 3.5 
" id="m8d0a2a973f" style="stroke:#000000;stroke-width:0.8;"/>
      </defs>
      <g>
       <use style="stroke:#000000;stroke-width:0.8;" x="254.237052" xlink:href="#m8d0a2a973f" y="570.96"/>
      </g>
     </g>
     <g id="text_1">
      <!-- 0.0000 -->
      <g transform="translate(238.973614 586.339375)scale(0.12 -0.12)">
       <defs>
        <path d="M 23.296875 57.078125 
Q 12.5 57.078125 12.5 28.71875 
Q 12.5 25.640625 12.640625 22.65625 
Q 12.796875 19.671875 13.453125 15.890625 
Q 14.109375 12.109375 15.203125 9.390625 
Q 16.3125 6.6875 18.265625 4.78125 
Q 20.21875 2.875 22.90625 2.875 
Q 24.21875 2.875 25.5625 3.390625 
Q 26.90625 3.90625 28.859375 6.15625 
Q 30.8125 8.40625 31.78125 12.203125 
Q 33.5 18.40625 33.5 31.6875 
Q 33.5 41.21875 31.828125 47.3125 
Q 30.171875 53.421875 27.6875 55.515625 
Q 25.875 57.078125 23.296875 57.078125 
z
M 22.796875 -0.984375 
Q 13.921875 -0.984375 8.90625 7.5625 
Q 3.90625 16.109375 3.90625 28.90625 
Q 3.90625 43.109375 9.6875 52.046875 
Q 15.484375 60.984375 23.296875 60.984375 
Q 29 60.984375 32.8125 57.515625 
Q 42.09375 49.03125 42.09375 30.90625 
Q 42.09375 22.609375 40.1875 16.15625 
Q 38.28125 9.71875 35.296875 6.09375 
Q 32.328125 2.484375 29.09375 0.75 
Q 25.875 -0.984375 22.796875 -0.984375 
z
" id="LinBiolinum-48"/>
        <path d="M 5.421875 4.390625 
L 5.421875 4.78125 
Q 6.734375 8.5 10.796875 10.203125 
L 11.1875 10.203125 
Q 15.28125 8.6875 16.609375 4.78125 
L 16.609375 4.390625 
Q 15.1875 0 11.1875 -0.984375 
L 10.796875 -0.984375 
Q 8.40625 -0.484375 7.25 0.703125 
Q 6.109375 1.90625 5.421875 4.390625 
z
" id="LinBiolinum-46"/>
       </defs>
       <use xlink:href="#LinBiolinum-48"/>
       <use x="46.484375" xlink:href="#LinBiolinum-46"/>
       <use x="68.457031" xlink:href="#LinBiolinum-48"/>
       <use x="114.941406" xlink:href="#LinBiolinum-48"/>
       <use x="161.425781" xlink:href="#LinBiolinum-48"/>
       <use x="207.910156" xlink:href="#LinBiolinum-48"/>
      </g>
     </g>
    </g>
    <g id="xtick_2">
     <g id="line2d_3">
      <path clip-path="url(#p652aca5a79)" d="M 344.71529 570.96 
L 344.71529 72 
" style="fill:none;stroke:#808080;stroke-dasharray:3.2,0.8,0.5,0.8;stroke-dashoffset:0;stroke-opacity:0.8;stroke-width:0.5;"/>
     </g>
     <g id="line2d_4">
      <g>
       <use style="stroke:#000000;stroke-width:0.8;" x="344.71529" xlink:href="#m8d0a2a973f" y="570.96"/>
      </g>
     </g>
     <g id="text_2">
      <!-- 0.0025 -->
      <g transform="translate(329.577477 586.339375)scale(0.12 -0.12)">
       <defs>
        <path d="M 20.21875 55.328125 
Q 15.4375 55.328125 12.5 52.984375 
Q 11.578125 52.25 10.859375 51.3125 
Q 10.15625 50.390625 9.890625 49.921875 
Q 9.625 49.46875 8.953125 47.90625 
Q 8.296875 46.34375 8.109375 45.90625 
L 6.78125 46 
L 4.59375 52.875 
Q 5.953125 54.6875 8.03125 56.375 
Q 10.109375 58.0625 13.859375 59.515625 
Q 17.625 60.984375 21.828125 60.984375 
Q 27.296875 60.984375 31.296875 58.9375 
Q 35.296875 56.890625 37.328125 53.25 
Q 39.359375 49.609375 39.359375 44.875 
Q 39.359375 37.59375 32.125 27.78125 
Q 29.046875 23.640625 25.890625 20.015625 
Q 22.75 16.40625 20.984375 14.640625 
Q 19.234375 12.890625 15.921875 9.71875 
Q 14.15625 8.015625 14.15625 6.984375 
Q 14.15625 6.84375 14.171875 6.734375 
Q 14.203125 6.640625 14.3125 6.5 
Q 17.046875 6.6875 22.46875 6.6875 
Q 31.734375 6.6875 40.765625 7.515625 
Q 40.28125 5.515625 40.28125 2.78125 
Q 40.28125 1.609375 40.578125 -0.484375 
Q 28.65625 0 23.1875 0 
Q 22.703125 0 4.25 -0.484375 
Q 3.21875 1.171875 3.265625 3.421875 
Q 3.328125 4.15625 3.421875 4.6875 
Q 3.609375 4.890625 6.875 7.9375 
Q 10.15625 10.984375 11.9375 12.765625 
Q 13.71875 14.546875 16.8125 17.71875 
Q 19.921875 20.90625 22.4375 23.96875 
Q 24.953125 27.046875 26.953125 30.078125 
Q 30.765625 35.796875 30.765625 43.5 
Q 30.765625 48.578125 27.53125 51.953125 
Q 24.3125 55.328125 20.21875 55.328125 
z
" id="LinBiolinum-50"/>
        <path d="M 20.21875 -0.984375 
Q 11.53125 -0.984375 5.078125 4.59375 
L 4.6875 4.890625 
L 6.890625 12.890625 
L 8.296875 12.984375 
Q 8.59375 12.5 9.4375 10.890625 
Q 10.296875 9.28125 10.546875 8.84375 
Q 10.796875 8.40625 11.59375 7.25 
Q 12.40625 6.109375 12.796875 5.765625 
Q 13.1875 5.421875 14.078125 4.65625 
Q 14.984375 3.90625 15.84375 3.703125 
Q 16.703125 3.515625 17.84375 3.25 
Q 19 2.984375 20.40625 2.984375 
Q 25.484375 2.984375 28.625 7.03125 
Q 31.78125 11.078125 31.78125 17.921875 
Q 31.78125 25.828125 28.578125 29.90625 
Q 25.390625 33.984375 20.3125 33.984375 
Q 15.625 33.984375 7.90625 30.90625 
L 7.171875 31.15625 
L 10.40625 60.59375 
Q 17.1875 60.015625 21.78125 60.015625 
Q 30.078125 60.015625 38.1875 60.984375 
L 38.921875 60.6875 
L 37.3125 53.90625 
Q 32.421875 53.328125 26.8125 53.328125 
Q 20.796875 53.328125 14.109375 54.203125 
L 12.015625 36.53125 
Q 16.109375 38.03125 22.90625 37.984375 
Q 31 37.984375 35.78125 32.59375 
Q 40.578125 27.203125 40.578125 19.578125 
Q 40.578125 10.6875 34.84375 4.84375 
Q 29.109375 -0.984375 20.21875 -0.984375 
z
" id="LinBiolinum-53"/>
       </defs>
       <use xlink:href="#LinBiolinum-48"/>
       <use x="46.484375" xlink:href="#LinBiolinum-46"/>
       <use x="68.457031" xlink:href="#LinBiolinum-48"/>
       <use x="114.941406" xlink:href="#LinBiolinum-48"/>
       <use x="161.425781" xlink:href="#LinBiolinum-50"/>
       <use x="205.810547" xlink:href="#LinBiolinum-53"/>
      </g>
     </g>
    </g>
    <g id="xtick_3">
     <g id="line2d_5">
      <path clip-path="url(#p652aca5a79)" d="M 435.193528 570.96 
L 435.193528 72 
" style="fill:none;stroke:#808080;stroke-dasharray:3.2,0.8,0.5,0.8;stroke-dashoffset:0;stroke-opacity:0.8;stroke-width:0.5;"/>
     </g>
     <g id="line2d_6">
      <g>
       <use style="stroke:#000000;stroke-width:0.8;" x="435.193528" xlink:href="#m8d0a2a973f" y="570.96"/>
      </g>
     </g>
     <g id="text_3">
      <!-- 0.0050 -->
      <g transform="translate(419.93009 586.339375)scale(0.12 -0.12)">
       <use xlink:href="#LinBiolinum-48"/>
       <use x="46.484375" xlink:href="#LinBiolinum-46"/>
       <use x="68.457031" xlink:href="#LinBiolinum-48"/>
       <use x="114.941406" xlink:href="#LinBiolinum-48"/>
       <use x="161.425781" xlink:href="#LinBiolinum-53"/>
       <use x="207.910156" xlink:href="#LinBiolinum-48"/>
      </g>
     </g>
    </g>
    <g id="xtick_4">
     <g id="line2d_7">
      <path clip-path="url(#p652aca5a79)" d="M 525.671766 570.96 
L 525.671766 72 
" style="fill:none;stroke:#808080;stroke-dasharray:3.2,0.8,0.5,0.8;stroke-dashoffset:0;stroke-opacity:0.8;stroke-width:0.5;"/>
     </g>
     <g id="line2d_8">
      <g>
       <use style="stroke:#000000;stroke-width:0.8;" x="525.671766" xlink:href="#m8d0a2a973f" y="570.96"/>
      </g>
     </g>
     <g id="text_4">
      <!-- 0.0075 -->
      <g transform="translate(510.408329 586.339375)scale(0.12 -0.12)">
       <defs>
        <path d="M 34.515625 52.484375 
Q 16.40625 53.078125 6.296875 51.609375 
Q 6.78125 55.421875 6.78125 56.5 
Q 6.78125 56.984375 6.296875 60.6875 
Q 11.28125 60.015625 34.28125 60.015625 
Q 37.703125 60.015625 40.71875 60.984375 
L 42.390625 60.015625 
Q 31.59375 33.59375 20.015625 -0.875 
L 12.703125 -1.3125 
L 12.40625 -0.6875 
Q 18.703125 13.375 34.515625 52.484375 
z
" id="LinBiolinum-55"/>
       </defs>
       <use xlink:href="#LinBiolinum-48"/>
       <use x="46.484375" xlink:href="#LinBiolinum-46"/>
       <use x="68.457031" xlink:href="#LinBiolinum-48"/>
       <use x="114.941406" xlink:href="#LinBiolinum-48"/>
       <use x="161.425781" xlink:href="#LinBiolinum-55"/>
       <use x="207.910156" xlink:href="#LinBiolinum-53"/>
      </g>
     </g>
    </g>
    <g id="xtick_5">
     <g id="line2d_9">
      <path clip-path="url(#p652aca5a79)" d="M 616.150004 570.96 
L 616.150004 72 
" style="fill:none;stroke:#808080;stroke-dasharray:3.2,0.8,0.5,0.8;stroke-dashoffset:0;stroke-opacity:0.8;stroke-width:0.5;"/>
     </g>
     <g id="line2d_10">
      <g>
       <use style="stroke:#000000;stroke-width:0.8;" x="616.150004" xlink:href="#m8d0a2a973f" y="570.96"/>
      </g>
     </g>
     <g id="text_5">
      <!-- 0.0100 -->
      <g transform="translate(600.886567 586.339375)scale(0.12 -0.12)">
       <defs>
        <path d="M 32.625 18.890625 
Q 32.625 7.71875 33.5 0 
L 33.296875 -0.296875 
Q 30.515625 0 28.515625 0 
Q 28.515625 0 23.875 -0.296875 
L 23.78125 0 
Q 24.5625 6.5 24.609375 18.890625 
L 24.609375 43.703125 
Q 24.609375 51.3125 22.796875 51.3125 
Q 21.6875 51.3125 17.578125 50.609375 
Q 13.484375 49.90625 11.375 49.703125 
L 10.796875 52.59375 
Q 14.984375 53.90625 22.375 57 
Q 29.78125 60.109375 32.71875 60.984375 
Q 33.40625 60.984375 33.40625 60.5 
Q 32.625 54.890625 32.625 44.28125 
z
" id="LinBiolinum-49"/>
       </defs>
       <use xlink:href="#LinBiolinum-48"/>
       <use x="46.484375" xlink:href="#LinBiolinum-46"/>
       <use x="68.457031" xlink:href="#LinBiolinum-48"/>
       <use x="114.941406" xlink:href="#LinBiolinum-49"/>
       <use x="161.425781" xlink:href="#LinBiolinum-48"/>
       <use x="207.910156" xlink:href="#LinBiolinum-48"/>
      </g>
     </g>
    </g>
    <g id="xtick_6">
     <g id="line2d_11">
      <path clip-path="url(#p652aca5a79)" d="M 706.628242 570.96 
L 706.628242 72 
" style="fill:none;stroke:#808080;stroke-dasharray:3.2,0.8,0.5,0.8;stroke-dashoffset:0;stroke-opacity:0.8;stroke-width:0.5;"/>
     </g>
     <g id="line2d_12">
      <g>
       <use style="stroke:#000000;stroke-width:0.8;" x="706.628242" xlink:href="#m8d0a2a973f" y="570.96"/>
      </g>
     </g>
     <g id="text_6">
      <!-- 0.0125 -->
      <g transform="translate(691.49043 586.339375)scale(0.12 -0.12)">
       <use xlink:href="#LinBiolinum-48"/>
       <use x="46.484375" xlink:href="#LinBiolinum-46"/>
       <use x="68.457031" xlink:href="#LinBiolinum-48"/>
       <use x="114.941406" xlink:href="#LinBiolinum-49"/>
       <use x="161.425781" xlink:href="#LinBiolinum-50"/>
       <use x="205.810547" xlink:href="#LinBiolinum-53"/>
      </g>
     </g>
    </g>
    <g id="xtick_7">
     <g id="line2d_13">
      <path clip-path="url(#p652aca5a79)" d="M 797.10648 570.96 
L 797.10648 72 
" style="fill:none;stroke:#808080;stroke-dasharray:3.2,0.8,0.5,0.8;stroke-dashoffset:0;stroke-opacity:0.8;stroke-width:0.5;"/>
     </g>
     <g id="line2d_14">
      <g>
       <use style="stroke:#000000;stroke-width:0.8;" x="797.10648" xlink:href="#m8d0a2a973f" y="570.96"/>
      </g>
     </g>
     <g id="text_7">
      <!-- 0.0150 -->
      <g transform="translate(781.843043 586.339375)scale(0.12 -0.12)">
       <use xlink:href="#LinBiolinum-48"/>
       <use x="46.484375" xlink:href="#LinBiolinum-46"/>
       <use x="68.457031" xlink:href="#LinBiolinum-48"/>
       <use x="114.941406" xlink:href="#LinBiolinum-49"/>
       <use x="161.425781" xlink:href="#LinBiolinum-53"/>
       <use x="207.910156" xlink:href="#LinBiolinum-48"/>
      </g>
     </g>
    </g>
    <g id="xtick_8">
     <g id="line2d_15">
      <path clip-path="url(#p652aca5a79)" d="M 887.584719 570.96 
L 887.584719 72 
" style="fill:none;stroke:#808080;stroke-dasharray:3.2,0.8,0.5,0.8;stroke-dashoffset:0;stroke-opacity:0.8;stroke-width:0.5;"/>
     </g>
     <g id="line2d_16">
      <g>
       <use style="stroke:#000000;stroke-width:0.8;" x="887.584719" xlink:href="#m8d0a2a973f" y="570.96"/>
      </g>
     </g>
     <g id="text_8">
      <!-- 0.0175 -->
      <g transform="translate(872.321281 586.339375)scale(0.12 -0.12)">
       <use xlink:href="#LinBiolinum-48"/>
       <use x="46.484375" xlink:href="#LinBiolinum-46"/>
       <use x="68.457031" xlink:href="#LinBiolinum-48"/>
       <use x="114.941406" xlink:href="#LinBiolinum-49"/>
       <use x="161.425781" xlink:href="#LinBiolinum-55"/>
       <use x="207.910156" xlink:href="#LinBiolinum-53"/>
      </g>
     </g>
    </g>
    <g id="xtick_9">
     <g id="line2d_17">
      <path clip-path="url(#p652aca5a79)" d="M 978.062957 570.96 
L 978.062957 72 
" style="fill:none;stroke:#808080;stroke-dasharray:3.2,0.8,0.5,0.8;stroke-dashoffset:0;stroke-opacity:0.8;stroke-width:0.5;"/>
     </g>
     <g id="line2d_18">
      <g>
       <use style="stroke:#000000;stroke-width:0.8;" x="978.062957" xlink:href="#m8d0a2a973f" y="570.96"/>
      </g>
     </g>
     <g id="text_9">
      <!-- 0.0200 -->
      <g transform="translate(962.925144 586.339375)scale(0.12 -0.12)">
       <use xlink:href="#LinBiolinum-48"/>
       <use x="46.484375" xlink:href="#LinBiolinum-46"/>
       <use x="68.457031" xlink:href="#LinBiolinum-48"/>
       <use x="114.941406" xlink:href="#LinBiolinum-50"/>
       <use x="159.326172" xlink:href="#LinBiolinum-48"/>
       <use x="205.810547" xlink:href="#LinBiolinum-48"/>
      </g>
     </g>
    </g>
    <g id="text_10">
     <!-- Mean Permutation Importance -->
     <g transform="translate(516.263125 601.536875)scale(0.12 -0.12)">
      <defs>
       <path d="M 19.28125 66.21875 
L 22.015625 66.21875 
Q 24.703125 60.6875 27.828125 53.453125 
Q 30.953125 46.234375 33.296875 40.6875 
Q 35.640625 35.15625 38.859375 28.171875 
Q 42.09375 21.1875 45.265625 15.375 
L 71.09375 66.21875 
L 73.296875 66.21875 
Q 77.875 26.421875 81.6875 -0.296875 
Q 80.171875 0 76.421875 0 
Q 73 0 71.484375 -0.296875 
Q 68.84375 31.5 66.9375 47.265625 
L 66.609375 47.3125 
Q 53.515625 23.09375 43.40625 0 
L 41.5 0 
Q 39.84375 3.515625 38.015625 7.71875 
Q 36.1875 11.921875 34.671875 15.59375 
Q 33.15625 19.28125 31.34375 23.546875 
Q 29.546875 27.828125 27.921875 31.59375 
Q 26.3125 35.359375 24.359375 39.59375 
Q 22.40625 43.84375 20.515625 47.609375 
L 20.0625 47.609375 
Q 19.046875 41.15625 17.546875 31.421875 
Q 16.0625 21.6875 14.71875 12.8125 
Q 13.375 3.953125 12.703125 -0.296875 
Q 11.578125 0 9.71875 0 
Q 7.515625 0 6.390625 -0.296875 
Q 14.5 38.71875 19.28125 66.21875 
z
" id="LinBiolinum-77"/>
       <path d="M 12.5 27.296875 
L 30.90625 27.296875 
Q 32.328125 27.296875 32.328125 28.71875 
Q 32.328125 33.890625 29.65625 36.890625 
Q 27 39.890625 23.875 39.890625 
Q 22.75 39.890625 21.328125 39.34375 
Q 19.921875 38.8125 18.0625 37.546875 
Q 16.21875 36.28125 14.65625 33.59375 
Q 13.09375 30.90625 12.5 27.296875 
z
M 39.203125 10.40625 
L 41.21875 7.90625 
Q 38.328125 3.90625 33.71875 1.453125 
Q 29.109375 -0.984375 23.78125 -0.984375 
Q 13.375 -0.984375 7.90625 5.609375 
Q 3.421875 11.03125 3.421875 20.90625 
Q 3.421875 31.296875 9.765625 37.59375 
Q 16.109375 43.890625 23.875 43.890625 
Q 32.859375 43.890625 37.03125 38.203125 
Q 41.21875 32.515625 41.21875 25 
Q 41.21875 23.296875 39.40625 23.296875 
L 12.203125 23.296875 
Q 12.203125 14.40625 14.59375 10.59375 
Q 18.21875 4.890625 25.484375 4.890625 
Q 34.125 4.890625 39.203125 10.40625 
z
" id="LinBiolinum-101"/>
       <path d="M 31 22.515625 
L 22.515625 20.21875 
Q 17 18.703125 14.796875 16.25 
Q 12.59375 13.8125 12.59375 10.203125 
Q 12.59375 7.8125 14.640625 5.953125 
Q 16.703125 4.109375 20.015625 4.109375 
Q 24.03125 4.109375 29.203125 8.015625 
Q 30.609375 8.984375 30.609375 10.59375 
z
M 31 4.78125 
L 30.609375 4.78125 
Q 26.609375 1.375 23.84375 0.1875 
Q 21.09375 -0.984375 17 -0.984375 
Q 11.1875 -0.984375 7.84375 1.703125 
Q 4.5 4.390625 4.5 9.8125 
Q 4.5 14.890625 8.9375 18.75 
Q 13.375 22.609375 21.09375 24.3125 
L 30.421875 26.421875 
Q 31.109375 26.609375 31.109375 27.59375 
Q 31.109375 30.8125 30.390625 33.15625 
Q 29.6875 35.5 28.78125 36.640625 
Q 27.875 37.796875 26.390625 38.453125 
Q 24.90625 39.109375 23.90625 39.25 
Q 22.90625 39.40625 21.484375 39.40625 
Q 15.765625 39.40625 10.5 30.90625 
L 9.1875 31 
L 7.515625 37.703125 
L 7.8125 38.09375 
Q 14.703125 43.890625 22.515625 43.890625 
Q 39.015625 43.890625 39.015625 27.6875 
Q 39.015625 27.34375 38.96875 25.265625 
Q 38.921875 23.1875 38.859375 20.8125 
Q 38.8125 18.453125 38.765625 16.015625 
Q 38.71875 13.578125 38.71875 12.59375 
Q 38.71875 6.296875 40.375 4.78125 
Q 41.21875 4.046875 43.3125 4.046875 
Q 44.53125 4.046875 46 4.59375 
L 46.78125 2.09375 
Q 43.84375 -0.984375 38.8125 -0.984375 
Q 35.984375 -0.984375 33.90625 0.484375 
Q 31.84375 1.953125 31 4.78125 
z
" id="LinBiolinum-97"/>
       <path d="M 46 18.015625 
Q 46 6.640625 46.921875 0 
L 46.6875 -0.296875 
Q 44.875 0 41.984375 0 
Q 39.109375 0 37.3125 -0.296875 
L 37.109375 0 
Q 37.984375 6.6875 37.984375 18.015625 
L 37.984375 27.78125 
Q 37.984375 33.6875 36.390625 35.78125 
Q 34.8125 37.890625 30.8125 37.890625 
Q 27.734375 37.890625 23.78125 35.890625 
Q 19.828125 33.890625 16.3125 29.6875 
L 16.3125 18.015625 
Q 16.3125 6.390625 17.1875 0 
L 17 -0.296875 
Q 15.1875 0 12.296875 0 
Q 9.421875 0 7.625 -0.296875 
L 7.421875 0 
Q 8.296875 6.109375 8.296875 18.015625 
L 8.296875 23.484375 
Q 8.296875 37.3125 7.421875 42.921875 
L 7.625 43.21875 
Q 12.015625 42.828125 15.71875 43.5 
Q 16.3125 43.5 16.3125 42.484375 
L 16.3125 35.203125 
L 16.5 34.90625 
Q 24.21875 43.890625 33.796875 43.890625 
Q 40.375 43.890625 43.28125 39.984375 
Q 46.1875 36.078125 46.1875 28.078125 
Q 46.1875 26.46875 46.09375 23.046875 
Q 46 19.625 46 18.015625 
z
" id="LinBiolinum-110"/>
       <path id="LinBiolinum-32"/>
       <path d="M 19 56.5 
L 19 32.90625 
Q 20.90625 31.9375 26.90625 31.890625 
Q 34.625 31.890625 38.40625 35.34375 
Q 42.1875 38.8125 42.1875 47.125 
Q 42.1875 51.421875 40.984375 54.25 
Q 39.796875 57.078125 37.59375 58.484375 
Q 35.40625 59.90625 33.15625 60.390625 
Q 30.90625 60.890625 27.984375 60.890625 
Q 22.796875 60.890625 20.890625 59.84375 
Q 19 58.796875 19 56.5 
z
M 10.40625 44.484375 
Q 10.40625 57.375 9.421875 64.5 
L 9.625 64.796875 
Q 11.421875 64.5 14.703125 64.5 
Q 16.21875 64.5 21.796875 64.84375 
Q 27.390625 65.1875 28.71875 65.1875 
Q 35.296875 65.1875 40.109375 63.546875 
Q 44.921875 61.921875 47.3125 59.15625 
Q 49.703125 56.390625 50.796875 53.53125 
Q 51.90625 50.6875 51.90625 47.609375 
Q 51.90625 44.1875 50.5625 40.84375 
Q 49.21875 37.5 46.5 34.4375 
Q 43.796875 31.390625 38.84375 29.484375 
Q 33.890625 27.59375 27.390625 27.59375 
Q 22.078125 27.59375 19 28.609375 
L 19 20.015625 
Q 19 7.125 20.015625 0 
L 19.828125 -0.296875 
Q 18.015625 0 14.6875 0 
Q 11.375 0 9.625 -0.296875 
L 9.421875 0 
Q 10.40625 6.78125 10.40625 20.015625 
z
" id="LinBiolinum-80"/>
       <path d="M 16.703125 33.40625 
L 17 33.203125 
Q 20.515625 39.203125 23.140625 41.546875 
Q 25.78125 43.890625 29.6875 43.890625 
Q 30.90625 43.890625 33.296875 43.21875 
L 33.6875 42.828125 
L 31.6875 35.40625 
L 30.90625 35.203125 
Q 29.390625 36.625 25.6875 36.625 
Q 22.359375 36.625 20.125 33.109375 
Q 16.703125 27.9375 16.703125 23.1875 
L 16.703125 18.015625 
Q 16.703125 6.84375 17.578125 0 
L 17.390625 -0.296875 
Q 15.578125 0 12.6875 0 
Q 9.8125 0 8.015625 -0.296875 
L 7.8125 0 
Q 8.6875 6.203125 8.6875 18.015625 
L 8.6875 23.484375 
Q 8.6875 37.3125 7.8125 42.921875 
L 8.015625 43.21875 
Q 12.40625 42.828125 16.109375 43.5 
Q 16.703125 43.5 16.703125 42.484375 
z
" id="LinBiolinum-114"/>
       <path d="M 16.21875 35.203125 
L 16.5 34.90625 
Q 25 43.890625 33.296875 43.890625 
Q 37.5 43.890625 40.359375 41.734375 
Q 43.21875 39.59375 43.890625 35.984375 
Q 51.421875 43.890625 60.796875 43.890625 
Q 68.21875 43.890625 70.703125 39.84375 
Q 73.1875 35.796875 73.1875 27.984375 
L 73.1875 18.015625 
Q 73.1875 6.390625 74.125 0 
L 73.875 -0.296875 
Q 72.078125 0 69.1875 0 
Q 66.3125 0 64.5 -0.296875 
L 64.3125 0 
Q 65.1875 6.109375 65.1875 18.015625 
L 65.1875 29 
Q 65.1875 33.890625 63.28125 35.890625 
Q 61.375 37.890625 57.171875 37.890625 
Q 49.859375 37.890625 44.484375 31.890625 
Q 44.578125 30.671875 44.578125 28.078125 
L 44.578125 18.015625 
Q 44.578125 6.390625 45.515625 0 
L 45.3125 -0.296875 
Q 43.5 0 40.59375 0 
Q 37.703125 0 35.890625 -0.296875 
L 35.6875 0 
Q 36.578125 6.109375 36.625 18.015625 
L 36.625 29 
Q 36.625 37.890625 29.984375 37.890625 
Q 27.296875 37.890625 23.484375 35.734375 
Q 19.671875 33.59375 16.21875 30.078125 
L 16.21875 18.015625 
Q 16.21875 6.390625 17.09375 0 
L 16.890625 -0.296875 
Q 15.09375 0 12.1875 0 
Q 9.28125 0 7.515625 -0.296875 
L 7.328125 0 
Q 8.203125 6.109375 8.203125 18.015625 
L 8.203125 23.484375 
Q 8.203125 37.3125 7.328125 42.921875 
L 7.515625 43.21875 
Q 11.921875 42.828125 15.578125 43.5 
Q 16.15625 43.5 16.21875 42.484375 
z
" id="LinBiolinum-109"/>
       <path d="M 36.53125 9.1875 
Q 33.734375 4.890625 29.703125 1.953125 
Q 25.6875 -0.984375 21.390625 -0.984375 
Q 14.5 -0.984375 11.390625 3 
Q 8.296875 6.984375 8.296875 12.890625 
L 8.296875 24.90625 
Q 8.296875 36.53125 7.421875 42.921875 
L 7.625 43.21875 
Q 9.421875 42.921875 12.296875 42.921875 
Q 15.1875 42.921875 17 43.21875 
L 17.1875 42.921875 
Q 16.3125 36.921875 16.3125 24.90625 
L 16.3125 14.984375 
Q 16.3125 8.6875 18.0625 6.640625 
Q 19.828125 4.59375 23 4.59375 
Q 26.515625 4.59375 30.34375 7.734375 
Q 34.1875 10.890625 36.71875 15.09375 
L 36.71875 24.90625 
Q 36.71875 36.28125 35.796875 42.921875 
L 35.984375 43.21875 
Q 37.796875 42.921875 40.703125 42.921875 
Q 43.609375 42.921875 45.40625 43.21875 
L 45.609375 42.921875 
Q 44.734375 36.921875 44.671875 24.90625 
L 44.671875 19.1875 
Q 44.671875 9.078125 46.390625 0 
L 46.1875 -0.296875 
Q 44.1875 0 41.75 0 
Q 40.578125 0 38.28125 -0.296875 
Q 37.40625 -0.296875 37.40625 0 
L 36.921875 8.890625 
z
" id="LinBiolinum-117"/>
       <path d="M 9.515625 42.921875 
Q 9.515625 46 9.703125 50 
Q 9.90625 54 9.90625 55.71875 
L 10.109375 56 
Q 11.625 56.203125 12.671875 56.546875 
Q 13.71875 56.890625 15.0625 57.546875 
Q 16.40625 58.203125 17.09375 58.5 
Q 17.96875 58.5 18.015625 57.515625 
Q 17.53125 51.125 17.484375 42.921875 
L 22.21875 42.921875 
Q 24.125 42.921875 29.203125 43.109375 
L 29.6875 42.390625 
Q 28.90625 40.375 28.515625 38.28125 
Q 26.515625 38.484375 21.296875 38.484375 
L 17.484375 38.484375 
L 17.484375 25.875 
Q 17.484375 22.46875 17.328125 18.09375 
Q 17.1875 13.71875 17.1875 12.59375 
Q 17.1875 4.890625 20.515625 4.390625 
Q 24.359375 3.765625 28.375 5.171875 
L 29.59375 2.6875 
Q 23.78125 -1.03125 18.015625 -0.984375 
Q 14.3125 -0.984375 11.75 1.5 
Q 9.1875 4 9.1875 8.59375 
Q 9.1875 9.71875 9.34375 15.546875 
Q 9.515625 21.390625 9.515625 24.8125 
L 9.515625 38.484375 
Q 4.828125 38.484375 2.390625 38.28125 
L 1.90625 39.015625 
Q 3.328125 41.21875 4.109375 43.109375 
Q 5.515625 42.921875 9.515625 42.921875 
z
" id="LinBiolinum-116"/>
       <path d="M 11.078125 54.59375 
Q 8.015625 57.71875 8.015625 59.71875 
Q 8.015625 61.71875 9.546875 63.25 
Q 11.078125 64.796875 13.078125 64.796875 
Q 15.09375 64.796875 16.65625 63.25 
Q 18.21875 61.71875 18.21875 59.71875 
Q 18.21875 57.71875 16.65625 56.15625 
Q 15.09375 54.59375 13.078125 54.59375 
Q 11.078125 54.59375 8.015625 57.71875 
z
M 8.984375 23.484375 
Q 8.984375 36.765625 8.109375 42.921875 
L 8.296875 43.21875 
Q 12.59375 42.921875 17 43.3125 
Q 17.578125 43.3125 17.75 43.15625 
Q 17.921875 43.015625 17.921875 42.28125 
Q 17.046875 33.890625 17 25.09375 
L 17 18.015625 
Q 17 7.125 17.921875 0 
L 17.671875 -0.296875 
Q 15.875 0 12.984375 0 
Q 10.109375 0 8.296875 -0.296875 
L 8.109375 0 
Q 8.984375 6.6875 8.984375 18.015625 
z
" id="LinBiolinum-105"/>
       <path d="M 3.8125 20.515625 
Q 3.8125 31.109375 9.6875 37.5 
Q 15.578125 43.890625 25.390625 43.890625 
Q 35.40625 43.890625 40.796875 37.828125 
Q 46.1875 31.78125 46.1875 21.390625 
Q 46.1875 11.375 40.5 5.1875 
Q 34.8125 -0.984375 25 -0.984375 
Q 15.28125 -0.984375 9.546875 5.125 
Q 3.8125 11.234375 3.8125 20.515625 
z
M 24.703125 39.890625 
Q 20.3125 39.890625 17.453125 37.203125 
Q 14.59375 34.515625 13.59375 30.75 
Q 12.59375 27 12.59375 22.21875 
Q 12.59375 17.71875 13.59375 13.71875 
Q 14.59375 9.71875 17.796875 6.34375 
Q 21 2.984375 25.875 2.984375 
Q 30.859375 2.984375 34.125 7.6875 
Q 37.40625 12.40625 37.40625 19.578125 
Q 37.40625 29.6875 34.765625 34.78125 
Q 32.125 39.890625 24.703125 39.890625 
z
" id="LinBiolinum-111"/>
       <path d="M 10.40625 44.484375 
Q 10.40625 57.375 9.421875 64.5 
L 9.625 64.796875 
Q 11.421875 64.5 14.71875 64.5 
Q 18.015625 64.5 19.828125 64.796875 
L 20.015625 64.5 
Q 19.046875 57.90625 19 44.484375 
L 19 20.015625 
Q 19 7.125 20.015625 0 
L 19.828125 -0.296875 
Q 18.015625 0 14.6875 0 
Q 11.375 0 9.625 -0.296875 
L 9.421875 0 
Q 10.40625 6.78125 10.40625 20.015625 
z
" id="LinBiolinum-73"/>
       <path d="M 16.21875 29.390625 
L 16.21875 7.515625 
Q 20.015625 3.03125 25.484375 2.984375 
Q 29.296875 2.984375 32 4.6875 
Q 34.71875 6.390625 36.0625 9.34375 
Q 37.40625 12.3125 37.9375 15.359375 
Q 38.484375 18.40625 38.484375 21.78125 
Q 38.484375 39.265625 28.21875 39.3125 
Q 25.25 39.3125 21.53125 36.296875 
Q 17.828125 33.296875 16.21875 29.390625 
z
M 16.21875 35.203125 
L 16.40625 34.90625 
Q 22.3125 43.890625 29.890625 43.890625 
Q 37.890625 43.890625 42.59375 37.734375 
Q 47.3125 31.59375 47.3125 23.09375 
Q 47.3125 12.40625 41.59375 5.703125 
Q 35.890625 -0.984375 26.125 -0.984375 
Q 20.3125 -0.984375 16.21875 1.21875 
L 16.21875 -3.21875 
Q 16.21875 -16.109375 17.09375 -23.1875 
L 16.890625 -23.484375 
Q 15.09375 -23.1875 12.1875 -23.1875 
Q 9.28125 -23.1875 7.515625 -23.484375 
L 7.328125 -23.1875 
Q 8.203125 -16.5 8.203125 -3.21875 
L 8.203125 23.484375 
Q 8.203125 37.3125 7.328125 42.921875 
L 7.515625 43.21875 
Q 11.921875 42.828125 15.578125 43.5 
Q 16.15625 43.5 16.21875 42.484375 
z
" id="LinBiolinum-112"/>
       <path d="M 25 39.890625 
Q 19.828125 39.890625 16.203125 35.109375 
Q 12.59375 30.328125 12.59375 22.3125 
Q 12.59375 13.8125 16.25 8.90625 
Q 19.921875 4 25.59375 4 
Q 31.59375 4 36.28125 8.203125 
L 36.71875 8.203125 
L 38.625 6.109375 
Q 33.015625 -0.984375 23.875 -0.984375 
Q 14.703125 -0.984375 9.25 5.1875 
Q 3.8125 11.375 3.8125 21.78125 
Q 3.8125 31.5 10.296875 37.6875 
Q 16.796875 43.890625 25.09375 43.890625 
Q 33.015625 43.890625 38.375 41.109375 
L 38.625 40.828125 
L 36.28125 32.625 
L 35.015625 32.515625 
Q 30.71875 39.890625 25 39.890625 
z
" id="LinBiolinum-99"/>
      </defs>
      <use xlink:href="#LinBiolinum-77"/>
      <use x="88.574219" xlink:href="#LinBiolinum-101"/>
      <use x="133.837891" xlink:href="#LinBiolinum-97"/>
      <use x="181.933594" xlink:href="#LinBiolinum-110"/>
      <use x="235.791016" xlink:href="#LinBiolinum-32"/>
      <use x="260.791016" xlink:href="#LinBiolinum-80"/>
      <use x="316.650391" xlink:href="#LinBiolinum-101"/>
      <use x="361.914062" xlink:href="#LinBiolinum-114"/>
      <use x="397.412109" xlink:href="#LinBiolinum-109"/>
      <use x="478.076172" xlink:href="#LinBiolinum-117"/>
      <use x="531.738281" xlink:href="#LinBiolinum-116"/>
      <use x="565.722656" xlink:href="#LinBiolinum-97"/>
      <use x="613.818359" xlink:href="#LinBiolinum-116"/>
      <use x="647.802734" xlink:href="#LinBiolinum-105"/>
      <use x="673.779297" xlink:href="#LinBiolinum-111"/>
      <use x="723.779297" xlink:href="#LinBiolinum-110"/>
      <use x="777.636719" xlink:href="#LinBiolinum-32"/>
      <use x="802.636719" xlink:href="#LinBiolinum-73"/>
      <use x="832.03125" xlink:href="#LinBiolinum-109"/>
      <use x="912.695312" xlink:href="#LinBiolinum-112"/>
      <use x="964.990234" xlink:href="#LinBiolinum-111"/>
      <use x="1014.990234" xlink:href="#LinBiolinum-114"/>
      <use x="1050.488281" xlink:href="#LinBiolinum-116"/>
      <use x="1084.472656" xlink:href="#LinBiolinum-97"/>
      <use x="1132.568359" xlink:href="#LinBiolinum-110"/>
      <use x="1186.425781" xlink:href="#LinBiolinum-99"/>
      <use x="1229.296875" xlink:href="#LinBiolinum-101"/>
     </g>
    </g>
   </g>
   <g id="matplotlib.axis_2">
    <g id="ytick_1">
     <g id="line2d_19">
      <path clip-path="url(#p652aca5a79)" d="M 189.53875 132.48 
L 995.93875 132.48 
" style="fill:none;stroke:#808080;stroke-dasharray:3.2,0.8,0.5,0.8;stroke-dashoffset:0;stroke-opacity:0.8;stroke-width:0.5;"/>
     </g>
     <g id="line2d_20">
      <defs>
       <path d="M 0 0 
L -3.5 0 
" id="mb875367297" style="stroke:#000000;stroke-width:0.8;"/>
      </defs>
      <g>
       <use style="stroke:#000000;stroke-width:0.8;" x="189.53875" xlink:href="#mb875367297" y="132.48"/>
      </g>
     </g>
     <g id="text_11">
      <!-- Laser Power [W] -->
      <g transform="translate(99.084375 136.669687)scale(0.12 -0.12)">
       <defs>
        <path d="M 19.09375 44.484375 
L 19.09375 20.015625 
Q 19.09375 8.84375 19.921875 6.109375 
Q 25.921875 6.109375 32.953125 6.640625 
Q 39.984375 7.171875 44.046875 7.765625 
L 48.09375 8.296875 
L 48.296875 7.90625 
Q 48.09375 6.296875 48.09375 4.390625 
Q 48.09375 2.78125 48.296875 0 
L 48.09375 -0.296875 
Q 45.703125 0 42.09375 0 
L 14.796875 0 
L 9.625 -0.296875 
L 9.515625 0 
Q 10.5 6.78125 10.5 20.015625 
L 10.5 44.484375 
Q 10.5 57.375 9.515625 64.5 
L 9.71875 64.796875 
Q 11.53125 64.5 14.796875 64.5 
Q 18.21875 64.5 20.015625 64.796875 
L 20.125 64.5 
Q 19.09375 57.859375 19.09375 44.484375 
z
" id="LinBiolinum-76"/>
        <path d="M 4.984375 10.109375 
L 6.5 10.203125 
Q 11.671875 3.03125 18.3125 2.984375 
Q 22.40625 2.984375 24.9375 5.203125 
Q 27.484375 7.421875 27.484375 11.28125 
Q 27.484375 14.703125 25.046875 16.359375 
Q 22.609375 18.015625 17.390625 19.390625 
Q 11.765625 20.90625 8.59375 23.609375 
Q 5.421875 26.3125 5.421875 31.6875 
Q 5.421875 37.5 9.90625 40.6875 
Q 14.40625 43.890625 20.515625 43.890625 
Q 28.21875 43.890625 33.984375 40.921875 
L 34.1875 40.578125 
L 32.171875 33.203125 
L 30.8125 33.109375 
Q 28.90625 35.296875 28 36.25 
Q 27.09375 37.203125 24.796875 38.546875 
Q 22.515625 39.890625 20.125 39.890625 
Q 16.796875 39.890625 14.640625 38.25 
Q 12.5 36.625 12.5 33.59375 
Q 12.5 27.984375 21.78125 25.78125 
Q 27.984375 24.265625 31.6875 21.28125 
Q 35.40625 18.3125 35.40625 12.703125 
Q 35.40625 10.40625 34.640625 8.203125 
Q 33.890625 6 32.15625 3.796875 
Q 30.421875 1.609375 26.859375 0.3125 
Q 23.296875 -0.984375 18.40625 -0.984375 
Q 10.984375 -0.984375 3.328125 1.703125 
z
" id="LinBiolinum-115"/>
        <path d="M 20.015625 -0.390625 
Q 10.296875 24.90625 2 43.109375 
Q 3.609375 42.828125 7.296875 42.828125 
Q 10.984375 42.828125 12.3125 43.109375 
Q 12.59375 42.234375 14.0625 37.5625 
Q 15.53125 32.90625 15.96875 31.484375 
Q 16.40625 30.078125 17.703125 26.1875 
Q 19 22.3125 19.796875 20.140625 
Q 20.609375 17.96875 21.828125 14.8125 
Q 23.046875 11.671875 24.265625 8.890625 
L 24.90625 8.890625 
Q 28.03125 15.578125 33.34375 30.671875 
Q 30.8125 37.75 29 43.21875 
Q 30.609375 42.921875 34.296875 42.921875 
Q 37.984375 42.921875 39.3125 43.21875 
Q 43.84375 22.265625 48.875 9.03125 
L 49.65625 9.03125 
Q 55.5625 22.796875 62.015625 43.21875 
Q 62.890625 42.921875 65.375 42.921875 
Q 68.796875 42.921875 69.671875 43.21875 
Q 63.671875 30.03125 51.125 -0.296875 
Q 50.25 0 47.40625 0 
Q 45.796875 0 44.828125 -0.296875 
Q 43.359375 3.765625 40.328125 11.8125 
Q 37.3125 19.875 35.890625 23.734375 
Q 32.90625 16.5 26.90625 -0.390625 
Q 26.03125 -0.09375 23.296875 -0.09375 
Q 21 -0.09375 20.015625 -0.390625 
z
" id="LinBiolinum-119"/>
        <path d="M 10.984375 -19.1875 
L 10.984375 70.3125 
L 32.515625 70.3125 
L 32.515625 67.28125 
Q 27.09375 66.890625 24.390625 66.40625 
Q 21.6875 65.921875 20.09375 64.546875 
Q 18.5 63.1875 18.15625 61.453125 
Q 17.828125 59.71875 17.828125 56.109375 
L 17.828125 -4.984375 
Q 17.828125 -8.59375 18.109375 -10.296875 
Q 18.40625 -12.015625 19.984375 -13.40625 
Q 21.578125 -14.796875 24.328125 -15.359375 
Q 27.09375 -15.921875 32.515625 -16.3125 
L 32.515625 -19.1875 
z
" id="LinBiolinum-91"/>
        <path d="M 64.40625 13.1875 
Q 64.703125 13.875 66.84375 18.78125 
Q 69 23.6875 69.5625 25.046875 
Q 70.125 26.421875 72.078125 30.953125 
Q 74.03125 35.5 74.8125 37.453125 
Q 75.59375 39.40625 77.203125 43.3125 
Q 78.8125 47.21875 79.65625 49.515625 
Q 80.515625 51.8125 81.65625 54.859375 
Q 82.8125 57.90625 83.5 60.296875 
Q 84.1875 62.703125 84.8125 64.796875 
Q 86.03125 64.5 89.796875 64.5 
Q 92.09375 64.5 93.3125 64.796875 
Q 73.921875 22.21875 63.8125 -0.984375 
L 60.984375 -0.984375 
Q 55.125 15.484375 47.859375 35.15625 
L 31.78125 -0.984375 
L 29 -0.984375 
Q 25.6875 6.9375 19.390625 22.453125 
Q 13.09375 37.984375 8.453125 49.140625 
Q 3.8125 60.296875 1.609375 64.796875 
Q 3.328125 64.5 7.625 64.5 
Q 10.9375 64.5 12.59375 64.796875 
Q 18.5 44 32.328125 12.3125 
L 32.515625 12.3125 
Q 42.484375 35.453125 45.21875 42.1875 
Q 43.3125 47.265625 41.71875 51.484375 
Q 40.140625 55.71875 38.796875 59.203125 
Q 37.453125 62.703125 36.625 64.796875 
Q 38.328125 64.5 42.578125 64.5 
Q 46.390625 64.5 48.09375 64.796875 
Q 50.78125 52.59375 64.203125 13.1875 
z
" id="LinBiolinum-87"/>
        <path d="M 25.09375 70.3125 
L 25.09375 -19.1875 
L 3.609375 -19.1875 
L 3.609375 -16.21875 
Q 9.03125 -15.828125 11.71875 -15.3125 
Q 14.40625 -14.796875 15.984375 -13.453125 
Q 17.578125 -12.109375 17.9375 -10.34375 
Q 18.3125 -8.59375 18.3125 -4.984375 
L 18.3125 56.109375 
Q 18.3125 59.71875 17.984375 61.40625 
Q 17.671875 63.09375 16.078125 64.5 
Q 14.5 65.921875 11.734375 66.453125 
Q 8.984375 67 3.609375 67.390625 
L 3.609375 70.3125 
z
" id="LinBiolinum-93"/>
       </defs>
       <use xlink:href="#LinBiolinum-76"/>
       <use x="51.464844" xlink:href="#LinBiolinum-97"/>
       <use x="99.560547" xlink:href="#LinBiolinum-115"/>
       <use x="139.160156" xlink:href="#LinBiolinum-101"/>
       <use x="184.423828" xlink:href="#LinBiolinum-114"/>
       <use x="219.921875" xlink:href="#LinBiolinum-32"/>
       <use x="244.921875" xlink:href="#LinBiolinum-80"/>
       <use x="300.78125" xlink:href="#LinBiolinum-111"/>
       <use x="350.78125" xlink:href="#LinBiolinum-119"/>
       <use x="422.460938" xlink:href="#LinBiolinum-101"/>
       <use x="467.724609" xlink:href="#LinBiolinum-114"/>
       <use x="503.222656" xlink:href="#LinBiolinum-32"/>
       <use x="528.222656" xlink:href="#LinBiolinum-91"/>
       <use x="564.306641" xlink:href="#LinBiolinum-87"/>
       <use x="659.375" xlink:href="#LinBiolinum-93"/>
      </g>
     </g>
    </g>
    <g id="ytick_2">
     <g id="line2d_21">
      <path clip-path="url(#p652aca5a79)" d="M 189.53875 226.98 
L 995.93875 226.98 
" style="fill:none;stroke:#808080;stroke-dasharray:3.2,0.8,0.5,0.8;stroke-dashoffset:0;stroke-opacity:0.8;stroke-width:0.5;"/>
     </g>
     <g id="line2d_22">
      <g>
       <use style="stroke:#000000;stroke-width:0.8;" x="189.53875" xlink:href="#mb875367297" y="226.98"/>
      </g>
     </g>
     <g id="text_12">
      <!-- Duration [s] -->
      <g transform="translate(121.479375 231.169687)scale(0.12 -0.12)">
       <defs>
        <path d="M 19 8.203125 
Q 19 5.71875 20.890625 4.953125 
Q 22.796875 4.203125 29.890625 4.203125 
Q 35.6875 4.203125 39.9375 5.203125 
Q 44.1875 6.203125 47.890625 8.6875 
Q 51.609375 11.1875 53.5625 16.140625 
Q 55.515625 21.09375 55.515625 28.421875 
Q 55.515625 34.625 54.09375 39.96875 
Q 52.6875 45.3125 49.578125 50.09375 
Q 46.484375 54.890625 40.84375 57.640625 
Q 35.203125 60.40625 27.390625 60.40625 
Q 23.1875 60.40625 21.09375 59.59375 
Q 19 58.796875 19 56.390625 
z
M 14.703125 64.5 
Q 17.921875 64.5 22.953125 64.640625 
Q 27.984375 64.796875 31.203125 64.796875 
Q 45.609375 64.796875 55.71875 54.8125 
Q 65.828125 44.828125 65.828125 30.8125 
Q 65.828125 23.734375 63.71875 18.15625 
Q 61.625 12.59375 58.34375 9.25 
Q 55.078125 5.90625 50.625 3.703125 
Q 46.1875 1.515625 41.890625 0.65625 
Q 37.59375 -0.203125 33.015625 -0.203125 
Q 27.390625 -0.203125 22.609375 -0.09375 
Q 17.828125 0 14.703125 0 
L 9.515625 -0.296875 
L 9.421875 0 
Q 10.40625 6.78125 10.40625 20.015625 
L 10.40625 44.484375 
Q 10.40625 57.375 9.421875 64.5 
L 9.625 64.796875 
Q 11.28125 64.5 14.703125 64.5 
z
" id="LinBiolinum-68"/>
       </defs>
       <use xlink:href="#LinBiolinum-68"/>
       <use x="70.996094" xlink:href="#LinBiolinum-117"/>
       <use x="124.658203" xlink:href="#LinBiolinum-114"/>
       <use x="160.15625" xlink:href="#LinBiolinum-97"/>
       <use x="208.251953" xlink:href="#LinBiolinum-116"/>
       <use x="242.236328" xlink:href="#LinBiolinum-105"/>
       <use x="268.212891" xlink:href="#LinBiolinum-111"/>
       <use x="318.212891" xlink:href="#LinBiolinum-110"/>
       <use x="372.070312" xlink:href="#LinBiolinum-32"/>
       <use x="397.070312" xlink:href="#LinBiolinum-91"/>
       <use x="433.154297" xlink:href="#LinBiolinum-115"/>
       <use x="472.753906" xlink:href="#LinBiolinum-93"/>
      </g>
     </g>
    </g>
    <g id="ytick_3">
     <g id="line2d_23">
      <path clip-path="url(#p652aca5a79)" d="M 189.53875 321.48 
L 995.93875 321.48 
" style="fill:none;stroke:#808080;stroke-dasharray:3.2,0.8,0.5,0.8;stroke-dashoffset:0;stroke-opacity:0.8;stroke-width:0.5;"/>
     </g>
     <g id="line2d_24">
      <g>
       <use style="stroke:#000000;stroke-width:0.8;" x="189.53875" xlink:href="#mb875367297" y="321.48"/>
      </g>
     </g>
     <g id="text_13">
      <!-- Average Interlayertemperature [°C] -->
      <g transform="translate(7.2 325.69875)scale(0.12 -0.12)">
       <defs>
        <path d="M 40.71875 27.546875 
Q 38.578125 33.15625 36.0625 39.296875 
Q 33.546875 45.453125 30.609375 52.203125 
L 30.421875 52.203125 
L 19.875 27.59375 
Q 21.046875 27.59375 24.84375 27.484375 
Q 28.65625 27.390625 30.328125 27.390625 
Q 34.578125 27.390625 40.71875 27.546875 
z
M 17.921875 22.859375 
Q 15.046875 15.765625 12.890625 9.90625 
Q 10.75 4.046875 9.625 -0.296875 
Q 8.40625 0 5.078125 0 
Q 2.78125 0 1.609375 -0.296875 
Q 18.609375 37.015625 31.109375 65.828125 
L 33.890625 65.828125 
Q 37.3125 57.71875 43.5625 42.203125 
Q 49.8125 26.703125 54.4375 15.40625 
Q 59.078125 4.109375 61.28125 -0.296875 
Q 59.578125 0 55.328125 0 
Q 52 0 50.296875 -0.296875 
Q 50.09375 0.390625 49.828125 1.296875 
Q 49.5625 2.203125 49.09375 3.734375 
Q 48.640625 5.28125 48 7.203125 
Q 47.359375 9.125 46.578125 11.4375 
Q 45.796875 13.765625 44.75 16.75 
Q 43.703125 19.734375 42.53125 22.859375 
Q 39.265625 22.953125 36.328125 22.96875 
Q 33.40625 23 30.8125 23 
Q 25.09375 23 17.921875 22.859375 
z
" id="LinBiolinum-65"/>
        <path d="M 19.671875 -0.296875 
Q 8.40625 29.109375 2 43.21875 
Q 3.609375 42.921875 7.296875 42.921875 
Q 10.984375 42.921875 12.3125 43.21875 
Q 12.796875 41.65625 14.375 36.59375 
Q 15.96875 31.546875 16.703125 29.25 
Q 17.4375 26.953125 18.796875 22.921875 
Q 20.171875 18.890625 21.453125 15.59375 
Q 22.75 12.3125 24.171875 9.03125 
L 24.359375 9.03125 
Q 26.421875 13.375 28.4375 19.109375 
Q 30.46875 24.859375 32.78125 32.078125 
Q 35.109375 39.3125 36.53125 43.21875 
Q 37.40625 42.921875 39.890625 42.921875 
Q 42.78125 42.921875 43.703125 43.21875 
Q 31.296875 15.234375 25.78125 -0.296875 
Q 24.90625 0 22.78125 0 
Q 20.65625 0 19.671875 -0.296875 
z
" id="LinBiolinum-118"/>
        <path d="M 10.109375 -10.40625 
Q 10.109375 -13.484375 12.734375 -15.703125 
Q 15.375 -17.921875 18.234375 -18.703125 
Q 21.09375 -19.484375 23.1875 -19.484375 
Q 30.078125 -19.484375 35.03125 -16.984375 
Q 39.984375 -14.5 39.984375 -10.109375 
Q 39.984375 -5.21875 36.078125 -2.875 
Q 33.203125 -1.171875 25.484375 -1.21875 
Q 25 -1.21875 21.65625 -1.359375 
Q 18.3125 -1.515625 16.609375 -1.515625 
Q 13.921875 -3.03125 12.015625 -5.515625 
Q 10.109375 -8.015625 10.109375 -10.40625 
z
M 39.015625 28.90625 
Q 39.015625 22.3125 34.71875 17.96875 
Q 30.421875 13.625 22.40625 13.625 
Q 17.625 13.625 14.984375 14.984375 
Q 12.015625 12.40625 12.015625 9.421875 
Q 12.015625 6.546875 13.546875 5.609375 
Q 15.09375 4.6875 17.828125 4.6875 
Q 17.921875 4.6875 20.703125 4.890625 
Q 24.515625 5.375 29 5.421875 
Q 39.203125 5.421875 43.109375 2.09375 
Q 47.3125 -1.515625 47.3125 -7.8125 
Q 47.3125 -12.890625 43.203125 -16.640625 
Q 39.109375 -20.40625 33.15625 -22.09375 
Q 27.203125 -23.78125 20.40625 -23.78125 
Q 16.3125 -23.78125 12.640625 -22.84375 
Q 8.984375 -21.921875 6.09375 -19.203125 
Q 3.21875 -16.5 3.21875 -12.40625 
Q 3.21875 -9.328125 5.515625 -5.8125 
Q 6.734375 -4.828125 13.671875 -0.921875 
Q 13.875 -0.828125 14.015625 -0.734375 
Q 10.15625 -0.046875 8.265625 2.265625 
Q 6.390625 4.59375 6.390625 7.90625 
Q 6.390625 11.921875 12.59375 16.21875 
Q 5.515625 20.3125 5.515625 28.71875 
Q 5.515625 35.6875 10.765625 39.78125 
Q 16.015625 43.890625 22.515625 43.890625 
Q 25.875 43.890625 28.609375 43.015625 
Q 32.859375 43.265625 37.84375 44.015625 
Q 42.828125 44.78125 44.390625 44.921875 
L 44.671875 44.578125 
Q 44.390625 43.171875 44.390625 42 
Q 44.390625 40.828125 44.671875 39.40625 
L 44.390625 39.109375 
Q 35.0625 40.09375 33.984375 40.140625 
Q 39.015625 36.8125 39.015625 28.90625 
z
M 31.203125 28.421875 
Q 31.203125 40.140625 22.125 40.09375 
Q 17.828125 40.09375 15.546875 37.1875 
Q 13.28125 34.28125 13.28125 29.203125 
Q 13.28125 23.390625 15.46875 20.484375 
Q 17.671875 17.578125 22.90625 17.578125 
Q 27.390625 17.578125 29.296875 20.40625 
Q 31.203125 23.25 31.203125 28.421875 
z
" id="LinBiolinum-103"/>
        <path d="M 8.984375 20.015625 
L 8.984375 48.1875 
Q 8.984375 62.5 8.109375 67.484375 
L 8.296875 67.828125 
Q 12.796875 68.109375 17 69.828125 
Q 17.875 69.828125 17.921875 68.796875 
Q 17.046875 56.6875 17 50 
L 17 20.015625 
Q 17 6.640625 17.921875 0 
L 17.671875 -0.296875 
Q 15.875 0 12.984375 0 
Q 10.109375 0 8.296875 -0.296875 
L 8.109375 0 
Q 8.984375 6.390625 8.984375 20.015625 
z
" id="LinBiolinum-108"/>
        <path d="M 2.78125 43.21875 
Q 4.203125 42.921875 8.015625 42.921875 
Q 11.625 42.921875 12.890625 43.21875 
Q 16.21875 33.015625 26.265625 8.734375 
L 26.46875 8.734375 
Q 33.203125 23.09375 39.59375 43.21875 
Q 40.578125 42.921875 43.5 42.921875 
Q 46.828125 42.921875 47.796875 43.21875 
Q 43.5 34.515625 32.390625 9.46875 
Q 21.296875 -15.578125 18.796875 -23.6875 
Q 17.09375 -23.1875 13.921875 -23.1875 
Q 12.109375 -23.1875 10.40625 -23.6875 
Q 17.578125 -11.578125 22.21875 -0.984375 
Q 20.171875 4.390625 2.78125 43.21875 
z
" id="LinBiolinum-121"/>
        <path d="M 20.015625 52.390625 
Q 20.015625 55.171875 18.25 57.4375 
Q 16.5 59.71875 13.390625 59.71875 
Q 10.296875 59.71875 8.484375 57.515625 
Q 6.6875 55.328125 6.6875 52.390625 
Q 6.6875 49.609375 8.546875 47.5 
Q 10.40625 45.40625 13.375 45.40625 
Q 16.265625 45.40625 18.140625 47.546875 
Q 20.015625 49.703125 20.015625 52.390625 
z
M 3.421875 52.484375 
Q 3.421875 56.6875 6.34375 59.59375 
Q 9.28125 62.5 13.375 62.5 
Q 17.484375 62.5 20.390625 59.59375 
Q 23.296875 56.6875 23.296875 52.484375 
Q 23.296875 48.390625 20.390625 45.484375 
Q 17.484375 42.578125 13.375 42.578125 
Q 9.28125 42.578125 6.34375 45.484375 
Q 3.421875 48.390625 3.421875 52.484375 
z
" id="LinBiolinum-176"/>
        <path d="M 37.984375 65.828125 
Q 43.40625 65.828125 48.84375 64.71875 
Q 54.296875 63.625 57.03125 62.453125 
L 59.8125 61.28125 
L 60.015625 60.984375 
Q 58.296875 53.8125 58.015625 49.90625 
L 56.984375 49.8125 
Q 51.375 61.078125 36.625 61.078125 
Q 33.296875 61.078125 29.796875 59.546875 
Q 26.3125 58.015625 22.984375 54.90625 
Q 19.671875 51.8125 17.578125 46.1875 
Q 15.484375 40.578125 15.484375 33.40625 
Q 15.484375 25.78125 17.9375 19.28125 
Q 20.40625 12.796875 25.75 8.453125 
Q 31.109375 4.109375 38.484375 4.109375 
Q 45.359375 4.109375 49.875 6.296875 
Q 54.390625 8.5 59.8125 14.40625 
L 62.203125 12.5 
Q 51.90625 -0.984375 37.59375 -0.984375 
Q 27.296875 -0.984375 19.75 3.84375 
Q 12.203125 8.6875 8.6875 15.9375 
Q 5.171875 23.1875 5.171875 31.5 
Q 5.171875 45.90625 15.078125 55.859375 
Q 25 65.828125 37.984375 65.828125 
z
" id="LinBiolinum-67"/>
       </defs>
       <use xlink:href="#LinBiolinum-65"/>
       <use x="62.890625" xlink:href="#LinBiolinum-118"/>
       <use x="108.544922" xlink:href="#LinBiolinum-101"/>
       <use x="153.808594" xlink:href="#LinBiolinum-114"/>
       <use x="189.306641" xlink:href="#LinBiolinum-97"/>
       <use x="237.402344" xlink:href="#LinBiolinum-103"/>
       <use x="287.255859" xlink:href="#LinBiolinum-101"/>
       <use x="332.519531" xlink:href="#LinBiolinum-32"/>
       <use x="357.519531" xlink:href="#LinBiolinum-73"/>
       <use x="386.914062" xlink:href="#LinBiolinum-110"/>
       <use x="440.771484" xlink:href="#LinBiolinum-116"/>
       <use x="474.755859" xlink:href="#LinBiolinum-101"/>
       <use x="520.019531" xlink:href="#LinBiolinum-114"/>
       <use x="555.517578" xlink:href="#LinBiolinum-108"/>
       <use x="580.712891" xlink:href="#LinBiolinum-97"/>
       <use x="628.808594" xlink:href="#LinBiolinum-121"/>
       <use x="679.394531" xlink:href="#LinBiolinum-101"/>
       <use x="724.658203" xlink:href="#LinBiolinum-114"/>
       <use x="760.15625" xlink:href="#LinBiolinum-116"/>
       <use x="794.140625" xlink:href="#LinBiolinum-101"/>
       <use x="839.404297" xlink:href="#LinBiolinum-109"/>
       <use x="920.068359" xlink:href="#LinBiolinum-112"/>
       <use x="972.363281" xlink:href="#LinBiolinum-101"/>
       <use x="1017.626953" xlink:href="#LinBiolinum-114"/>
       <use x="1053.125" xlink:href="#LinBiolinum-97"/>
       <use x="1101.220703" xlink:href="#LinBiolinum-116"/>
       <use x="1135.205078" xlink:href="#LinBiolinum-117"/>
       <use x="1188.867188" xlink:href="#LinBiolinum-114"/>
       <use x="1224.365234" xlink:href="#LinBiolinum-101"/>
       <use x="1269.628906" xlink:href="#LinBiolinum-32"/>
       <use x="1294.628906" xlink:href="#LinBiolinum-91"/>
       <use x="1330.712891" xlink:href="#LinBiolinum-176"/>
       <use x="1357.373047" xlink:href="#LinBiolinum-67"/>
       <use x="1425.048828" xlink:href="#LinBiolinum-93"/>
      </g>
     </g>
    </g>
    <g id="ytick_4">
     <g id="line2d_25">
      <path clip-path="url(#p652aca5a79)" d="M 189.53875 415.98 
L 995.93875 415.98 
" style="fill:none;stroke:#808080;stroke-dasharray:3.2,0.8,0.5,0.8;stroke-dashoffset:0;stroke-opacity:0.8;stroke-width:0.5;"/>
     </g>
     <g id="line2d_26">
      <g>
       <use style="stroke:#000000;stroke-width:0.8;" x="189.53875" xlink:href="#mb875367297" y="415.98"/>
      </g>
     </g>
     <g id="text_14">
      <!-- Scan Speed [mm/s] -->
      <g transform="translate(86.874375 420.19875)scale(0.12 -0.12)">
       <defs>
        <path d="M 24.21875 3.421875 
Q 28.90625 3.421875 32.390625 6.5625 
Q 35.890625 9.71875 35.890625 15.09375 
Q 35.890625 20.90625 32.890625 24.046875 
Q 29.890625 27.203125 24.21875 29.59375 
Q 20.515625 31.109375 17.890625 32.59375 
Q 15.28125 34.078125 12.59375 36.34375 
Q 9.90625 38.625 8.4375 41.640625 
Q 6.984375 44.671875 6.984375 48.484375 
Q 6.984375 53.65625 10.125 57.875 
Q 13.28125 62.109375 18.015625 64.109375 
Q 22.125 65.828125 26.609375 65.828125 
Q 31.78125 65.828125 35.734375 64.71875 
Q 39.703125 63.625 41.109375 62.453125 
L 42.484375 61.28125 
L 42.671875 60.984375 
Q 40.765625 54.6875 40.375 50.984375 
L 39.40625 50.875 
Q 37.40625 55.5625 33.640625 58.46875 
Q 29.890625 61.375 25.78125 61.375 
Q 21.96875 61.375 19.671875 60.203125 
Q 17.78125 59.234375 16.4375 56.5625 
Q 15.09375 53.90625 15.09375 51.21875 
Q 15.09375 48.34375 16.1875 46.015625 
Q 17.28125 43.703125 19.375 42.203125 
Q 21.484375 40.71875 23.140625 39.859375 
Q 24.8125 39.015625 27.296875 38.09375 
Q 45.21875 31.390625 45.21875 18.109375 
Q 45.21875 9.515625 39.015625 4.265625 
Q 32.8125 -0.984375 23.390625 -0.984375 
Q 18.21875 -0.984375 13.640625 0.109375 
Q 9.078125 1.21875 7.125 2.34375 
L 5.171875 3.515625 
L 4.984375 3.8125 
Q 6.984375 11.234375 7.328125 14.109375 
L 8.296875 14.203125 
Q 10.59375 9.8125 15.296875 6.609375 
Q 20.015625 3.421875 24.21875 3.421875 
z
" id="LinBiolinum-83"/>
        <path d="M 36.078125 11.28125 
L 36.078125 34.078125 
Q 34.1875 37.0625 32.078125 38.46875 
Q 29.984375 39.890625 26.609375 39.890625 
Q 24.515625 39.890625 22.515625 39.125 
Q 20.515625 38.375 18.40625 36.640625 
Q 16.3125 34.90625 15.0625 31.140625 
Q 13.8125 27.390625 13.8125 22.125 
Q 13.8125 13.234375 16.59375 8.71875 
Q 19.390625 4.203125 23.78125 4.203125 
Q 30.46875 4.203125 36.078125 11.28125 
z
M 36.078125 5.8125 
Q 30.765625 -0.984375 23.1875 -0.984375 
Q 15.1875 -0.984375 10.125 5.46875 
Q 5.078125 11.921875 5.078125 21.296875 
Q 5.078125 31.390625 11.453125 37.640625 
Q 17.828125 43.890625 27.6875 43.890625 
Q 32.171875 43.890625 36.078125 41.703125 
L 36.078125 48.1875 
Q 36.078125 62.5 35.203125 67.484375 
L 35.40625 67.828125 
Q 39.890625 68.109375 44.09375 69.828125 
Q 44.96875 69.828125 45.015625 68.796875 
Q 44.140625 57.71875 44.09375 50 
L 44.09375 19.1875 
Q 44.09375 9.078125 45.796875 0 
L 45.609375 -0.296875 
Q 43.609375 0 41.15625 0 
Q 39.984375 0 37.703125 -0.296875 
Q 36.8125 -0.296875 36.8125 0 
L 36.28125 5.8125 
z
" id="LinBiolinum-100"/>
        <path d="M 29.296875 64.59375 
L 5.609375 -5.90625 
L 1.515625 -5.90625 
L 25.203125 64.59375 
z
" id="LinBiolinum-47"/>
       </defs>
       <use xlink:href="#LinBiolinum-83"/>
       <use x="50.585938" xlink:href="#LinBiolinum-99"/>
       <use x="93.457031" xlink:href="#LinBiolinum-97"/>
       <use x="141.552734" xlink:href="#LinBiolinum-110"/>
       <use x="195.410156" xlink:href="#LinBiolinum-32"/>
       <use x="220.410156" xlink:href="#LinBiolinum-83"/>
       <use x="270.996094" xlink:href="#LinBiolinum-112"/>
       <use x="323.291016" xlink:href="#LinBiolinum-101"/>
       <use x="368.554688" xlink:href="#LinBiolinum-101"/>
       <use x="413.818359" xlink:href="#LinBiolinum-100"/>
       <use x="466.796875" xlink:href="#LinBiolinum-32"/>
       <use x="491.796875" xlink:href="#LinBiolinum-91"/>
       <use x="527.880859" xlink:href="#LinBiolinum-109"/>
       <use x="608.544922" xlink:href="#LinBiolinum-109"/>
       <use x="689.208984" xlink:href="#LinBiolinum-47"/>
       <use x="721.484375" xlink:href="#LinBiolinum-115"/>
       <use x="761.083984" xlink:href="#LinBiolinum-93"/>
      </g>
     </g>
    </g>
    <g id="ytick_5">
     <g id="line2d_27">
      <path clip-path="url(#p652aca5a79)" d="M 189.53875 510.48 
L 995.93875 510.48 
" style="fill:none;stroke:#808080;stroke-dasharray:3.2,0.8,0.5,0.8;stroke-dashoffset:0;stroke-opacity:0.8;stroke-width:0.5;"/>
     </g>
     <g id="line2d_28">
      <g>
       <use style="stroke:#000000;stroke-width:0.8;" x="189.53875" xlink:href="#mb875367297" y="510.48"/>
      </g>
     </g>
     <g id="text_15">
      <!-- Hatch distance [mm] -->
      <g transform="translate(77.113125 514.669687)scale(0.12 -0.12)">
       <defs>
        <path d="M 53.609375 44.484375 
Q 53.609375 57.375 52.59375 64.5 
L 52.78125 64.796875 
Q 54.59375 64.5 57.90625 64.5 
Q 61.328125 64.5 63.09375 64.796875 
L 63.1875 64.5 
Q 62.203125 57.90625 62.203125 44.484375 
L 62.203125 20.015625 
Q 62.203125 7.125 63.1875 0 
L 62.984375 -0.296875 
Q 61.1875 0 57.90625 0 
Q 54.5 0 52.6875 -0.296875 
L 52.59375 0 
Q 53.5625 6.78125 53.609375 20.015625 
L 53.609375 32.078125 
L 19 32.078125 
L 19 20.015625 
Q 19 7.125 20.015625 0 
L 19.828125 -0.296875 
Q 18.015625 0 14.703125 0 
Q 11.28125 0 9.515625 -0.296875 
L 9.421875 0 
Q 10.40625 6.78125 10.40625 20.015625 
L 10.40625 44.484375 
Q 10.40625 57.375 9.421875 64.5 
L 9.625 64.796875 
Q 11.421875 64.5 14.703125 64.5 
Q 18.109375 64.5 19.921875 64.796875 
L 20.015625 64.5 
Q 19.046875 57.90625 19 44.484375 
L 19 36.53125 
L 53.609375 36.53125 
z
" id="LinBiolinum-72"/>
        <path d="M 17 35.203125 
L 17.1875 34.90625 
Q 24.90625 43.890625 34.515625 43.890625 
Q 41.109375 43.890625 44.015625 39.984375 
Q 46.921875 36.078125 46.921875 28.078125 
Q 46.921875 26.46875 46.796875 23.015625 
Q 46.6875 19.578125 46.6875 18.015625 
Q 46.6875 6.390625 47.609375 0 
L 47.40625 -0.296875 
Q 45.609375 0 42.703125 0 
Q 39.796875 0 37.984375 -0.296875 
L 37.796875 0 
Q 38.671875 6.109375 38.71875 18.015625 
L 38.71875 27.78125 
Q 38.71875 33.6875 37.109375 35.78125 
Q 35.5 37.890625 31.5 37.890625 
Q 28.515625 37.890625 24.515625 35.890625 
Q 20.515625 33.890625 17 29.6875 
L 17 18.015625 
Q 17 6.9375 17.921875 0 
L 17.671875 -0.296875 
Q 15.875 0 12.984375 0 
Q 10.109375 0 8.296875 -0.296875 
L 8.109375 0 
Q 8.984375 6.5 8.984375 18.015625 
L 8.984375 48.09375 
Q 8.984375 62.5 8.109375 67.484375 
L 8.296875 67.828125 
Q 12.796875 68.109375 17 69.828125 
Q 17.875 69.828125 17.921875 68.796875 
Q 17.046875 57.28125 17 50.09375 
z
" id="LinBiolinum-104"/>
       </defs>
       <use xlink:href="#LinBiolinum-72"/>
       <use x="72.558594" xlink:href="#LinBiolinum-97"/>
       <use x="120.654297" xlink:href="#LinBiolinum-116"/>
       <use x="154.638672" xlink:href="#LinBiolinum-99"/>
       <use x="197.509766" xlink:href="#LinBiolinum-104"/>
       <use x="252.392578" xlink:href="#LinBiolinum-32"/>
       <use x="277.392578" xlink:href="#LinBiolinum-100"/>
       <use x="330.371094" xlink:href="#LinBiolinum-105"/>
       <use x="356.347656" xlink:href="#LinBiolinum-115"/>
       <use x="395.947266" xlink:href="#LinBiolinum-116"/>
       <use x="429.931641" xlink:href="#LinBiolinum-97"/>
       <use x="478.027344" xlink:href="#LinBiolinum-110"/>
       <use x="531.884766" xlink:href="#LinBiolinum-99"/>
       <use x="574.755859" xlink:href="#LinBiolinum-101"/>
       <use x="620.019531" xlink:href="#LinBiolinum-32"/>
       <use x="645.019531" xlink:href="#LinBiolinum-91"/>
       <use x="681.103516" xlink:href="#LinBiolinum-109"/>
       <use x="761.767578" xlink:href="#LinBiolinum-109"/>
       <use x="842.431641" xlink:href="#LinBiolinum-93"/>
      </g>
     </g>
    </g>
   </g>
   <g id="LineCollection_1">
    <path clip-path="url(#p652aca5a79)" d="M 456.40542 132.48 
L 959.284205 132.48 
" style="fill:none;stroke:#000000;stroke-width:1.5;"/>
   </g>
   <g id="LineCollection_2">
    <path clip-path="url(#p652aca5a79)" d="M 400.199201 226.98 
L 663.32035 226.98 
" style="fill:none;stroke:#000000;stroke-width:1.5;"/>
    <path clip-path="url(#p652aca5a79)" d="M 227.185835 321.48 
L 373.27112 321.48 
" style="fill:none;stroke:#000000;stroke-width:1.5;"/>
    <path clip-path="url(#p652aca5a79)" d="M 226.193295 415.98 
L 371.913371 415.98 
" style="fill:none;stroke:#000000;stroke-width:1.5;"/>
    <path clip-path="url(#p652aca5a79)" d="M 252.92228 510.48 
L 255.335775 510.48 
" style="fill:none;stroke:#000000;stroke-width:1.5;"/>
   </g>
   <g id="line2d_29">
    <path clip-path="url(#p652aca5a79)" d="M 254.237052 570.96 
L 254.237052 72 
" style="fill:none;stroke:#000000;stroke-linecap:square;stroke-width:0.5;"/>
   </g>
   <g id="patch_8">
    <path d="M 189.53875 570.96 
L 189.53875 72 
" style="fill:none;stroke:#000000;stroke-linecap:square;stroke-linejoin:miter;stroke-width:0.8;"/>
   </g>
   <g id="patch_9">
    <path d="M 995.93875 570.96 
L 995.93875 72 
" style="fill:none;stroke:#000000;stroke-linecap:square;stroke-linejoin:miter;stroke-width:0.8;"/>
   </g>
   <g id="patch_10">
    <path d="M 189.53875 570.96 
L 995.93875 570.96 
" style="fill:none;stroke:#000000;stroke-linecap:square;stroke-linejoin:miter;stroke-width:0.8;"/>
   </g>
   <g id="patch_11">
    <path d="M 189.53875 72 
L 995.93875 72 
" style="fill:none;stroke:#000000;stroke-linecap:square;stroke-linejoin:miter;stroke-width:0.8;"/>
   </g>
   <g id="legend_1">
    <g id="patch_12">
     <path d="M 717.59875 133.254375 
L 987.53875 133.254375 
Q 989.93875 133.254375 989.93875 130.854375 
L 989.93875 80.4 
Q 989.93875 78 987.53875 78 
L 717.59875 78 
Q 715.19875 78 715.19875 80.4 
L 715.19875 130.854375 
Q 715.19875 133.254375 717.59875 133.254375 
z
" style="fill:#ffffff;opacity:0.8;stroke:#cccccc;stroke-linejoin:miter;"/>
    </g>
    <g id="patch_13">
     <path d="M 719.99875 91.2 
L 743.99875 91.2 
L 743.99875 82.8 
L 719.99875 82.8 
z
" style="fill:#228b22;stroke:#228b22;stroke-linejoin:miter;"/>
    </g>
    <g id="text_16">
     <!-- Acceptable Mean Permutation Importance -->
     <g transform="translate(753.59875 91.2)scale(0.12 -0.12)">
      <defs>
       <path d="M 16.21875 8.109375 
Q 17.828125 6.109375 20.3125 4.546875 
Q 22.796875 2.984375 25 2.984375 
Q 31.890625 2.984375 35.03125 7.890625 
Q 38.1875 12.796875 38.1875 22.40625 
Q 38.1875 31.203125 34.9375 35.546875 
Q 31.6875 39.890625 26.703125 39.890625 
Q 23.828125 39.890625 21.609375 38.546875 
Q 19.390625 37.203125 16.21875 33.984375 
z
M 16.21875 50 
L 16.21875 38.921875 
Q 20.796875 43.890625 28.71875 43.890625 
Q 36.234375 43.890625 41.671875 37.984375 
Q 47.125 32.078125 47.125 23.1875 
Q 47.125 11.375 40.65625 5.1875 
Q 34.1875 -0.984375 25.59375 -0.984375 
Q 19.484375 -0.984375 13.8125 3.90625 
Q 12.203125 0.921875 10.5 -0.984375 
Q 8.5 -0.984375 7.71875 -0.203125 
Q 8.203125 2.390625 8.203125 7.328125 
L 8.203125 48.1875 
Q 8.203125 60.796875 6.984375 67.484375 
L 7.171875 67.828125 
Q 11.671875 68.109375 15.921875 69.828125 
Q 16.796875 69.828125 16.796875 68.796875 
Q 16.21875 60.984375 16.21875 50 
z
" id="LinBiolinum-98"/>
      </defs>
      <use xlink:href="#LinBiolinum-65"/>
      <use x="62.890625" xlink:href="#LinBiolinum-99"/>
      <use x="105.761719" xlink:href="#LinBiolinum-99"/>
      <use x="148.632812" xlink:href="#LinBiolinum-101"/>
      <use x="193.896484" xlink:href="#LinBiolinum-112"/>
      <use x="246.191406" xlink:href="#LinBiolinum-116"/>
      <use x="280.175781" xlink:href="#LinBiolinum-97"/>
      <use x="328.271484" xlink:href="#LinBiolinum-98"/>
      <use x="378.662109" xlink:href="#LinBiolinum-108"/>
      <use x="403.857422" xlink:href="#LinBiolinum-101"/>
      <use x="449.121094" xlink:href="#LinBiolinum-32"/>
      <use x="474.121094" xlink:href="#LinBiolinum-77"/>
      <use x="562.695312" xlink:href="#LinBiolinum-101"/>
      <use x="607.958984" xlink:href="#LinBiolinum-97"/>
      <use x="656.054688" xlink:href="#LinBiolinum-110"/>
      <use x="709.912109" xlink:href="#LinBiolinum-32"/>
      <use x="734.912109" xlink:href="#LinBiolinum-80"/>
      <use x="790.771484" xlink:href="#LinBiolinum-101"/>
      <use x="836.035156" xlink:href="#LinBiolinum-114"/>
      <use x="871.533203" xlink:href="#LinBiolinum-109"/>
      <use x="952.197266" xlink:href="#LinBiolinum-117"/>
      <use x="1005.859375" xlink:href="#LinBiolinum-116"/>
      <use x="1039.84375" xlink:href="#LinBiolinum-97"/>
      <use x="1087.939453" xlink:href="#LinBiolinum-116"/>
      <use x="1121.923828" xlink:href="#LinBiolinum-105"/>
      <use x="1147.900391" xlink:href="#LinBiolinum-111"/>
      <use x="1197.900391" xlink:href="#LinBiolinum-110"/>
      <use x="1251.757812" xlink:href="#LinBiolinum-32"/>
      <use x="1276.757812" xlink:href="#LinBiolinum-73"/>
      <use x="1306.152344" xlink:href="#LinBiolinum-109"/>
      <use x="1386.816406" xlink:href="#LinBiolinum-112"/>
      <use x="1439.111328" xlink:href="#LinBiolinum-111"/>
      <use x="1489.111328" xlink:href="#LinBiolinum-114"/>
      <use x="1524.609375" xlink:href="#LinBiolinum-116"/>
      <use x="1558.59375" xlink:href="#LinBiolinum-97"/>
      <use x="1606.689453" xlink:href="#LinBiolinum-110"/>
      <use x="1660.546875" xlink:href="#LinBiolinum-99"/>
      <use x="1703.417969" xlink:href="#LinBiolinum-101"/>
     </g>
    </g>
    <g id="patch_14">
     <path d="M 719.99875 108.418125 
L 743.99875 108.418125 
L 743.99875 100.018125 
L 719.99875 100.018125 
z
" style="fill:#b22222;stroke:#b22222;stroke-linejoin:miter;"/>
    </g>
    <g id="text_17">
     <!-- Not Acceptable Mean Permutation Importance -->
     <g transform="translate(753.59875 108.418125)scale(0.12 -0.12)">
      <defs>
       <path d="M 10.796875 64.5 
L 10.984375 64.796875 
Q 11.765625 64.5 15.1875 64.5 
Q 15.1875 64.5 16.609375 64.703125 
L 50.875 20.3125 
Q 54.890625 15.140625 55.609375 14.796875 
Q 56.34375 14.453125 56.59375 15.71875 
Q 56.734375 16.453125 56.78125 17.828125 
L 56.78125 44.484375 
Q 56.78125 57.375 55.8125 64.5 
L 56 64.796875 
Q 57.8125 64.5 59.5 64.5 
Q 61.1875 64.5 62.984375 64.796875 
L 63.1875 64.5 
Q 62.59375 56.6875 62.25 48.140625 
Q 61.921875 39.59375 61.8125 33.953125 
Q 61.71875 28.328125 61.5 17.921875 
Q 61.28125 7.515625 61.1875 2.09375 
Q 60.984375 -0.984375 59.28125 -0.984375 
Q 56.78125 -0.984375 54.984375 1.421875 
L 20.125 45.515625 
Q 18.609375 47.515625 17.890625 48.265625 
Q 17.1875 49.03125 16.75 48.75 
Q 16.3125 48.484375 16.265625 47.484375 
Q 16.21875 46.484375 16.21875 43.890625 
L 16.21875 20.015625 
Q 16.21875 7.125 17.1875 0 
L 17 -0.296875 
Q 15.1875 0 13.5 0 
Q 11.8125 0 10.015625 -0.296875 
L 9.8125 0 
Q 11.03125 11.625 11.25 31.109375 
Q 11.46875 50.59375 10.796875 64.5 
z
" id="LinBiolinum-78"/>
      </defs>
      <use xlink:href="#LinBiolinum-78"/>
      <use x="71.777344" xlink:href="#LinBiolinum-111"/>
      <use x="121.777344" xlink:href="#LinBiolinum-116"/>
      <use x="155.761719" xlink:href="#LinBiolinum-32"/>
      <use x="180.761719" xlink:href="#LinBiolinum-65"/>
      <use x="243.652344" xlink:href="#LinBiolinum-99"/>
      <use x="286.523438" xlink:href="#LinBiolinum-99"/>
      <use x="329.394531" xlink:href="#LinBiolinum-101"/>
      <use x="374.658203" xlink:href="#LinBiolinum-112"/>
      <use x="426.953125" xlink:href="#LinBiolinum-116"/>
      <use x="460.9375" xlink:href="#LinBiolinum-97"/>
      <use x="509.033203" xlink:href="#LinBiolinum-98"/>
      <use x="559.423828" xlink:href="#LinBiolinum-108"/>
      <use x="584.619141" xlink:href="#LinBiolinum-101"/>
      <use x="629.882812" xlink:href="#LinBiolinum-32"/>
      <use x="654.882812" xlink:href="#LinBiolinum-77"/>
      <use x="743.457031" xlink:href="#LinBiolinum-101"/>
      <use x="788.720703" xlink:href="#LinBiolinum-97"/>
      <use x="836.816406" xlink:href="#LinBiolinum-110"/>
      <use x="890.673828" xlink:href="#LinBiolinum-32"/>
      <use x="915.673828" xlink:href="#LinBiolinum-80"/>
      <use x="971.533203" xlink:href="#LinBiolinum-101"/>
      <use x="1016.796875" xlink:href="#LinBiolinum-114"/>
      <use x="1052.294922" xlink:href="#LinBiolinum-109"/>
      <use x="1132.958984" xlink:href="#LinBiolinum-117"/>
      <use x="1186.621094" xlink:href="#LinBiolinum-116"/>
      <use x="1220.605469" xlink:href="#LinBiolinum-97"/>
      <use x="1268.701172" xlink:href="#LinBiolinum-116"/>
      <use x="1302.685547" xlink:href="#LinBiolinum-105"/>
      <use x="1328.662109" xlink:href="#LinBiolinum-111"/>
      <use x="1378.662109" xlink:href="#LinBiolinum-110"/>
      <use x="1432.519531" xlink:href="#LinBiolinum-32"/>
      <use x="1457.519531" xlink:href="#LinBiolinum-73"/>
      <use x="1486.914062" xlink:href="#LinBiolinum-109"/>
      <use x="1567.578125" xlink:href="#LinBiolinum-112"/>
      <use x="1619.873047" xlink:href="#LinBiolinum-111"/>
      <use x="1669.873047" xlink:href="#LinBiolinum-114"/>
      <use x="1705.371094" xlink:href="#LinBiolinum-116"/>
      <use x="1739.355469" xlink:href="#LinBiolinum-97"/>
      <use x="1787.451172" xlink:href="#LinBiolinum-110"/>
      <use x="1841.308594" xlink:href="#LinBiolinum-99"/>
      <use x="1884.179688" xlink:href="#LinBiolinum-101"/>
     </g>
    </g>
    <g id="line2d_30">
     <path d="M 719.99875 121.43625 
L 743.99875 121.43625 
" style="fill:none;stroke:#000000;stroke-linecap:square;"/>
    </g>
    <g id="line2d_31"/>
    <g id="text_18">
     <!-- Standart Derivation of Importances -->
     <g transform="translate(753.59875 125.63625)scale(0.12 -0.12)">
      <defs>
       <path d="M 9.90625 42.921875 
L 9.90625 46.78125 
Q 9.90625 55.171875 15.375 62.109375 
Q 18.171875 65.71875 22.625 67.765625 
Q 27.09375 69.828125 31.78125 69.828125 
Q 34.671875 69.828125 36.28125 68.796875 
L 36.375 68.5 
Q 34.859375 65.53125 33.59375 60.296875 
L 32.515625 60.203125 
Q 30.609375 63.71875 26.703125 63.71875 
Q 22.40625 63.71875 19.890625 61.15625 
Q 17.390625 58.59375 17.390625 54.390625 
Q 17.390625 53.71875 17.65625 49.75 
Q 17.921875 45.796875 17.921875 43.796875 
L 17.921875 42.921875 
L 22.21875 42.921875 
Q 25 42.921875 29.203125 43.109375 
L 29.6875 42.390625 
Q 28.90625 40.375 28.515625 38.28125 
Q 26.515625 38.484375 21.296875 38.484375 
L 17.921875 38.484375 
L 17.921875 19.921875 
Q 17.921875 6.734375 18.890625 0 
L 18.703125 -0.296875 
Q 16.890625 0 13.890625 0 
Q 10.890625 0 9.078125 -0.296875 
L 8.890625 0 
Q 9.859375 6.296875 9.90625 19.921875 
L 9.90625 38.484375 
L 9.8125 38.484375 
Q 5.21875 38.484375 2.390625 38.28125 
L 1.90625 39.015625 
Q 3.328125 41.21875 4.109375 43.109375 
Q 5.609375 42.921875 9.90625 42.921875 
z
" id="LinBiolinum-102"/>
      </defs>
      <use xlink:href="#LinBiolinum-83"/>
      <use x="50.585938" xlink:href="#LinBiolinum-116"/>
      <use x="84.570312" xlink:href="#LinBiolinum-97"/>
      <use x="132.666016" xlink:href="#LinBiolinum-110"/>
      <use x="186.523438" xlink:href="#LinBiolinum-100"/>
      <use x="239.501953" xlink:href="#LinBiolinum-97"/>
      <use x="287.597656" xlink:href="#LinBiolinum-114"/>
      <use x="323.095703" xlink:href="#LinBiolinum-116"/>
      <use x="357.080078" xlink:href="#LinBiolinum-32"/>
      <use x="382.080078" xlink:href="#LinBiolinum-68"/>
      <use x="453.076172" xlink:href="#LinBiolinum-101"/>
      <use x="498.339844" xlink:href="#LinBiolinum-114"/>
      <use x="533.837891" xlink:href="#LinBiolinum-105"/>
      <use x="559.814453" xlink:href="#LinBiolinum-118"/>
      <use x="605.46875" xlink:href="#LinBiolinum-97"/>
      <use x="653.564453" xlink:href="#LinBiolinum-116"/>
      <use x="687.548828" xlink:href="#LinBiolinum-105"/>
      <use x="713.525391" xlink:href="#LinBiolinum-111"/>
      <use x="763.525391" xlink:href="#LinBiolinum-110"/>
      <use x="817.382812" xlink:href="#LinBiolinum-32"/>
      <use x="842.382812" xlink:href="#LinBiolinum-111"/>
      <use x="892.382812" xlink:href="#LinBiolinum-102"/>
      <use x="923.779297" xlink:href="#LinBiolinum-32"/>
      <use x="948.779297" xlink:href="#LinBiolinum-73"/>
      <use x="978.173828" xlink:href="#LinBiolinum-109"/>
      <use x="1058.837891" xlink:href="#LinBiolinum-112"/>
      <use x="1111.132812" xlink:href="#LinBiolinum-111"/>
      <use x="1161.132812" xlink:href="#LinBiolinum-114"/>
      <use x="1196.630859" xlink:href="#LinBiolinum-116"/>
      <use x="1230.615234" xlink:href="#LinBiolinum-97"/>
      <use x="1278.710938" xlink:href="#LinBiolinum-110"/>
      <use x="1332.568359" xlink:href="#LinBiolinum-99"/>
      <use x="1375.439453" xlink:href="#LinBiolinum-101"/>
      <use x="1420.703125" xlink:href="#LinBiolinum-115"/>
     </g>
    </g>
   </g>
  </g>
  <g id="text_19">
   <!-- 3D Visualisation of Permutation Importance  -->
   <g transform="translate(359.7832 19.2663)scale(0.1728 -0.1728)">
    <defs>
     <path d="M 21.296875 3.078125 
Q 24.90625 3.078125 28.203125 6.546875 
Q 31.5 10.015625 31.5 17.671875 
Q 31.5 29.390625 20.21875 29.390625 
Q 16.5 29.390625 15.28125 29.203125 
L 15.28125 33.203125 
Q 31.109375 34.328125 31.109375 46.578125 
Q 31.109375 50.484375 28.484375 53.625 
Q 25.875 56.78125 22.90625 56.78125 
Q 18.3125 56.78125 16.109375 54.625 
Q 13.921875 52.484375 11.28125 47.015625 
L 6.890625 47.125 
L 4.78125 54.984375 
L 5.078125 55.421875 
Q 7.375 57.421875 12.59375 59.203125 
Q 17.828125 60.984375 23.78125 60.984375 
Q 43.796875 60.984375 43.796875 48.1875 
Q 43.796875 42.1875 40.25 38.296875 
Q 36.71875 34.421875 30.90625 32.90625 
L 30.90625 32.625 
Q 37.3125 32.03125 42 28.3125 
Q 46.6875 24.609375 46.6875 18.015625 
Q 46.6875 9.125 39.421875 4 
Q 32.171875 -1.125 21.09375 -1.125 
Q 10.40625 -1.125 4 4.5 
L 3.609375 4.984375 
L 5.8125 12.890625 
L 10.203125 12.984375 
Q 10.796875 11.859375 11.84375 9.734375 
Q 12.890625 7.625 13.40625 6.859375 
Q 13.921875 6.109375 15.0625 4.953125 
Q 16.21875 3.8125 17.65625 3.4375 
Q 19.09375 3.078125 21.296875 3.078125 
z
" id="LinBiolinumB-51"/>
     <path d="M 24.515625 10.109375 
Q 24.515625 7.625 26.65625 6.34375 
Q 28.8125 5.078125 34.28125 5.078125 
Q 39.890625 5.078125 43.5 6.03125 
Q 47.125 6.984375 49.796875 9.640625 
Q 52.484375 12.3125 53.625 17.109375 
Q 54.78125 21.921875 54.78125 29.390625 
Q 54.78125 34.90625 54.484375 38.546875 
Q 54.203125 42.1875 52.90625 46.53125 
Q 51.609375 50.875 49.265625 53.4375 
Q 46.921875 56 42.5 57.75 
Q 38.09375 59.515625 31.78125 59.515625 
Q 24.46875 59.515625 24.515625 54.5 
z
M 17.484375 64.5 
Q 21 64.5 26.53125 64.640625 
Q 32.078125 64.796875 35.59375 64.796875 
Q 50.296875 64.796875 60.59375 55.484375 
Q 70.90625 46.1875 70.90625 31.78125 
Q 70.90625 24.703125 68.75 19.03125 
Q 66.609375 13.375 63.203125 9.875 
Q 59.8125 6.390625 55.25 4.046875 
Q 50.6875 1.703125 46.28125 0.75 
Q 41.890625 -0.203125 37.390625 -0.203125 
Q 32.90625 -0.203125 27.09375 -0.09375 
Q 21.296875 0 17.484375 0 
L 8.984375 -0.296875 
L 8.890625 0 
Q 10.109375 8.109375 10.109375 20.015625 
L 10.109375 44.484375 
Q 10.109375 56 8.890625 64.5 
L 9.078125 64.796875 
Q 14.0625 64.5 17.484375 64.5 
z
" id="LinBiolinumB-68"/>
     <path id="LinBiolinumB-32"/>
     <path d="M 36.421875 17.875 
Q 51.703125 53.21875 54.78125 64.796875 
Q 56 64.5 60.59375 64.5 
Q 64.203125 64.5 65.375 64.796875 
Q 43.453125 17 35.890625 -0.6875 
L 29 -0.6875 
Q 25.78125 7.03125 19.375 22.65625 
Q 12.984375 38.28125 8.390625 49.28125 
Q 3.8125 60.296875 1.609375 64.796875 
Q 3.328125 64.5 11.71875 64.5 
Q 17.625 64.5 19.28125 64.796875 
Q 25.046875 44.78125 36.421875 17.875 
z
" id="LinBiolinumB-86"/>
     <path d="M 12.59375 53.8125 
Q 8.5 57.8125 8.5 60.71875 
Q 8.5 63.625 10.546875 65.59375 
Q 12.59375 67.578125 15.59375 67.578125 
Q 18.609375 67.578125 20.65625 65.59375 
Q 22.703125 63.625 22.703125 60.71875 
Q 22.703125 57.8125 20.65625 55.8125 
Q 18.609375 53.8125 15.59375 53.8125 
Q 12.59375 53.8125 8.5 57.8125 
z
M 8.984375 23.484375 
Q 8.984375 37.40625 8.015625 42.828125 
L 8.296875 43.21875 
Q 12.40625 42.921875 15.375 42.921875 
Q 18.890625 42.921875 22.3125 43.40625 
Q 23.1875 43.40625 23.1875 42.390625 
Q 22.21875 32.859375 22.21875 24.609375 
L 22.21875 18.015625 
Q 22.21875 7.125 23.1875 0 
L 23 -0.296875 
Q 20.21875 0 15.578125 0 
Q 10.890625 0 8.203125 -0.296875 
L 8.015625 0 
Q 8.984375 6.78125 8.984375 18.015625 
z
" id="LinBiolinumB-105"/>
     <path d="M 5.421875 11.28125 
L 8.40625 11.375 
Q 12.5 3.375 19.09375 3.421875 
Q 21.390625 3.421875 22.625 3.609375 
Q 23.875 3.8125 24.921875 4.953125 
Q 25.984375 6.109375 25.984375 8.296875 
Q 25.984375 11.1875 24.09375 13.078125 
Q 22.21875 14.984375 16.5 18.109375 
Q 11.421875 20.90625 8.65625 23.953125 
Q 5.90625 27 5.90625 31.78125 
Q 5.90625 37.40625 10.8125 40.640625 
Q 15.71875 43.890625 22.796875 43.890625 
Q 31.390625 43.890625 36.078125 41.3125 
L 36.28125 41.015625 
L 34.421875 31.984375 
L 31.6875 31.890625 
Q 28.171875 39.40625 22.609375 39.40625 
Q 17.71875 39.40625 17.671875 34.515625 
Q 17.671875 32.328125 19.1875 30.859375 
Q 20.703125 29.390625 23.6875 27.78125 
Q 24.078125 27.59375 26.296875 26.4375 
Q 28.515625 25.296875 29 25 
Q 29.5 24.703125 31.25 23.609375 
Q 33.015625 22.515625 33.546875 21.90625 
Q 34.078125 21.296875 35.21875 20.09375 
Q 36.375 18.890625 36.734375 17.84375 
Q 37.109375 16.796875 37.5 15.359375 
Q 37.890625 13.921875 37.890625 12.203125 
Q 37.890625 6.59375 33.25 2.796875 
Q 28.609375 -0.984375 19.390625 -0.984375 
Q 11.078125 -0.984375 3.8125 1.703125 
z
" id="LinBiolinumB-115"/>
     <path d="M 37.203125 6.390625 
Q 30.328125 -1.03125 20.40625 -0.984375 
Q 13.53125 -0.984375 10.25 2.890625 
Q 6.984375 6.78125 7.078125 12.59375 
L 7.328125 24.90625 
Q 7.421875 33.890625 6.5 42.921875 
L 6.6875 43.21875 
Q 10.296875 42.921875 13.71875 42.921875 
L 21.1875 43.21875 
L 21.296875 42.921875 
Q 20.796875 37.59375 20.515625 24.90625 
L 20.3125 15.921875 
Q 20.21875 10.296875 21.703125 8.484375 
Q 23.1875 6.6875 25.984375 6.6875 
Q 29.6875 6.6875 33.4375 9.734375 
Q 37.203125 12.796875 37.203125 16.890625 
L 37.203125 24.90625 
Q 37.203125 37.3125 36.53125 42.921875 
L 36.71875 43.21875 
Q 40.140625 42.921875 43.5 42.921875 
L 51.21875 43.21875 
L 51.3125 42.921875 
Q 50.4375 37.59375 50.390625 24.90625 
L 50.390625 19.1875 
Q 50.390625 9.078125 52.09375 0 
L 51.90625 -0.296875 
Q 49.90625 0 44.53125 0 
Q 41.0625 0 38.8125 -0.296875 
Q 37.9375 -0.296875 37.890625 0 
L 37.40625 6.390625 
z
" id="LinBiolinumB-117"/>
     <path d="M 31.109375 22.21875 
L 23.09375 20.125 
Q 16.796875 18.40625 16.796875 10.6875 
Q 16.796875 8.59375 18.3125 6.78125 
Q 19.828125 4.984375 22.015625 4.984375 
Q 26.03125 4.984375 29.390625 8.40625 
Q 29.890625 8.890625 30.390625 10.40625 
Q 30.90625 11.921875 30.90625 12.890625 
z
M 43.703125 8.015625 
Q 43.703125 5.71875 45.046875 5.046875 
Q 46.390625 4.390625 49.8125 4.390625 
Q 50.59375 3.71875 50.78125 2.296875 
Q 46.484375 -1.03125 38.921875 -0.984375 
Q 35.6875 -0.984375 33.875 0.359375 
Q 32.078125 1.703125 31 4.78125 
L 30.8125 4.78125 
Q 25 -1.03125 17.09375 -0.984375 
Q 11.46875 -0.984375 7.4375 1.953125 
Q 3.421875 4.890625 3.421875 9.8125 
Q 3.421875 14.890625 7.46875 18.59375 
Q 11.53125 22.3125 18.796875 24.03125 
L 30.515625 27.09375 
Q 31.109375 27.296875 31.109375 28.328125 
Q 31.109375 33.9375 29.390625 36.203125 
Q 27.6875 38.484375 24.21875 38.484375 
Q 17.328125 38.484375 11.921875 30.609375 
L 8.59375 30.71875 
L 6.59375 38.1875 
L 6.890625 38.625 
Q 8.890625 40.328125 14.9375 42.109375 
Q 21 43.890625 26.125 43.890625 
Q 30.125 43.890625 34 42.890625 
Q 37.890625 41.890625 40.09375 39.890625 
Q 44.09375 36.28125 44.09375 27.6875 
Q 44.09375 27.390625 43.890625 18.546875 
Q 43.703125 9.71875 43.703125 8.015625 
z
" id="LinBiolinumB-97"/>
     <path d="M 8.59375 20.015625 
L 8.59375 47.40625 
Q 8.59375 59.515625 7.421875 66.21875 
L 7.625 66.5 
Q 10.40625 66.703125 15.109375 67.84375 
Q 19.828125 69 21.921875 69.828125 
Q 23.046875 69.828125 23 68.796875 
Q 21.78125 59.1875 21.78125 50 
L 21.78125 20.015625 
Q 21.78125 8.015625 23 0 
L 22.796875 -0.296875 
Q 18.609375 0 15.1875 0 
L 7.515625 -0.296875 
L 7.421875 0 
Q 8.59375 7.625 8.59375 20.015625 
z
" id="LinBiolinumB-108"/>
     <path d="M 8.984375 42.921875 
Q 8.984375 49.8125 9.421875 52.984375 
L 9.625 53.328125 
Q 11.421875 53.71875 13.625 54.5625 
Q 15.828125 55.421875 18.5 56.5625 
Q 21.1875 57.71875 21.484375 57.8125 
Q 22.359375 57.8125 22.40625 56.78125 
Q 21.921875 50.875 21.921875 42.921875 
L 26.609375 42.921875 
Q 30.125 42.921875 33.59375 43.21875 
L 34.078125 42.390625 
Q 33.109375 39.984375 32.90625 37.703125 
Q 30.90625 37.890625 25.6875 37.890625 
L 21.921875 37.890625 
L 21.6875 27.203125 
Q 21.578125 21.734375 21.578125 13.09375 
Q 21.578125 9.671875 22.484375 7.390625 
Q 23.390625 5.125 25.296875 5.125 
Q 28.71875 5.125 31.109375 6.296875 
Q 32.8125 5.21875 32.8125 2.484375 
Q 27 -1.03125 18.109375 -0.984375 
Q 13.625 -0.984375 11.015625 1.96875 
Q 8.40625 4.9375 8.40625 8.796875 
Q 8.40625 14.109375 8.6875 26.125 
L 8.984375 37.890625 
Q 4.296875 37.890625 1.90625 37.703125 
L 1.421875 38.375 
Q 2.734375 40.375 3.609375 43.21875 
Q 5.765625 42.921875 8.984375 42.921875 
z
" id="LinBiolinumB-116"/>
     <path d="M 4.109375 20.515625 
Q 4.109375 31.78125 10.75 37.828125 
Q 17.390625 43.890625 28.515625 43.890625 
Q 40.625 43.890625 46.546875 37.6875 
Q 52.484375 31.5 52.484375 21.390625 
Q 52.484375 10.984375 46.09375 5 
Q 39.703125 -0.984375 28.328125 -0.984375 
Q 17.140625 -0.984375 10.625 4.75 
Q 4.109375 10.5 4.109375 20.515625 
z
M 27.78125 38.921875 
Q 23.6875 38.921875 21.484375 36.5 
Q 19.28125 34.078125 18.796875 30.96875 
Q 18.3125 27.875 18.3125 22.796875 
Q 18.3125 4 29.6875 4 
Q 38.28125 4 38.28125 18.703125 
Q 38.28125 29.59375 36.078125 34.25 
Q 33.890625 38.921875 27.78125 38.921875 
z
" id="LinBiolinumB-111"/>
     <path d="M 51.21875 18.015625 
Q 51.21875 7.03125 52.296875 0 
L 52.09375 -0.296875 
Q 47.703125 0 44.28125 0 
Q 44.28125 0 37.59375 -0.296875 
L 37.40625 0 
Q 37.984375 5.328125 37.984375 18.015625 
L 37.984375 26.90625 
Q 37.984375 36.1875 32.8125 36.1875 
Q 27.296875 36.1875 21.1875 28.21875 
L 21.1875 18.015625 
Q 21.1875 6.84375 21.78125 0 
L 21.484375 -0.296875 
Q 18.703125 0 15.28125 0 
Q 15.28125 0 7.078125 -0.296875 
L 6.890625 0 
Q 8.015625 6.890625 8.015625 18.015625 
L 8.015625 23.484375 
Q 8.015625 36.765625 6.890625 42.921875 
L 7.078125 43.21875 
Q 15.578125 42.828125 20.015625 43.5 
Q 20.703125 43.5 20.90625 42.484375 
Q 21.1875 40.921875 21.1875 35.203125 
L 21.578125 34.90625 
Q 25 39.203125 29.203125 41.546875 
Q 33.40625 43.890625 37.3125 43.890625 
Q 44.1875 43.890625 47.703125 40.34375 
Q 51.21875 36.8125 51.21875 29.109375 
z
" id="LinBiolinumB-110"/>
     <path d="M 22.21875 37.890625 
L 22.515625 20.015625 
Q 22.796875 4.4375 23.296875 0 
L 23.09375 -0.296875 
Q 19.578125 0 16.21875 0 
Q 16.21875 0 8.6875 -0.296875 
L 8.59375 0 
Q 9.28125 5.078125 9.28125 20.015625 
L 9.28125 37.890625 
Q 4.59375 37.890625 2.203125 37.703125 
L 1.703125 38.375 
Q 3.03125 40.375 3.90625 43.21875 
Q 6.109375 42.921875 9.28125 42.921875 
L 9.28125 45.90625 
Q 9.28125 55.71875 16.21875 62.890625 
Q 22.796875 69.78125 33.984375 69.828125 
Q 39.3125 69.828125 41.5 68.40625 
L 41.609375 68.109375 
Q 39.984375 64.40625 39.3125 58.015625 
L 36.28125 57.90625 
Q 35.6875 60.109375 33.875 61.5 
Q 32.078125 62.890625 29.890625 62.890625 
Q 25.875 62.890625 23.671875 60.296875 
Q 21.484375 57.71875 21.484375 53.515625 
Q 21.484375 52.390625 21.84375 48.796875 
Q 22.21875 45.21875 22.21875 43.890625 
L 22.21875 42.921875 
L 26.90625 42.921875 
Q 30.421875 42.921875 33.890625 43.21875 
L 34.421875 42.390625 
Q 33.453125 39.984375 33.203125 37.703125 
Q 31.203125 37.890625 25.984375 37.890625 
z
" id="LinBiolinumB-102"/>
     <path d="M 23.484375 56 
L 23.484375 33.5 
Q 25.390625 32.515625 31.390625 32.515625 
Q 36.078125 32.515625 39.125 36.046875 
Q 42.1875 39.59375 42.1875 46.78125 
Q 42.1875 54.984375 39.453125 57.6875 
Q 36.71875 60.40625 31.5 60.40625 
Q 26.515625 60.40625 25 59.40625 
Q 23.484375 58.40625 23.484375 56 
z
M 9.28125 44.484375 
Q 9.28125 56 8.109375 64.5 
L 8.296875 64.796875 
Q 13.09375 64.5 16.5 64.5 
Q 18.015625 64.5 25.515625 64.84375 
Q 33.015625 65.1875 34.1875 65.1875 
Q 45.359375 65.1875 50.296875 61.8125 
Q 57.28125 56.9375 57.328125 48.578125 
Q 57.328125 39.796875 51.21875 33.59375 
Q 45.125 27.390625 32.515625 27.390625 
Q 26.609375 27.390625 23.484375 28.421875 
L 23.484375 20.015625 
Q 23.484375 8.640625 24.703125 0 
L 24.515625 -0.296875 
Q 19.921875 0 16.5 0 
L 8.203125 -0.296875 
L 8.109375 0 
Q 9.328125 8.109375 9.28125 20.015625 
z
" id="LinBiolinumB-80"/>
     <path d="M 17.28125 25.484375 
L 32.90625 25.484375 
Q 32.90625 38.875 26.421875 38.921875 
Q 22.5625 38.921875 20.359375 35.890625 
Q 17.78125 32.421875 17.28125 25.484375 
z
M 44.828125 10.6875 
Q 45.515625 10.6875 45.953125 9.6875 
Q 46.390625 8.6875 46.390625 7.625 
Q 38.96875 -0.984375 26.609375 -0.984375 
Q 14.796875 -0.984375 9.8125 4.203125 
Q 3.515625 10.6875 3.515625 20.609375 
Q 3.515625 32.171875 11.671875 38.921875 
Q 14.546875 41.3125 18.703125 42.59375 
Q 22.859375 43.890625 27.09375 43.890625 
Q 37.796875 43.890625 41.890625 37.9375 
Q 46 31.984375 46 21.390625 
L 45.40625 20.796875 
Q 36.8125 21 26.859375 21 
L 16.890625 21 
Q 16.890625 14.109375 20.21875 10.5 
Q 23.78125 6.59375 31.109375 6.59375 
Q 39.75 6.59375 44.828125 10.6875 
z
" id="LinBiolinumB-101"/>
     <path d="M 22.515625 34.90625 
Q 24.90625 38.421875 28.140625 41.15625 
Q 31.390625 43.890625 34.625 43.890625 
Q 37.3125 43.890625 39.703125 43.21875 
L 40.09375 42.828125 
L 38.09375 32.515625 
L 36.28125 32.328125 
Q 33.890625 34.234375 30.515625 34.1875 
Q 29.203125 34.1875 27.53125 33.6875 
Q 25.875 33.203125 24 31 
Q 22.125 28.8125 22.125 25.296875 
L 22.125 18.015625 
Q 22.125 7.125 23.09375 0 
L 22.90625 -0.296875 
Q 18.109375 0 14.703125 0 
L 8.015625 -0.296875 
L 7.90625 0 
Q 8.890625 6.78125 8.890625 18.015625 
L 8.890625 23.484375 
Q 8.890625 36.765625 7.8125 42.921875 
L 8.015625 43.21875 
Q 16.5 42.828125 20.90625 43.5 
Q 21.578125 43.5 21.78125 42.484375 
Q 22.078125 40.921875 22.078125 35.203125 
z
" id="LinBiolinumB-114"/>
     <path d="M 21.578125 34.90625 
Q 24.46875 38.71875 28.6875 41.296875 
Q 32.90625 43.890625 36.53125 43.890625 
Q 42.828125 43.890625 45.65625 41.9375 
Q 48.484375 39.984375 50.203125 35.890625 
Q 57.8125 43.890625 66.109375 43.890625 
Q 73.921875 43.890625 77.171875 39.890625 
Q 80.421875 35.890625 80.421875 27.984375 
L 80.421875 18.015625 
Q 80.421875 8.59375 81.59375 0 
L 81.390625 -0.296875 
Q 77.484375 0 74.125 0 
L 66.109375 -0.296875 
L 66.015625 0 
Q 67.234375 8.109375 67.1875 18.015625 
L 67.1875 27.296875 
Q 67.1875 36.1875 61.71875 36.1875 
Q 58.734375 36.1875 56.515625 34.9375 
Q 54.296875 33.6875 50.78125 29.78125 
Q 50.875 28.5625 50.875 26.8125 
L 50.875 18.015625 
Q 50.875 8.59375 52.09375 0 
L 51.90625 -0.296875 
Q 48 0 44.578125 0 
L 36.625 -0.296875 
L 36.53125 0 
Q 37.75 8.109375 37.703125 18.015625 
L 37.703125 28.078125 
Q 37.703125 32.859375 36.296875 34.515625 
Q 34.90625 36.1875 31.78125 36.1875 
Q 27.875 36.1875 21.1875 28.078125 
L 21.1875 18.015625 
Q 21.1875 7.125 22.21875 0 
L 22.015625 -0.296875 
Q 18.015625 0 14.59375 0 
L 6.890625 -0.296875 
L 6.78125 0 
Q 8.015625 8.109375 8.015625 18.015625 
L 8.015625 23.484375 
Q 8.015625 36.765625 6.890625 42.921875 
L 7.078125 43.21875 
Q 15.578125 42.828125 20.015625 43.5 
Q 20.703125 43.5 20.90625 42.484375 
Q 21.1875 40.921875 21.1875 35.203125 
z
" id="LinBiolinumB-109"/>
     <path d="M 9.28125 44.484375 
Q 9.28125 56 8.109375 64.5 
L 8.296875 64.796875 
Q 13.09375 64.5 16.5 64.5 
Q 16.5 64.5 24.8125 64.796875 
L 24.90625 64.5 
Q 23.6875 56.59375 23.6875 44.484375 
L 23.6875 20.015625 
Q 23.6875 8.640625 24.90625 0 
L 24.703125 -0.296875 
Q 19.921875 0 16.5 0 
Q 16.5 0 8.203125 -0.296875 
L 8.109375 0 
Q 9.328125 8.109375 9.28125 20.015625 
z
" id="LinBiolinumB-73"/>
     <path d="M 21.1875 28.21875 
L 21.1875 7.625 
Q 25.484375 4 30.078125 4 
Q 34.375 4 37.234375 8.484375 
Q 40.09375 12.984375 40.09375 20.796875 
Q 40.09375 28.71875 38.40625 32.8125 
Q 36.71875 36.921875 32.421875 36.921875 
Q 29.640625 36.921875 26.21875 34.421875 
Q 22.796875 31.9375 21.1875 28.21875 
z
M 21.578125 35.796875 
Q 27.484375 43.890625 37.109375 43.890625 
Q 43.5 43.890625 47.265625 40.671875 
Q 54.296875 34.578125 54.296875 23.484375 
Q 54.296875 12.984375 47.84375 6 
Q 41.40625 -0.984375 31.890625 -0.984375 
Q 25.59375 -0.984375 21.1875 1.8125 
L 21.1875 -3.21875 
Q 21.1875 -16.5 22.21875 -23.1875 
L 22.015625 -23.484375 
Q 17.921875 -23.1875 14.5 -23.1875 
L 7.078125 -23.484375 
L 6.984375 -23.1875 
Q 7.953125 -16.890625 8.015625 -3.21875 
L 8.015625 23.484375 
Q 8.015625 36.765625 6.890625 42.921875 
L 7.078125 43.21875 
Q 15.578125 42.828125 20.015625 43.5 
Q 20.703125 43.5 20.90625 42.484375 
Q 21.1875 40.921875 21.1875 36.078125 
z
" id="LinBiolinumB-112"/>
     <path d="M 29.6875 38.921875 
Q 27 38.921875 24.625 37.640625 
Q 22.265625 36.375 20.84375 34.078125 
Q 18.40625 30.171875 18.40625 22.796875 
Q 18.40625 14.203125 21.390625 9.421875 
Q 22.796875 7.234375 25.328125 5.609375 
Q 27.875 4 30.078125 4 
Q 37.796875 4 41.796875 8.796875 
L 43.40625 8.296875 
Q 43.40625 6.59375 43.890625 4.390625 
Q 40.484375 1.515625 36.75 0.265625 
Q 33.015625 -0.984375 27.390625 -0.984375 
Q 15.484375 -0.984375 9.625 5.421875 
Q 4.203125 11.328125 4.203125 20.21875 
Q 4.203125 31.5 11.203125 37.6875 
Q 18.21875 43.890625 28.8125 43.890625 
Q 32.421875 43.890625 36.859375 42.890625 
Q 41.3125 41.890625 43.703125 40.578125 
L 43.890625 40.28125 
L 41.5 30.609375 
L 38.71875 30.515625 
Q 35.296875 38.921875 29.6875 38.921875 
z
" id="LinBiolinumB-99"/>
    </defs>
    <use xlink:href="#LinBiolinumB-51"/>
    <use x="51.367188" xlink:href="#LinBiolinumB-68"/>
    <use x="127.441406" xlink:href="#LinBiolinumB-32"/>
    <use x="152.441406" xlink:href="#LinBiolinumB-86"/>
    <use x="219.628906" xlink:href="#LinBiolinumB-105"/>
    <use x="250.78125" xlink:href="#LinBiolinumB-115"/>
    <use x="292.675781" xlink:href="#LinBiolinumB-117"/>
    <use x="351.757812" xlink:href="#LinBiolinumB-97"/>
    <use x="403.320312" xlink:href="#LinBiolinumB-108"/>
    <use x="433.691406" xlink:href="#LinBiolinumB-105"/>
    <use x="464.84375" xlink:href="#LinBiolinumB-115"/>
    <use x="506.738281" xlink:href="#LinBiolinumB-97"/>
    <use x="558.300781" xlink:href="#LinBiolinumB-116"/>
    <use x="593.652344" xlink:href="#LinBiolinumB-105"/>
    <use x="624.804688" xlink:href="#LinBiolinumB-111"/>
    <use x="681.396484" xlink:href="#LinBiolinumB-110"/>
    <use x="741.357422" xlink:href="#LinBiolinumB-32"/>
    <use x="766.357422" xlink:href="#LinBiolinumB-111"/>
    <use x="822.949219" xlink:href="#LinBiolinumB-102"/>
    <use x="859.521484" xlink:href="#LinBiolinumB-32"/>
    <use x="884.521484" xlink:href="#LinBiolinumB-80"/>
    <use x="944.287109" xlink:href="#LinBiolinumB-101"/>
    <use x="995.068359" xlink:href="#LinBiolinumB-114"/>
    <use x="1037.158203" xlink:href="#LinBiolinumB-109"/>
    <use x="1126.318359" xlink:href="#LinBiolinumB-117"/>
    <use x="1185.400391" xlink:href="#LinBiolinumB-116"/>
    <use x="1220.751953" xlink:href="#LinBiolinumB-97"/>
    <use x="1272.314453" xlink:href="#LinBiolinumB-116"/>
    <use x="1307.666016" xlink:href="#LinBiolinumB-105"/>
    <use x="1338.818359" xlink:href="#LinBiolinumB-111"/>
    <use x="1395.410156" xlink:href="#LinBiolinumB-110"/>
    <use x="1455.371094" xlink:href="#LinBiolinumB-32"/>
    <use x="1480.371094" xlink:href="#LinBiolinumB-73"/>
    <use x="1513.330078" xlink:href="#LinBiolinumB-109"/>
    <use x="1602.490234" xlink:href="#LinBiolinumB-112"/>
    <use x="1660.986328" xlink:href="#LinBiolinumB-111"/>
    <use x="1717.578125" xlink:href="#LinBiolinumB-114"/>
    <use x="1759.667969" xlink:href="#LinBiolinumB-116"/>
    <use x="1795.019531" xlink:href="#LinBiolinumB-97"/>
    <use x="1846.582031" xlink:href="#LinBiolinumB-110"/>
    <use x="1906.542969" xlink:href="#LinBiolinumB-99"/>
    <use x="1953.710938" xlink:href="#LinBiolinumB-101"/>
    <use x="2004.492188" xlink:href="#LinBiolinumB-32"/>
   </g>
  </g>
 </g>
 <defs>
  <clipPath id="p652aca5a79">
   <rect height="498.96" width="806.4" x="189.53875" y="72"/>
  </clipPath>
 </defs>
</svg>
