<?xml version="1.0" encoding="utf-8" standalone="no"?>
<!DOCTYPE svg PUBLIC "-//W3C//DTD SVG 1.1//EN"
  "http://www.w3.org/Graphics/SVG/1.1/DTD/svg11.dtd">
<svg xmlns:xlink="http://www.w3.org/1999/xlink" width="1003.13875pt" height="611.555pt" viewBox="0 0 1003.13875 611.555" xmlns="http://www.w3.org/2000/svg" version="1.1">
 <metadata>
  <rdf:RDF xmlns:dc="http://purl.org/dc/elements/1.1/" xmlns:cc="http://creativecommons.org/ns#" xmlns:rdf="http://www.w3.org/1999/02/22-rdf-syntax-ns#">
   <cc:Work>
    <dc:type rdf:resource="http://purl.org/dc/dcmitype/StillImage"/>
    <dc:date>2022-12-02T14:48:51.446082</dc:date>
    <dc:format>image/svg+xml</dc:format>
    <dc:creator>
     <cc:Agent>
      <dc:title>Matplotlib v3.5.2, https://matplotlib.org/</dc:title>
     </cc:Agent>
    </dc:creator>
   </cc:Work>
  </rdf:RDF>
 </metadata>
 <defs>
  <style type="text/css">*{stroke-linejoin: round; stroke-linecap: butt}</style>
 </defs>
 <g id="figure_1">
  <g id="patch_1">
   <path d="M 0 611.555 
L 1003.13875 611.555 
L 1003.13875 0 
L 0 0 
z
" style="fill: #ffffff"/>
  </g>
  <g id="axes_1">
   <g id="patch_2">
    <path d="M 189.53875 570.96 
L 995.93875 570.96 
L 995.93875 72 
L 189.53875 72 
z
" style="fill: #ffffff"/>
   </g>
   <g id="patch_3">
    <path d="M 189.53875 94.68 
L 696.557272 94.68 
L 696.557272 170.28 
L 189.53875 170.28 
z
" clip-path="url(#p8913955ed9)" style="fill: #228b22"/>
   </g>
   <g id="patch_4">
    <path d="M 189.53875 189.18 
L 446.855355 189.18 
L 446.855355 264.78 
L 189.53875 264.78 
z
" clip-path="url(#p8913955ed9)" style="fill: #228b22"/>
   </g>
   <g id="patch_5">
    <path d="M 189.53875 283.68 
L 445.113478 283.68 
L 445.113478 359.28 
L 189.53875 359.28 
z
" clip-path="url(#p8913955ed9)" style="fill: #228b22"/>
   </g>
   <g id="patch_6">
    <path d="M 189.53875 378.18 
L 318.213609 378.18 
L 318.213609 453.78 
L 189.53875 453.78 
z
" clip-path="url(#p8913955ed9)" style="fill: #228b22"/>
   </g>
   <g id="patch_7">
    <path d="M 189.53875 472.68 
L 310.716225 472.68 
L 310.716225 548.28 
L 189.53875 548.28 
z
" clip-path="url(#p8913955ed9)" style="fill: #228b22"/>
   </g>
   <g id="matplotlib.axis_1">
    <g id="xtick_1">
     <g id="line2d_1">
      <path d="M 189.53875 570.96 
L 189.53875 72 
" clip-path="url(#p8913955ed9)" style="fill: none; stroke-dasharray: 3.2,0.8,0.5,0.8; stroke-dashoffset: 0; stroke: #808080; stroke-opacity: 0.8; stroke-width: 0.5"/>
     </g>
     <g id="line2d_2">
      <defs>
       <path id="md506572705" d="M 0 0 
L 0 3.5 
" style="stroke: #000000; stroke-width: 0.8"/>
      </defs>
      <g>
       <use xlink:href="#md506572705" x="189.53875" y="570.96" style="stroke: #000000; stroke-width: 0.8"/>
      </g>
     </g>
     <g id="text_1">
      <!-- 0 -->
      <g transform="translate(186.749687 586.339375)scale(0.12 -0.12)">
       <defs>
        <path id="LinBiolinum-30" d="M 1491 3653 
Q 800 3653 800 1838 
Q 800 1641 809 1450 
Q 819 1259 861 1017 
Q 903 775 973 601 
Q 1044 428 1169 306 
Q 1294 184 1466 184 
Q 1550 184 1636 217 
Q 1722 250 1847 394 
Q 1972 538 2034 781 
Q 2144 1178 2144 2028 
Q 2144 2638 2037 3028 
Q 1931 3419 1772 3553 
Q 1656 3653 1491 3653 
z
M 1459 -63 
Q 891 -63 570 484 
Q 250 1031 250 1850 
Q 250 2759 620 3331 
Q 991 3903 1491 3903 
Q 1856 3903 2100 3681 
Q 2694 3138 2694 1978 
Q 2694 1447 2572 1034 
Q 2450 622 2259 390 
Q 2069 159 1862 48 
Q 1656 -63 1459 -63 
z
" transform="scale(0.015625)"/>
       </defs>
       <use xlink:href="#LinBiolinum-30"/>
      </g>
     </g>
    </g>
    <g id="xtick_2">
     <g id="line2d_3">
      <path d="M 311.11704 570.96 
L 311.11704 72 
" clip-path="url(#p8913955ed9)" style="fill: none; stroke-dasharray: 3.2,0.8,0.5,0.8; stroke-dashoffset: 0; stroke: #808080; stroke-opacity: 0.8; stroke-width: 0.5"/>
     </g>
     <g id="line2d_4">
      <g>
       <use xlink:href="#md506572705" x="311.11704" y="570.96" style="stroke: #000000; stroke-width: 0.8"/>
      </g>
     </g>
     <g id="text_2">
      <!-- 1 -->
      <g transform="translate(308.327977 586.339375)scale(0.12 -0.12)">
       <defs>
        <path id="LinBiolinum-31" d="M 2088 1209 
Q 2088 494 2144 0 
L 2131 -19 
Q 1953 0 1825 0 
Q 1825 0 1528 -19 
L 1522 0 
Q 1572 416 1575 1209 
L 1575 2797 
Q 1575 3284 1459 3284 
Q 1388 3284 1125 3239 
Q 863 3194 728 3181 
L 691 3366 
Q 959 3450 1432 3648 
Q 1906 3847 2094 3903 
Q 2138 3903 2138 3872 
Q 2088 3513 2088 2834 
L 2088 1209 
z
" transform="scale(0.015625)"/>
       </defs>
       <use xlink:href="#LinBiolinum-31"/>
      </g>
     </g>
    </g>
    <g id="xtick_3">
     <g id="line2d_5">
      <path d="M 432.69533 570.96 
L 432.69533 72 
" clip-path="url(#p8913955ed9)" style="fill: none; stroke-dasharray: 3.2,0.8,0.5,0.8; stroke-dashoffset: 0; stroke: #808080; stroke-opacity: 0.8; stroke-width: 0.5"/>
     </g>
     <g id="line2d_6">
      <g>
       <use xlink:href="#md506572705" x="432.69533" y="570.96" style="stroke: #000000; stroke-width: 0.8"/>
      </g>
     </g>
     <g id="text_3">
      <!-- 2 -->
      <g transform="translate(430.031892 586.339375)scale(0.12 -0.12)">
       <defs>
        <path id="LinBiolinum-32" d="M 1294 3541 
Q 988 3541 800 3391 
Q 741 3344 695 3284 
Q 650 3225 633 3195 
Q 616 3166 573 3066 
Q 531 2966 519 2938 
L 434 2944 
L 294 3384 
Q 381 3500 514 3608 
Q 647 3716 887 3809 
Q 1128 3903 1397 3903 
Q 1747 3903 2003 3772 
Q 2259 3641 2389 3408 
Q 2519 3175 2519 2872 
Q 2519 2406 2056 1778 
Q 1859 1513 1657 1281 
Q 1456 1050 1343 937 
Q 1231 825 1019 622 
Q 906 513 906 447 
Q 906 438 907 431 
Q 909 425 916 416 
Q 1091 428 1438 428 
Q 2031 428 2609 481 
Q 2578 353 2578 178 
Q 2578 103 2597 -31 
Q 1834 0 1484 0 
Q 1453 0 272 -31 
Q 206 75 209 219 
Q 213 266 219 300 
Q 231 313 440 508 
Q 650 703 764 817 
Q 878 931 1076 1134 
Q 1275 1338 1436 1534 
Q 1597 1731 1725 1925 
Q 1969 2291 1969 2784 
Q 1969 3109 1762 3325 
Q 1556 3541 1294 3541 
z
" transform="scale(0.015625)"/>
       </defs>
       <use xlink:href="#LinBiolinum-32"/>
      </g>
     </g>
    </g>
    <g id="xtick_4">
     <g id="line2d_7">
      <path d="M 554.27362 570.96 
L 554.27362 72 
" clip-path="url(#p8913955ed9)" style="fill: none; stroke-dasharray: 3.2,0.8,0.5,0.8; stroke-dashoffset: 0; stroke: #808080; stroke-opacity: 0.8; stroke-width: 0.5"/>
     </g>
     <g id="line2d_8">
      <g>
       <use xlink:href="#md506572705" x="554.27362" y="570.96" style="stroke: #000000; stroke-width: 0.8"/>
      </g>
     </g>
     <g id="text_4">
      <!-- 3 -->
      <g transform="translate(551.484557 586.339375)scale(0.12 -0.12)">
       <defs>
        <path id="LinBiolinum-33" d="M 1338 184 
Q 1447 184 1572 223 
Q 1697 263 1840 352 
Q 1984 441 2079 636 
Q 2175 831 2175 1100 
Q 2175 1503 1925 1716 
Q 1675 1922 1300 1919 
Q 1109 1919 1031 1906 
L 1031 2188 
Q 1166 2169 1269 2169 
Q 1616 2169 1797 2350 
Q 2041 2581 2041 2975 
Q 2041 3269 1875 3461 
Q 1709 3653 1509 3653 
Q 1228 3653 1059 3522 
Q 891 3391 769 3109 
L 672 3116 
L 538 3525 
L 556 3547 
Q 966 3906 1569 3903 
Q 2038 3903 2317 3664 
Q 2597 3425 2597 3072 
Q 2597 2700 2361 2428 
Q 2125 2156 1844 2094 
L 1844 2059 
Q 2222 2028 2473 1775 
Q 2725 1522 2725 1153 
Q 2725 756 2483 467 
Q 2241 178 1933 57 
Q 1625 -63 1325 -63 
Q 738 -63 372 244 
L 353 263 
L 494 744 
L 588 750 
Q 678 566 714 497 
Q 750 428 836 336 
Q 922 244 1037 214 
Q 1153 184 1338 184 
z
" transform="scale(0.015625)"/>
       </defs>
       <use xlink:href="#LinBiolinum-33"/>
      </g>
     </g>
    </g>
    <g id="xtick_5">
     <g id="line2d_9">
      <path d="M 675.85191 570.96 
L 675.85191 72 
" clip-path="url(#p8913955ed9)" style="fill: none; stroke-dasharray: 3.2,0.8,0.5,0.8; stroke-dashoffset: 0; stroke: #808080; stroke-opacity: 0.8; stroke-width: 0.5"/>
     </g>
     <g id="line2d_10">
      <g>
       <use xlink:href="#md506572705" x="675.85191" y="570.96" style="stroke: #000000; stroke-width: 0.8"/>
      </g>
     </g>
     <g id="text_5">
      <!-- 4 -->
      <g transform="translate(673.062847 586.339375)scale(0.12 -0.12)">
       <defs>
        <path id="LinBiolinum-34" d="M 1831 947 
L 513 947 
Q 134 947 134 1075 
Q 134 1178 219 1325 
Q 469 1747 1019 2592 
Q 1569 3438 1863 3841 
L 1888 3866 
Q 2003 3841 2106 3841 
Q 2156 3841 2242 3853 
Q 2328 3866 2356 3866 
Q 2369 3866 2369 3841 
Q 2331 3488 2328 2894 
L 2328 1269 
L 2741 1269 
Q 2838 1269 2834 1166 
Q 2834 1109 2773 1028 
Q 2713 947 2650 947 
L 2328 947 
Q 2328 556 2369 0 
Q 2369 -19 2356 -19 
Q 2331 -19 2237 -9 
Q 2144 0 2088 0 
L 1784 -19 
L 1778 0 
Q 1831 434 1831 947 
z
M 1831 3278 
L 531 1269 
L 1831 1269 
L 1831 3278 
z
" transform="scale(0.015625)"/>
       </defs>
       <use xlink:href="#LinBiolinum-34"/>
      </g>
     </g>
    </g>
    <g id="xtick_6">
     <g id="line2d_11">
      <path d="M 797.4302 570.96 
L 797.4302 72 
" clip-path="url(#p8913955ed9)" style="fill: none; stroke-dasharray: 3.2,0.8,0.5,0.8; stroke-dashoffset: 0; stroke: #808080; stroke-opacity: 0.8; stroke-width: 0.5"/>
     </g>
     <g id="line2d_12">
      <g>
       <use xlink:href="#md506572705" x="797.4302" y="570.96" style="stroke: #000000; stroke-width: 0.8"/>
      </g>
     </g>
     <g id="text_6">
      <!-- 5 -->
      <g transform="translate(794.641137 586.339375)scale(0.12 -0.12)">
       <defs>
        <path id="LinBiolinum-35" d="M 1294 -63 
Q 738 -63 325 294 
L 300 313 
L 441 825 
L 531 831 
Q 550 800 604 697 
Q 659 594 675 566 
Q 691 538 742 464 
Q 794 391 819 369 
Q 844 347 901 298 
Q 959 250 1014 237 
Q 1069 225 1142 208 
Q 1216 191 1306 191 
Q 1631 191 1832 450 
Q 2034 709 2034 1147 
Q 2034 1653 1829 1914 
Q 1625 2175 1300 2175 
Q 1000 2175 506 1978 
L 459 1994 
L 666 3878 
Q 1100 3841 1394 3841 
Q 1925 3841 2444 3903 
L 2491 3884 
L 2388 3450 
Q 2075 3413 1716 3413 
Q 1331 3413 903 3469 
L 769 2338 
Q 1031 2434 1466 2431 
Q 1984 2431 2290 2086 
Q 2597 1741 2597 1253 
Q 2597 684 2230 310 
Q 1863 -63 1294 -63 
z
" transform="scale(0.015625)"/>
       </defs>
       <use xlink:href="#LinBiolinum-35"/>
      </g>
     </g>
    </g>
    <g id="xtick_7">
     <g id="line2d_13">
      <path d="M 919.00849 570.96 
L 919.00849 72 
" clip-path="url(#p8913955ed9)" style="fill: none; stroke-dasharray: 3.2,0.8,0.5,0.8; stroke-dashoffset: 0; stroke: #808080; stroke-opacity: 0.8; stroke-width: 0.5"/>
     </g>
     <g id="line2d_14">
      <g>
       <use xlink:href="#md506572705" x="919.00849" y="570.96" style="stroke: #000000; stroke-width: 0.8"/>
      </g>
     </g>
     <g id="text_7">
      <!-- 6 -->
      <g transform="translate(916.219427 586.339375)scale(0.12 -0.12)">
       <defs>
        <path id="LinBiolinum-36" d="M 813 1772 
Q 806 1709 806 1538 
Q 806 1134 882 848 
Q 959 563 1093 425 
Q 1228 288 1356 230 
Q 1484 172 1631 172 
Q 2200 172 2203 1106 
Q 2203 1247 2173 1387 
Q 2144 1528 2073 1686 
Q 2003 1844 1847 1939 
Q 1691 2034 1459 2034 
Q 1069 2034 813 1772 
z
M 2559 3731 
Q 1850 3659 1434 3256 
Q 928 2763 825 1959 
Q 941 2100 1167 2195 
Q 1394 2291 1594 2291 
Q 1947 2291 2195 2159 
Q 2444 2028 2556 1829 
Q 2669 1631 2717 1465 
Q 2766 1300 2766 1153 
Q 2766 963 2705 766 
Q 2644 569 2516 376 
Q 2388 184 2141 64 
Q 1894 -56 1563 -56 
Q 1350 -56 1151 11 
Q 953 78 748 240 
Q 544 403 419 742 
Q 294 1081 294 1556 
Q 294 2569 978 3250 
Q 1297 3575 1665 3726 
Q 2034 3878 2541 3909 
L 2559 3731 
z
" transform="scale(0.015625)"/>
       </defs>
       <use xlink:href="#LinBiolinum-36"/>
      </g>
     </g>
    </g>
    <g id="text_8">
     <!-- Mean Permutation Importance -->
     <g transform="translate(516.263125 601.536875)scale(0.12 -0.12)">
      <defs>
       <path id="LinBiolinum-4d" d="M 1234 4238 
L 1409 4238 
Q 1581 3884 1781 3421 
Q 1981 2959 2131 2604 
Q 2281 2250 2487 1803 
Q 2694 1356 2897 984 
L 4550 4238 
L 4691 4238 
Q 4984 1691 5228 -19 
Q 5131 0 4891 0 
Q 4672 0 4575 -19 
Q 4406 2016 4284 3025 
L 4263 3028 
Q 3425 1478 2778 0 
L 2656 0 
Q 2550 225 2433 494 
Q 2316 763 2219 998 
Q 2122 1234 2006 1507 
Q 1891 1781 1787 2022 
Q 1684 2263 1559 2534 
Q 1434 2806 1313 3047 
L 1284 3047 
Q 1219 2634 1123 2011 
Q 1028 1388 942 820 
Q 856 253 813 -19 
Q 741 0 622 0 
Q 481 0 409 -19 
Q 928 2478 1234 4238 
z
" transform="scale(0.015625)"/>
       <path id="LinBiolinum-65" d="M 800 1747 
L 1978 1747 
Q 2069 1747 2069 1838 
Q 2069 2169 1898 2361 
Q 1728 2553 1528 2553 
Q 1456 2553 1365 2518 
Q 1275 2484 1156 2403 
Q 1038 2322 938 2150 
Q 838 1978 800 1747 
z
M 2509 666 
L 2638 506 
Q 2453 250 2158 93 
Q 1863 -63 1522 -63 
Q 856 -63 506 359 
Q 219 706 219 1338 
Q 219 2003 625 2406 
Q 1031 2809 1528 2809 
Q 2103 2809 2370 2445 
Q 2638 2081 2638 1600 
Q 2638 1491 2522 1491 
L 781 1491 
Q 781 922 934 678 
Q 1166 313 1631 313 
Q 2184 313 2509 666 
z
" transform="scale(0.015625)"/>
       <path id="LinBiolinum-61" d="M 1984 1441 
L 1441 1294 
Q 1088 1197 947 1040 
Q 806 884 806 653 
Q 806 500 937 381 
Q 1069 263 1281 263 
Q 1538 263 1869 513 
Q 1959 575 1959 678 
L 1984 1441 
z
M 1984 306 
L 1959 306 
Q 1703 88 1526 12 
Q 1350 -63 1088 -63 
Q 716 -63 502 109 
Q 288 281 288 628 
Q 288 953 572 1200 
Q 856 1447 1350 1556 
L 1947 1691 
Q 1991 1703 1991 1766 
Q 1991 1972 1945 2122 
Q 1900 2272 1842 2345 
Q 1784 2419 1689 2461 
Q 1594 2503 1530 2512 
Q 1466 2522 1375 2522 
Q 1009 2522 672 1978 
L 588 1984 
L 481 2413 
L 500 2438 
Q 941 2809 1441 2809 
Q 2497 2809 2497 1772 
Q 2497 1750 2494 1617 
Q 2491 1484 2487 1332 
Q 2484 1181 2481 1025 
Q 2478 869 2478 806 
Q 2478 403 2584 306 
Q 2638 259 2772 259 
Q 2850 259 2944 294 
L 2994 134 
Q 2806 -63 2484 -63 
Q 2303 -63 2170 31 
Q 2038 125 1984 306 
z
" transform="scale(0.015625)"/>
       <path id="LinBiolinum-6e" d="M 2944 1153 
Q 2944 425 3003 0 
L 2988 -19 
Q 2872 0 2687 0 
Q 2503 0 2388 -19 
L 2375 0 
Q 2431 428 2431 1153 
L 2431 1778 
Q 2431 2156 2329 2290 
Q 2228 2425 1972 2425 
Q 1775 2425 1522 2297 
Q 1269 2169 1044 1900 
L 1044 1153 
Q 1044 409 1100 0 
L 1088 -19 
Q 972 0 787 0 
Q 603 0 488 -19 
L 475 0 
Q 531 391 531 1153 
L 531 1503 
Q 531 2388 475 2747 
L 488 2766 
Q 769 2741 1006 2784 
Q 1044 2784 1044 2719 
L 1044 2253 
L 1056 2234 
Q 1550 2809 2163 2809 
Q 2584 2809 2770 2559 
Q 2956 2309 2956 1797 
Q 2956 1694 2950 1475 
Q 2944 1256 2944 1153 
z
" transform="scale(0.015625)"/>
       <path id="LinBiolinum-20" transform="scale(0.015625)"/>
       <path id="LinBiolinum-50" d="M 1216 3616 
L 1216 2106 
Q 1338 2044 1722 2041 
Q 2216 2041 2458 2262 
Q 2700 2484 2700 3016 
Q 2700 3291 2623 3472 
Q 2547 3653 2406 3743 
Q 2266 3834 2122 3865 
Q 1978 3897 1791 3897 
Q 1459 3897 1337 3830 
Q 1216 3763 1216 3616 
z
M 666 2847 
Q 666 3672 603 4128 
L 616 4147 
Q 731 4128 941 4128 
Q 1038 4128 1395 4150 
Q 1753 4172 1838 4172 
Q 2259 4172 2567 4067 
Q 2875 3963 3028 3786 
Q 3181 3609 3251 3426 
Q 3322 3244 3322 3047 
Q 3322 2828 3236 2614 
Q 3150 2400 2976 2204 
Q 2803 2009 2486 1887 
Q 2169 1766 1753 1766 
Q 1413 1766 1216 1831 
L 1216 1281 
Q 1216 456 1281 0 
L 1269 -19 
Q 1153 0 940 0 
Q 728 0 616 -19 
L 603 0 
Q 666 434 666 1281 
L 666 2847 
z
" transform="scale(0.015625)"/>
       <path id="LinBiolinum-72" d="M 1069 2138 
L 1088 2125 
Q 1313 2509 1481 2659 
Q 1650 2809 1900 2809 
Q 1978 2809 2131 2766 
L 2156 2741 
L 2028 2266 
L 1978 2253 
Q 1881 2344 1644 2344 
Q 1431 2344 1288 2119 
Q 1069 1788 1069 1484 
L 1069 1153 
Q 1069 438 1125 0 
L 1113 -19 
Q 997 0 812 0 
Q 628 0 513 -19 
L 500 0 
Q 556 397 556 1153 
L 556 1503 
Q 556 2388 500 2747 
L 513 2766 
Q 794 2741 1031 2784 
Q 1069 2784 1069 2719 
L 1069 2138 
z
" transform="scale(0.015625)"/>
       <path id="LinBiolinum-6d" d="M 1038 2253 
L 1056 2234 
Q 1600 2809 2131 2809 
Q 2400 2809 2583 2671 
Q 2766 2534 2809 2303 
Q 3291 2809 3891 2809 
Q 4366 2809 4525 2550 
Q 4684 2291 4684 1791 
L 4684 1153 
Q 4684 409 4744 0 
L 4728 -19 
Q 4613 0 4428 0 
Q 4244 0 4128 -19 
L 4116 0 
Q 4172 391 4172 1153 
L 4172 1856 
Q 4172 2169 4050 2297 
Q 3928 2425 3659 2425 
Q 3191 2425 2847 2041 
Q 2853 1963 2853 1797 
L 2853 1153 
Q 2853 409 2913 0 
L 2900 -19 
Q 2784 0 2598 0 
Q 2413 0 2297 -19 
L 2284 0 
Q 2341 391 2344 1153 
L 2344 1856 
Q 2344 2425 1919 2425 
Q 1747 2425 1503 2287 
Q 1259 2150 1038 1925 
L 1038 1153 
Q 1038 409 1094 0 
L 1081 -19 
Q 966 0 780 0 
Q 594 0 481 -19 
L 469 0 
Q 525 391 525 1153 
L 525 1503 
Q 525 2388 469 2747 
L 481 2766 
Q 763 2741 997 2784 
Q 1034 2784 1038 2719 
L 1038 2253 
z
" transform="scale(0.015625)"/>
       <path id="LinBiolinum-75" d="M 2338 588 
Q 2159 313 1901 125 
Q 1644 -63 1369 -63 
Q 928 -63 729 192 
Q 531 447 531 825 
L 531 1594 
Q 531 2338 475 2747 
L 488 2766 
Q 603 2747 787 2747 
Q 972 2747 1088 2766 
L 1100 2747 
Q 1044 2363 1044 1594 
L 1044 959 
Q 1044 556 1156 425 
Q 1269 294 1472 294 
Q 1697 294 1942 495 
Q 2188 697 2350 966 
L 2350 1594 
Q 2350 2322 2291 2747 
L 2303 2766 
Q 2419 2747 2605 2747 
Q 2791 2747 2906 2766 
L 2919 2747 
Q 2863 2363 2859 1594 
L 2859 1228 
Q 2859 581 2969 0 
L 2956 -19 
Q 2828 0 2672 0 
Q 2597 0 2450 -19 
Q 2394 -19 2394 0 
L 2363 569 
L 2338 588 
z
" transform="scale(0.015625)"/>
       <path id="LinBiolinum-74" d="M 609 2747 
Q 609 2944 621 3200 
Q 634 3456 634 3566 
L 647 3584 
Q 744 3597 811 3619 
Q 878 3641 964 3683 
Q 1050 3725 1094 3744 
Q 1150 3744 1153 3681 
Q 1122 3272 1119 2747 
L 1422 2747 
Q 1544 2747 1869 2759 
L 1900 2713 
Q 1850 2584 1825 2450 
Q 1697 2463 1363 2463 
L 1119 2463 
L 1119 1656 
Q 1119 1438 1109 1158 
Q 1100 878 1100 806 
Q 1100 313 1313 281 
Q 1559 241 1816 331 
L 1894 172 
Q 1522 -66 1153 -63 
Q 916 -63 752 96 
Q 588 256 588 550 
Q 588 622 598 995 
Q 609 1369 609 1588 
L 609 2463 
Q 309 2463 153 2450 
L 122 2497 
Q 213 2638 263 2759 
Q 353 2747 609 2747 
z
" transform="scale(0.015625)"/>
       <path id="LinBiolinum-69" d="M 611 3594 
Q 513 3694 513 3822 
Q 513 3950 611 4048 
Q 709 4147 837 4147 
Q 966 4147 1066 4048 
Q 1166 3950 1166 3822 
Q 1166 3694 1066 3594 
Q 966 3494 837 3494 
Q 709 3494 611 3594 
z
M 575 1503 
Q 575 2353 519 2747 
L 531 2766 
Q 806 2747 1088 2772 
Q 1125 2772 1136 2762 
Q 1147 2753 1147 2706 
Q 1091 2169 1088 1606 
L 1088 1153 
Q 1088 456 1147 0 
L 1131 -19 
Q 1016 0 831 0 
Q 647 0 531 -19 
L 519 0 
Q 575 428 575 1153 
L 575 1503 
z
" transform="scale(0.015625)"/>
       <path id="LinBiolinum-6f" d="M 244 1313 
Q 244 1991 620 2400 
Q 997 2809 1625 2809 
Q 2266 2809 2611 2421 
Q 2956 2034 2956 1369 
Q 2956 728 2592 332 
Q 2228 -63 1600 -63 
Q 978 -63 611 328 
Q 244 719 244 1313 
z
M 1581 2553 
Q 1300 2553 1117 2381 
Q 934 2209 870 1968 
Q 806 1728 806 1422 
Q 806 1134 870 878 
Q 934 622 1139 406 
Q 1344 191 1656 191 
Q 1975 191 2184 492 
Q 2394 794 2394 1253 
Q 2394 1900 2225 2226 
Q 2056 2553 1581 2553 
z
" transform="scale(0.015625)"/>
       <path id="LinBiolinum-49" d="M 666 2847 
Q 666 3672 603 4128 
L 616 4147 
Q 731 4128 942 4128 
Q 1153 4128 1269 4147 
L 1281 4128 
Q 1219 3706 1216 2847 
L 1216 1281 
Q 1216 456 1281 0 
L 1269 -19 
Q 1153 0 940 0 
Q 728 0 616 -19 
L 603 0 
Q 666 434 666 1281 
L 666 2847 
z
" transform="scale(0.015625)"/>
       <path id="LinBiolinum-70" d="M 1038 1881 
L 1038 481 
Q 1281 194 1631 191 
Q 1875 191 2048 300 
Q 2222 409 2308 598 
Q 2394 788 2428 983 
Q 2463 1178 2463 1394 
Q 2463 2513 1806 2516 
Q 1616 2516 1378 2323 
Q 1141 2131 1038 1881 
z
M 1038 2253 
L 1050 2234 
Q 1428 2809 1913 2809 
Q 2425 2809 2726 2415 
Q 3028 2022 3028 1478 
Q 3028 794 2662 365 
Q 2297 -63 1672 -63 
Q 1300 -63 1038 78 
L 1038 -206 
Q 1038 -1031 1094 -1484 
L 1081 -1503 
Q 966 -1484 780 -1484 
Q 594 -1484 481 -1503 
L 469 -1484 
Q 525 -1056 525 -206 
L 525 1503 
Q 525 2388 469 2747 
L 481 2766 
Q 763 2741 997 2784 
Q 1034 2784 1038 2719 
L 1038 2253 
z
" transform="scale(0.015625)"/>
       <path id="LinBiolinum-63" d="M 1600 2553 
Q 1269 2553 1037 2247 
Q 806 1941 806 1428 
Q 806 884 1040 570 
Q 1275 256 1638 256 
Q 2022 256 2322 525 
L 2350 525 
L 2472 391 
Q 2113 -63 1528 -63 
Q 941 -63 592 332 
Q 244 728 244 1394 
Q 244 2016 659 2412 
Q 1075 2809 1606 2809 
Q 2113 2809 2456 2631 
L 2472 2613 
L 2322 2088 
L 2241 2081 
Q 1966 2553 1600 2553 
z
" transform="scale(0.015625)"/>
      </defs>
      <use xlink:href="#LinBiolinum-4d"/>
      <use xlink:href="#LinBiolinum-65" x="88.574219"/>
      <use xlink:href="#LinBiolinum-61" x="133.837891"/>
      <use xlink:href="#LinBiolinum-6e" x="181.933594"/>
      <use xlink:href="#LinBiolinum-20" x="235.791016"/>
      <use xlink:href="#LinBiolinum-50" x="260.791016"/>
      <use xlink:href="#LinBiolinum-65" x="316.650391"/>
      <use xlink:href="#LinBiolinum-72" x="361.914062"/>
      <use xlink:href="#LinBiolinum-6d" x="397.412109"/>
      <use xlink:href="#LinBiolinum-75" x="478.076172"/>
      <use xlink:href="#LinBiolinum-74" x="531.738281"/>
      <use xlink:href="#LinBiolinum-61" x="565.722656"/>
      <use xlink:href="#LinBiolinum-74" x="613.818359"/>
      <use xlink:href="#LinBiolinum-69" x="647.802734"/>
      <use xlink:href="#LinBiolinum-6f" x="673.779297"/>
      <use xlink:href="#LinBiolinum-6e" x="723.779297"/>
      <use xlink:href="#LinBiolinum-20" x="777.636719"/>
      <use xlink:href="#LinBiolinum-49" x="802.636719"/>
      <use xlink:href="#LinBiolinum-6d" x="832.03125"/>
      <use xlink:href="#LinBiolinum-70" x="912.695312"/>
      <use xlink:href="#LinBiolinum-6f" x="964.990234"/>
      <use xlink:href="#LinBiolinum-72" x="1014.990234"/>
      <use xlink:href="#LinBiolinum-74" x="1050.488281"/>
      <use xlink:href="#LinBiolinum-61" x="1084.472656"/>
      <use xlink:href="#LinBiolinum-6e" x="1132.568359"/>
      <use xlink:href="#LinBiolinum-63" x="1186.425781"/>
      <use xlink:href="#LinBiolinum-65" x="1229.296875"/>
     </g>
    </g>
   </g>
   <g id="matplotlib.axis_2">
    <g id="ytick_1">
     <g id="line2d_15">
      <path d="M 189.53875 132.48 
L 995.93875 132.48 
" clip-path="url(#p8913955ed9)" style="fill: none; stroke-dasharray: 3.2,0.8,0.5,0.8; stroke-dashoffset: 0; stroke: #808080; stroke-opacity: 0.8; stroke-width: 0.5"/>
     </g>
     <g id="line2d_16">
      <defs>
       <path id="m754e02be28" d="M 0 0 
L -3.5 0 
" style="stroke: #000000; stroke-width: 0.8"/>
      </defs>
      <g>
       <use xlink:href="#m754e02be28" x="189.53875" y="132.48" style="stroke: #000000; stroke-width: 0.8"/>
      </g>
     </g>
     <g id="text_9">
      <!-- Laser Power [W] -->
      <g transform="translate(99.084375 136.669687)scale(0.12 -0.12)">
       <defs>
        <path id="LinBiolinum-4c" d="M 1222 2847 
L 1222 1281 
Q 1222 566 1275 391 
Q 1659 391 2109 425 
Q 2559 459 2819 497 
L 3078 531 
L 3091 506 
Q 3078 403 3078 281 
Q 3078 178 3091 0 
L 3078 -19 
Q 2925 0 2694 0 
L 947 0 
L 616 -19 
L 609 0 
Q 672 434 672 1281 
L 672 2847 
Q 672 3672 609 4128 
L 622 4147 
Q 738 4128 947 4128 
Q 1166 4128 1281 4147 
L 1288 4128 
Q 1222 3703 1222 2847 
z
" transform="scale(0.015625)"/>
        <path id="LinBiolinum-73" d="M 319 647 
L 416 653 
Q 747 194 1172 191 
Q 1434 191 1596 333 
Q 1759 475 1759 722 
Q 1759 941 1603 1047 
Q 1447 1153 1113 1241 
Q 753 1338 550 1511 
Q 347 1684 347 2028 
Q 347 2400 634 2604 
Q 922 2809 1313 2809 
Q 1806 2809 2175 2619 
L 2188 2597 
L 2059 2125 
L 1972 2119 
Q 1850 2259 1792 2320 
Q 1734 2381 1587 2467 
Q 1441 2553 1288 2553 
Q 1075 2553 937 2448 
Q 800 2344 800 2150 
Q 800 1791 1394 1650 
Q 1791 1553 2028 1362 
Q 2266 1172 2266 813 
Q 2266 666 2217 525 
Q 2169 384 2058 243 
Q 1947 103 1719 20 
Q 1491 -63 1178 -63 
Q 703 -63 213 109 
L 319 647 
z
" transform="scale(0.015625)"/>
        <path id="LinBiolinum-77" d="M 1281 -25 
Q 659 1594 128 2759 
Q 231 2741 467 2741 
Q 703 2741 788 2759 
Q 806 2703 900 2404 
Q 994 2106 1022 2015 
Q 1050 1925 1133 1676 
Q 1216 1428 1267 1289 
Q 1319 1150 1397 948 
Q 1475 747 1553 569 
L 1594 569 
Q 1794 997 2134 1963 
Q 1972 2416 1856 2766 
Q 1959 2747 2195 2747 
Q 2431 2747 2516 2766 
Q 2806 1425 3128 578 
L 3178 578 
Q 3556 1459 3969 2766 
Q 4025 2747 4184 2747 
Q 4403 2747 4459 2766 
Q 4075 1922 3272 -19 
Q 3216 0 3034 0 
Q 2931 0 2869 -19 
Q 2775 241 2581 756 
Q 2388 1272 2297 1519 
Q 2106 1056 1722 -25 
Q 1666 -6 1491 -6 
Q 1344 -6 1281 -25 
z
" transform="scale(0.015625)"/>
        <path id="LinBiolinum-5b" d="M 703 -1228 
L 703 4500 
L 2081 4500 
L 2081 4306 
Q 1734 4281 1561 4250 
Q 1388 4219 1286 4131 
Q 1184 4044 1162 3933 
Q 1141 3822 1141 3591 
L 1141 -319 
Q 1141 -550 1159 -659 
Q 1178 -769 1279 -858 
Q 1381 -947 1557 -983 
Q 1734 -1019 2081 -1044 
L 2081 -1228 
L 703 -1228 
z
" transform="scale(0.015625)"/>
        <path id="LinBiolinum-57" d="M 4122 844 
Q 4141 888 4278 1202 
Q 4416 1516 4452 1603 
Q 4488 1691 4613 1981 
Q 4738 2272 4788 2397 
Q 4838 2522 4941 2772 
Q 5044 3022 5098 3169 
Q 5153 3316 5226 3511 
Q 5300 3706 5344 3859 
Q 5388 4013 5428 4147 
Q 5506 4128 5747 4128 
Q 5894 4128 5972 4147 
Q 4731 1422 4084 -63 
L 3903 -63 
Q 3528 991 3063 2250 
L 2034 -63 
L 1856 -63 
Q 1644 444 1241 1437 
Q 838 2431 541 3145 
Q 244 3859 103 4147 
Q 213 4128 488 4128 
Q 700 4128 806 4147 
Q 1184 2816 2069 788 
L 2081 788 
Q 2719 2269 2894 2700 
Q 2772 3025 2670 3295 
Q 2569 3566 2483 3789 
Q 2397 4013 2344 4147 
Q 2453 4128 2725 4128 
Q 2969 4128 3078 4147 
Q 3250 3366 4109 844 
L 4122 844 
z
" transform="scale(0.015625)"/>
        <path id="LinBiolinum-5d" d="M 1606 4500 
L 1606 -1228 
L 231 -1228 
L 231 -1038 
Q 578 -1013 750 -980 
Q 922 -947 1023 -861 
Q 1125 -775 1148 -662 
Q 1172 -550 1172 -319 
L 1172 3591 
Q 1172 3822 1151 3930 
Q 1131 4038 1029 4128 
Q 928 4219 751 4253 
Q 575 4288 231 4313 
L 231 4500 
L 1606 4500 
z
" transform="scale(0.015625)"/>
       </defs>
       <use xlink:href="#LinBiolinum-4c"/>
       <use xlink:href="#LinBiolinum-61" x="51.464844"/>
       <use xlink:href="#LinBiolinum-73" x="99.560547"/>
       <use xlink:href="#LinBiolinum-65" x="139.160156"/>
       <use xlink:href="#LinBiolinum-72" x="184.423828"/>
       <use xlink:href="#LinBiolinum-20" x="219.921875"/>
       <use xlink:href="#LinBiolinum-50" x="244.921875"/>
       <use xlink:href="#LinBiolinum-6f" x="300.78125"/>
       <use xlink:href="#LinBiolinum-77" x="350.78125"/>
       <use xlink:href="#LinBiolinum-65" x="422.460938"/>
       <use xlink:href="#LinBiolinum-72" x="467.724609"/>
       <use xlink:href="#LinBiolinum-20" x="503.222656"/>
       <use xlink:href="#LinBiolinum-5b" x="528.222656"/>
       <use xlink:href="#LinBiolinum-57" x="564.306641"/>
       <use xlink:href="#LinBiolinum-5d" x="659.375"/>
      </g>
     </g>
    </g>
    <g id="ytick_2">
     <g id="line2d_17">
      <path d="M 189.53875 226.98 
L 995.93875 226.98 
" clip-path="url(#p8913955ed9)" style="fill: none; stroke-dasharray: 3.2,0.8,0.5,0.8; stroke-dashoffset: 0; stroke: #808080; stroke-opacity: 0.8; stroke-width: 0.5"/>
     </g>
     <g id="line2d_18">
      <g>
       <use xlink:href="#m754e02be28" x="189.53875" y="226.98" style="stroke: #000000; stroke-width: 0.8"/>
      </g>
     </g>
     <g id="text_10">
      <!-- Hatch Distance [mm] -->
      <g transform="translate(74.95125 231.169687)scale(0.12 -0.12)">
       <defs>
        <path id="LinBiolinum-48" d="M 3431 2847 
Q 3431 3672 3366 4128 
L 3378 4147 
Q 3494 4128 3706 4128 
Q 3925 4128 4038 4147 
L 4044 4128 
Q 3981 3706 3981 2847 
L 3981 1281 
Q 3981 456 4044 0 
L 4031 -19 
Q 3916 0 3706 0 
Q 3488 0 3372 -19 
L 3366 0 
Q 3428 434 3431 1281 
L 3431 2053 
L 1216 2053 
L 1216 1281 
Q 1216 456 1281 0 
L 1269 -19 
Q 1153 0 941 0 
Q 722 0 609 -19 
L 603 0 
Q 666 434 666 1281 
L 666 2847 
Q 666 3672 603 4128 
L 616 4147 
Q 731 4128 941 4128 
Q 1159 4128 1275 4147 
L 1281 4128 
Q 1219 3706 1216 2847 
L 1216 2338 
L 3431 2338 
L 3431 2847 
z
" transform="scale(0.015625)"/>
        <path id="LinBiolinum-68" d="M 1088 2253 
L 1100 2234 
Q 1594 2809 2209 2809 
Q 2631 2809 2817 2559 
Q 3003 2309 3003 1797 
Q 3003 1694 2995 1473 
Q 2988 1253 2988 1153 
Q 2988 409 3047 0 
L 3034 -19 
Q 2919 0 2733 0 
Q 2547 0 2431 -19 
L 2419 0 
Q 2475 391 2478 1153 
L 2478 1778 
Q 2478 2156 2375 2290 
Q 2272 2425 2016 2425 
Q 1825 2425 1569 2297 
Q 1313 2169 1088 1900 
L 1088 1153 
Q 1088 444 1147 0 
L 1131 -19 
Q 1016 0 831 0 
Q 647 0 531 -19 
L 519 0 
Q 575 416 575 1153 
L 575 3078 
Q 575 4000 519 4319 
L 531 4341 
Q 819 4359 1088 4469 
Q 1144 4469 1147 4403 
Q 1091 3666 1088 3206 
L 1088 2253 
z
" transform="scale(0.015625)"/>
        <path id="LinBiolinum-44" d="M 1216 525 
Q 1216 366 1337 317 
Q 1459 269 1913 269 
Q 2284 269 2556 333 
Q 2828 397 3065 556 
Q 3303 716 3428 1033 
Q 3553 1350 3553 1819 
Q 3553 2216 3462 2558 
Q 3372 2900 3173 3206 
Q 2975 3513 2614 3689 
Q 2253 3866 1753 3866 
Q 1484 3866 1350 3814 
Q 1216 3763 1216 3609 
L 1216 525 
z
M 941 4128 
Q 1147 4128 1469 4137 
Q 1791 4147 1997 4147 
Q 2919 4147 3566 3508 
Q 4213 2869 4213 1972 
Q 4213 1519 4078 1162 
Q 3944 806 3734 592 
Q 3525 378 3240 237 
Q 2956 97 2681 42 
Q 2406 -13 2113 -13 
Q 1753 -13 1447 -6 
Q 1141 0 941 0 
L 609 -19 
L 603 0 
Q 666 434 666 1281 
L 666 2847 
Q 666 3672 603 4128 
L 616 4147 
Q 722 4128 941 4128 
z
" transform="scale(0.015625)"/>
       </defs>
       <use xlink:href="#LinBiolinum-48"/>
       <use xlink:href="#LinBiolinum-61" x="72.558594"/>
       <use xlink:href="#LinBiolinum-74" x="120.654297"/>
       <use xlink:href="#LinBiolinum-63" x="154.638672"/>
       <use xlink:href="#LinBiolinum-68" x="197.509766"/>
       <use xlink:href="#LinBiolinum-20" x="252.392578"/>
       <use xlink:href="#LinBiolinum-44" x="277.392578"/>
       <use xlink:href="#LinBiolinum-69" x="348.388672"/>
       <use xlink:href="#LinBiolinum-73" x="374.365234"/>
       <use xlink:href="#LinBiolinum-74" x="413.964844"/>
       <use xlink:href="#LinBiolinum-61" x="447.949219"/>
       <use xlink:href="#LinBiolinum-6e" x="496.044922"/>
       <use xlink:href="#LinBiolinum-63" x="549.902344"/>
       <use xlink:href="#LinBiolinum-65" x="592.773438"/>
       <use xlink:href="#LinBiolinum-20" x="638.037109"/>
       <use xlink:href="#LinBiolinum-5b" x="663.037109"/>
       <use xlink:href="#LinBiolinum-6d" x="699.121094"/>
       <use xlink:href="#LinBiolinum-6d" x="779.785156"/>
       <use xlink:href="#LinBiolinum-5d" x="860.449219"/>
      </g>
     </g>
    </g>
    <g id="ytick_3">
     <g id="line2d_19">
      <path d="M 189.53875 321.48 
L 995.93875 321.48 
" clip-path="url(#p8913955ed9)" style="fill: none; stroke-dasharray: 3.2,0.8,0.5,0.8; stroke-dashoffset: 0; stroke: #808080; stroke-opacity: 0.8; stroke-width: 0.5"/>
     </g>
     <g id="line2d_20">
      <g>
       <use xlink:href="#m754e02be28" x="189.53875" y="321.48" style="stroke: #000000; stroke-width: 0.8"/>
      </g>
     </g>
     <g id="text_11">
      <!-- Average Interlayertemperature [°C] -->
      <g transform="translate(7.2 325.69875)scale(0.12 -0.12)">
       <defs>
        <path id="LinBiolinum-41" d="M 2606 1763 
Q 2469 2122 2308 2515 
Q 2147 2909 1959 3341 
L 1947 3341 
L 1272 1766 
Q 1347 1766 1590 1759 
Q 1834 1753 1941 1753 
Q 2213 1753 2606 1763 
z
M 1147 1463 
Q 963 1009 825 634 
Q 688 259 616 -19 
Q 538 0 325 0 
Q 178 0 103 -19 
Q 1191 2369 1991 4213 
L 2169 4213 
Q 2388 3694 2788 2701 
Q 3188 1709 3484 986 
Q 3781 263 3922 -19 
Q 3813 0 3541 0 
Q 3328 0 3219 -19 
Q 3206 25 3189 83 
Q 3172 141 3142 239 
Q 3113 338 3072 461 
Q 3031 584 2981 732 
Q 2931 881 2864 1072 
Q 2797 1263 2722 1463 
Q 2513 1469 2325 1470 
Q 2138 1472 1972 1472 
Q 1606 1472 1147 1463 
z
" transform="scale(0.015625)"/>
        <path id="LinBiolinum-76" d="M 1259 -19 
Q 538 1863 128 2766 
Q 231 2747 467 2747 
Q 703 2747 788 2766 
Q 819 2666 920 2342 
Q 1022 2019 1069 1872 
Q 1116 1725 1203 1467 
Q 1291 1209 1373 998 
Q 1456 788 1547 578 
L 1559 578 
Q 1691 856 1820 1223 
Q 1950 1591 2098 2053 
Q 2247 2516 2338 2766 
Q 2394 2747 2553 2747 
Q 2738 2747 2797 2766 
Q 2003 975 1650 -19 
Q 1594 0 1458 0 
Q 1322 0 1259 -19 
z
" transform="scale(0.015625)"/>
        <path id="LinBiolinum-67" d="M 647 -666 
Q 647 -863 815 -1005 
Q 984 -1147 1167 -1197 
Q 1350 -1247 1484 -1247 
Q 1925 -1247 2242 -1087 
Q 2559 -928 2559 -647 
Q 2559 -334 2309 -184 
Q 2125 -75 1631 -78 
Q 1600 -78 1386 -87 
Q 1172 -97 1063 -97 
Q 891 -194 769 -353 
Q 647 -513 647 -666 
z
M 2497 1850 
Q 2497 1428 2222 1150 
Q 1947 872 1434 872 
Q 1128 872 959 959 
Q 769 794 769 603 
Q 769 419 867 359 
Q 966 300 1141 300 
Q 1147 300 1325 313 
Q 1569 344 1856 347 
Q 2509 347 2759 134 
Q 3028 -97 3028 -500 
Q 3028 -825 2765 -1065 
Q 2503 -1306 2122 -1414 
Q 1741 -1522 1306 -1522 
Q 1044 -1522 809 -1462 
Q 575 -1403 390 -1229 
Q 206 -1056 206 -794 
Q 206 -597 353 -372 
Q 431 -309 875 -59 
Q 888 -53 897 -47 
Q 650 -3 529 145 
Q 409 294 409 506 
Q 409 763 806 1038 
Q 353 1300 353 1838 
Q 353 2284 689 2546 
Q 1025 2809 1441 2809 
Q 1656 2809 1831 2753 
Q 2103 2769 2422 2817 
Q 2741 2866 2841 2875 
L 2859 2853 
Q 2841 2763 2841 2688 
Q 2841 2613 2859 2522 
L 2841 2503 
Q 2244 2566 2175 2569 
Q 2497 2356 2497 1850 
z
M 1997 1819 
Q 1997 2569 1416 2566 
Q 1141 2566 995 2380 
Q 850 2194 850 1869 
Q 850 1497 990 1311 
Q 1131 1125 1466 1125 
Q 1753 1125 1875 1306 
Q 1997 1488 1997 1819 
z
" transform="scale(0.015625)"/>
        <path id="LinBiolinum-6c" d="M 575 1281 
L 575 3084 
Q 575 4000 519 4319 
L 531 4341 
Q 819 4359 1088 4469 
Q 1144 4469 1147 4403 
Q 1091 3628 1088 3200 
L 1088 1281 
Q 1088 425 1147 0 
L 1131 -19 
Q 1016 0 831 0 
Q 647 0 531 -19 
L 519 0 
Q 575 409 575 1281 
z
" transform="scale(0.015625)"/>
        <path id="LinBiolinum-79" d="M 178 2766 
Q 269 2747 513 2747 
Q 744 2747 825 2766 
Q 1038 2113 1681 559 
L 1694 559 
Q 2125 1478 2534 2766 
Q 2597 2747 2784 2747 
Q 2997 2747 3059 2766 
Q 2784 2209 2073 606 
Q 1363 -997 1203 -1516 
Q 1094 -1484 891 -1484 
Q 775 -1484 666 -1516 
Q 1125 -741 1422 -63 
Q 1291 281 178 2766 
z
" transform="scale(0.015625)"/>
        <path id="LinBiolinum-b0" d="M 1281 3353 
Q 1281 3531 1168 3676 
Q 1056 3822 857 3822 
Q 659 3822 543 3681 
Q 428 3541 428 3353 
Q 428 3175 547 3040 
Q 666 2906 856 2906 
Q 1041 2906 1161 3043 
Q 1281 3181 1281 3353 
z
M 219 3359 
Q 219 3628 406 3814 
Q 594 4000 856 4000 
Q 1119 4000 1305 3814 
Q 1491 3628 1491 3359 
Q 1491 3097 1305 2911 
Q 1119 2725 856 2725 
Q 594 2725 406 2911 
Q 219 3097 219 3359 
z
" transform="scale(0.015625)"/>
        <path id="LinBiolinum-43" d="M 2431 4213 
Q 2778 4213 3126 4142 
Q 3475 4072 3650 3997 
L 3828 3922 
L 3841 3903 
Q 3731 3444 3713 3194 
L 3647 3188 
Q 3288 3909 2344 3909 
Q 2131 3909 1907 3811 
Q 1684 3713 1471 3514 
Q 1259 3316 1125 2956 
Q 991 2597 991 2138 
Q 991 1650 1148 1234 
Q 1306 819 1648 541 
Q 1991 263 2463 263 
Q 2903 263 3192 403 
Q 3481 544 3828 922 
L 3981 800 
Q 3322 -63 2406 -63 
Q 1747 -63 1264 246 
Q 781 556 556 1020 
Q 331 1484 331 2016 
Q 331 2938 965 3575 
Q 1600 4213 2431 4213 
z
" transform="scale(0.015625)"/>
       </defs>
       <use xlink:href="#LinBiolinum-41"/>
       <use xlink:href="#LinBiolinum-76" x="62.890625"/>
       <use xlink:href="#LinBiolinum-65" x="108.544922"/>
       <use xlink:href="#LinBiolinum-72" x="153.808594"/>
       <use xlink:href="#LinBiolinum-61" x="189.306641"/>
       <use xlink:href="#LinBiolinum-67" x="237.402344"/>
       <use xlink:href="#LinBiolinum-65" x="287.255859"/>
       <use xlink:href="#LinBiolinum-20" x="332.519531"/>
       <use xlink:href="#LinBiolinum-49" x="357.519531"/>
       <use xlink:href="#LinBiolinum-6e" x="386.914062"/>
       <use xlink:href="#LinBiolinum-74" x="440.771484"/>
       <use xlink:href="#LinBiolinum-65" x="474.755859"/>
       <use xlink:href="#LinBiolinum-72" x="520.019531"/>
       <use xlink:href="#LinBiolinum-6c" x="555.517578"/>
       <use xlink:href="#LinBiolinum-61" x="580.712891"/>
       <use xlink:href="#LinBiolinum-79" x="628.808594"/>
       <use xlink:href="#LinBiolinum-65" x="679.394531"/>
       <use xlink:href="#LinBiolinum-72" x="724.658203"/>
       <use xlink:href="#LinBiolinum-74" x="760.15625"/>
       <use xlink:href="#LinBiolinum-65" x="794.140625"/>
       <use xlink:href="#LinBiolinum-6d" x="839.404297"/>
       <use xlink:href="#LinBiolinum-70" x="920.068359"/>
       <use xlink:href="#LinBiolinum-65" x="972.363281"/>
       <use xlink:href="#LinBiolinum-72" x="1017.626953"/>
       <use xlink:href="#LinBiolinum-61" x="1053.125"/>
       <use xlink:href="#LinBiolinum-74" x="1101.220703"/>
       <use xlink:href="#LinBiolinum-75" x="1135.205078"/>
       <use xlink:href="#LinBiolinum-72" x="1188.867188"/>
       <use xlink:href="#LinBiolinum-65" x="1224.365234"/>
       <use xlink:href="#LinBiolinum-20" x="1269.628906"/>
       <use xlink:href="#LinBiolinum-5b" x="1294.628906"/>
       <use xlink:href="#LinBiolinum-b0" x="1330.712891"/>
       <use xlink:href="#LinBiolinum-43" x="1357.373047"/>
       <use xlink:href="#LinBiolinum-5d" x="1425.048828"/>
      </g>
     </g>
    </g>
    <g id="ytick_4">
     <g id="line2d_21">
      <path d="M 189.53875 415.98 
L 995.93875 415.98 
" clip-path="url(#p8913955ed9)" style="fill: none; stroke-dasharray: 3.2,0.8,0.5,0.8; stroke-dashoffset: 0; stroke: #808080; stroke-opacity: 0.8; stroke-width: 0.5"/>
     </g>
     <g id="line2d_22">
      <g>
       <use xlink:href="#m754e02be28" x="189.53875" y="415.98" style="stroke: #000000; stroke-width: 0.8"/>
      </g>
     </g>
     <g id="text_12">
      <!-- Duration [s] -->
      <g transform="translate(121.479375 420.169687)scale(0.12 -0.12)">
       <use xlink:href="#LinBiolinum-44"/>
       <use xlink:href="#LinBiolinum-75" x="70.996094"/>
       <use xlink:href="#LinBiolinum-72" x="124.658203"/>
       <use xlink:href="#LinBiolinum-61" x="160.15625"/>
       <use xlink:href="#LinBiolinum-74" x="208.251953"/>
       <use xlink:href="#LinBiolinum-69" x="242.236328"/>
       <use xlink:href="#LinBiolinum-6f" x="268.212891"/>
       <use xlink:href="#LinBiolinum-6e" x="318.212891"/>
       <use xlink:href="#LinBiolinum-20" x="372.070312"/>
       <use xlink:href="#LinBiolinum-5b" x="397.070312"/>
       <use xlink:href="#LinBiolinum-73" x="433.154297"/>
       <use xlink:href="#LinBiolinum-5d" x="472.753906"/>
      </g>
     </g>
    </g>
    <g id="ytick_5">
     <g id="line2d_23">
      <path d="M 189.53875 510.48 
L 995.93875 510.48 
" clip-path="url(#p8913955ed9)" style="fill: none; stroke-dasharray: 3.2,0.8,0.5,0.8; stroke-dashoffset: 0; stroke: #808080; stroke-opacity: 0.8; stroke-width: 0.5"/>
     </g>
     <g id="line2d_24">
      <g>
       <use xlink:href="#m754e02be28" x="189.53875" y="510.48" style="stroke: #000000; stroke-width: 0.8"/>
      </g>
     </g>
     <g id="text_13">
      <!-- Scan Speed [mm/s] -->
      <g transform="translate(86.874375 514.69875)scale(0.12 -0.12)">
       <defs>
        <path id="LinBiolinum-53" d="M 1550 219 
Q 1850 219 2073 420 
Q 2297 622 2297 966 
Q 2297 1338 2105 1539 
Q 1913 1741 1550 1894 
Q 1313 1991 1145 2086 
Q 978 2181 806 2326 
Q 634 2472 540 2665 
Q 447 2859 447 3103 
Q 447 3434 648 3704 
Q 850 3975 1153 4103 
Q 1416 4213 1703 4213 
Q 2034 4213 2287 4142 
Q 2541 4072 2631 3997 
L 2719 3922 
L 2731 3903 
Q 2609 3500 2584 3263 
L 2522 3256 
Q 2394 3556 2153 3742 
Q 1913 3928 1650 3928 
Q 1406 3928 1259 3853 
Q 1138 3791 1052 3620 
Q 966 3450 966 3278 
Q 966 3094 1036 2945 
Q 1106 2797 1240 2701 
Q 1375 2606 1481 2551 
Q 1588 2497 1747 2438 
Q 2894 2009 2894 1159 
Q 2894 609 2497 273 
Q 2100 -63 1497 -63 
Q 1166 -63 873 7 
Q 581 78 456 150 
L 331 225 
L 319 244 
Q 447 719 469 903 
L 531 909 
Q 678 628 979 423 
Q 1281 219 1550 219 
z
" transform="scale(0.015625)"/>
        <path id="LinBiolinum-64" d="M 2309 722 
L 2309 2181 
Q 2188 2372 2053 2462 
Q 1919 2553 1703 2553 
Q 1569 2553 1441 2504 
Q 1313 2456 1178 2345 
Q 1044 2234 964 1993 
Q 884 1753 884 1416 
Q 884 847 1062 558 
Q 1241 269 1522 269 
Q 1950 269 2309 722 
z
M 2309 372 
Q 1969 -63 1484 -63 
Q 972 -63 648 350 
Q 325 763 325 1363 
Q 325 2009 733 2409 
Q 1141 2809 1772 2809 
Q 2059 2809 2309 2669 
L 2309 3084 
Q 2309 4000 2253 4319 
L 2266 4341 
Q 2553 4359 2822 4469 
Q 2878 4469 2881 4403 
Q 2825 3694 2822 3200 
L 2822 1228 
Q 2822 581 2931 0 
L 2919 -19 
Q 2791 0 2634 0 
Q 2559 0 2413 -19 
Q 2356 -19 2356 0 
L 2322 372 
L 2309 372 
z
" transform="scale(0.015625)"/>
        <path id="LinBiolinum-2f" d="M 1875 4134 
L 359 -378 
L 97 -378 
L 1613 4134 
L 1875 4134 
z
" transform="scale(0.015625)"/>
       </defs>
       <use xlink:href="#LinBiolinum-53"/>
       <use xlink:href="#LinBiolinum-63" x="50.585938"/>
       <use xlink:href="#LinBiolinum-61" x="93.457031"/>
       <use xlink:href="#LinBiolinum-6e" x="141.552734"/>
       <use xlink:href="#LinBiolinum-20" x="195.410156"/>
       <use xlink:href="#LinBiolinum-53" x="220.410156"/>
       <use xlink:href="#LinBiolinum-70" x="270.996094"/>
       <use xlink:href="#LinBiolinum-65" x="323.291016"/>
       <use xlink:href="#LinBiolinum-65" x="368.554688"/>
       <use xlink:href="#LinBiolinum-64" x="413.818359"/>
       <use xlink:href="#LinBiolinum-20" x="466.796875"/>
       <use xlink:href="#LinBiolinum-5b" x="491.796875"/>
       <use xlink:href="#LinBiolinum-6d" x="527.880859"/>
       <use xlink:href="#LinBiolinum-6d" x="608.544922"/>
       <use xlink:href="#LinBiolinum-2f" x="689.208984"/>
       <use xlink:href="#LinBiolinum-73" x="721.484375"/>
       <use xlink:href="#LinBiolinum-5d" x="761.083984"/>
      </g>
     </g>
    </g>
   </g>
   <g id="LineCollection_1">
    <path d="M 435.575793 132.48 
L 957.53875 132.48 
" clip-path="url(#p8913955ed9)" style="fill: none; stroke: #000000; stroke-width: 1.5"/>
    <path d="M 218.989603 226.98 
L 674.721106 226.98 
" clip-path="url(#p8913955ed9)" style="fill: none; stroke: #000000; stroke-width: 1.5"/>
    <path d="M 343.137754 321.48 
L 547.089202 321.48 
" clip-path="url(#p8913955ed9)" style="fill: none; stroke: #000000; stroke-width: 1.5"/>
    <path d="M 197.520532 415.98 
L 438.906687 415.98 
" clip-path="url(#p8913955ed9)" style="fill: none; stroke: #000000; stroke-width: 1.5"/>
    <path d="M 276.97507 510.48 
L 344.45738 510.48 
" clip-path="url(#p8913955ed9)" style="fill: none; stroke: #000000; stroke-width: 1.5"/>
   </g>
   <g id="LineCollection_2"/>
   <g id="line2d_25">
    <path d="M 189.53875 570.96 
L 189.53875 72 
" clip-path="url(#p8913955ed9)" style="fill: none; stroke: #000000; stroke-width: 0.5; stroke-linecap: square"/>
   </g>
   <g id="patch_8">
    <path d="M 189.53875 570.96 
L 189.53875 72 
" style="fill: none; stroke: #000000; stroke-width: 0.8; stroke-linejoin: miter; stroke-linecap: square"/>
   </g>
   <g id="patch_9">
    <path d="M 995.93875 570.96 
L 995.93875 72 
" style="fill: none; stroke: #000000; stroke-width: 0.8; stroke-linejoin: miter; stroke-linecap: square"/>
   </g>
   <g id="patch_10">
    <path d="M 189.53875 570.96 
L 995.93875 570.96 
" style="fill: none; stroke: #000000; stroke-width: 0.8; stroke-linejoin: miter; stroke-linecap: square"/>
   </g>
   <g id="patch_11">
    <path d="M 189.53875 72 
L 995.93875 72 
" style="fill: none; stroke: #000000; stroke-width: 0.8; stroke-linejoin: miter; stroke-linecap: square"/>
   </g>
   <g id="legend_1">
    <g id="patch_12">
     <path d="M 717.59875 133.254375 
L 987.53875 133.254375 
Q 989.93875 133.254375 989.93875 130.854375 
L 989.93875 80.4 
Q 989.93875 78 987.53875 78 
L 717.59875 78 
Q 715.19875 78 715.19875 80.4 
L 715.19875 130.854375 
Q 715.19875 133.254375 717.59875 133.254375 
z
" style="fill: #ffffff; opacity: 0.8; stroke: #cccccc; stroke-linejoin: miter"/>
    </g>
    <g id="patch_13">
     <path d="M 719.99875 91.2 
L 743.99875 91.2 
L 743.99875 82.8 
L 719.99875 82.8 
z
" style="fill: #228b22; stroke: #228b22; stroke-linejoin: miter"/>
    </g>
    <g id="text_14">
     <!-- Acceptable Mean Permutation Importance -->
     <g transform="translate(753.59875 91.2)scale(0.12 -0.12)">
      <defs>
       <path id="LinBiolinum-62" d="M 1038 519 
Q 1141 391 1300 291 
Q 1459 191 1600 191 
Q 2041 191 2242 505 
Q 2444 819 2444 1434 
Q 2444 1997 2236 2275 
Q 2028 2553 1709 2553 
Q 1525 2553 1383 2467 
Q 1241 2381 1038 2175 
L 1038 519 
z
M 1038 3200 
L 1038 2491 
Q 1331 2809 1838 2809 
Q 2319 2809 2667 2431 
Q 3016 2053 3016 1484 
Q 3016 728 2602 332 
Q 2188 -63 1638 -63 
Q 1247 -63 884 250 
Q 781 59 672 -63 
Q 544 -63 494 -13 
Q 525 153 525 469 
L 525 3084 
Q 525 3891 447 4319 
L 459 4341 
Q 747 4359 1019 4469 
Q 1075 4469 1075 4403 
Q 1038 3903 1038 3200 
z
" transform="scale(0.015625)"/>
      </defs>
      <use xlink:href="#LinBiolinum-41"/>
      <use xlink:href="#LinBiolinum-63" x="62.890625"/>
      <use xlink:href="#LinBiolinum-63" x="105.761719"/>
      <use xlink:href="#LinBiolinum-65" x="148.632812"/>
      <use xlink:href="#LinBiolinum-70" x="193.896484"/>
      <use xlink:href="#LinBiolinum-74" x="246.191406"/>
      <use xlink:href="#LinBiolinum-61" x="280.175781"/>
      <use xlink:href="#LinBiolinum-62" x="328.271484"/>
      <use xlink:href="#LinBiolinum-6c" x="378.662109"/>
      <use xlink:href="#LinBiolinum-65" x="403.857422"/>
      <use xlink:href="#LinBiolinum-20" x="449.121094"/>
      <use xlink:href="#LinBiolinum-4d" x="474.121094"/>
      <use xlink:href="#LinBiolinum-65" x="562.695312"/>
      <use xlink:href="#LinBiolinum-61" x="607.958984"/>
      <use xlink:href="#LinBiolinum-6e" x="656.054688"/>
      <use xlink:href="#LinBiolinum-20" x="709.912109"/>
      <use xlink:href="#LinBiolinum-50" x="734.912109"/>
      <use xlink:href="#LinBiolinum-65" x="790.771484"/>
      <use xlink:href="#LinBiolinum-72" x="836.035156"/>
      <use xlink:href="#LinBiolinum-6d" x="871.533203"/>
      <use xlink:href="#LinBiolinum-75" x="952.197266"/>
      <use xlink:href="#LinBiolinum-74" x="1005.859375"/>
      <use xlink:href="#LinBiolinum-61" x="1039.84375"/>
      <use xlink:href="#LinBiolinum-74" x="1087.939453"/>
      <use xlink:href="#LinBiolinum-69" x="1121.923828"/>
      <use xlink:href="#LinBiolinum-6f" x="1147.900391"/>
      <use xlink:href="#LinBiolinum-6e" x="1197.900391"/>
      <use xlink:href="#LinBiolinum-20" x="1251.757812"/>
      <use xlink:href="#LinBiolinum-49" x="1276.757812"/>
      <use xlink:href="#LinBiolinum-6d" x="1306.152344"/>
      <use xlink:href="#LinBiolinum-70" x="1386.816406"/>
      <use xlink:href="#LinBiolinum-6f" x="1439.111328"/>
      <use xlink:href="#LinBiolinum-72" x="1489.111328"/>
      <use xlink:href="#LinBiolinum-74" x="1524.609375"/>
      <use xlink:href="#LinBiolinum-61" x="1558.59375"/>
      <use xlink:href="#LinBiolinum-6e" x="1606.689453"/>
      <use xlink:href="#LinBiolinum-63" x="1660.546875"/>
      <use xlink:href="#LinBiolinum-65" x="1703.417969"/>
     </g>
    </g>
    <g id="patch_14">
     <path d="M 719.99875 108.418125 
L 743.99875 108.418125 
L 743.99875 100.018125 
L 719.99875 100.018125 
z
" style="fill: #b22222; stroke: #b22222; stroke-linejoin: miter"/>
    </g>
    <g id="text_15">
     <!-- Not Acceptable Mean Permutation Importance -->
     <g transform="translate(753.59875 108.418125)scale(0.12 -0.12)">
      <defs>
       <path id="LinBiolinum-4e" d="M 691 4128 
L 703 4147 
Q 753 4128 972 4128 
Q 972 4128 1063 4141 
L 3256 1300 
Q 3513 969 3559 947 
Q 3606 925 3622 1006 
Q 3631 1053 3634 1141 
L 3634 2847 
Q 3634 3672 3572 4128 
L 3584 4147 
Q 3700 4128 3808 4128 
Q 3916 4128 4031 4147 
L 4044 4128 
Q 4006 3628 3984 3081 
Q 3963 2534 3956 2173 
Q 3950 1813 3936 1147 
Q 3922 481 3916 134 
Q 3903 -63 3794 -63 
Q 3634 -63 3519 91 
L 1288 2913 
Q 1191 3041 1145 3089 
Q 1100 3138 1072 3120 
Q 1044 3103 1041 3039 
Q 1038 2975 1038 2809 
L 1038 1281 
Q 1038 456 1100 0 
L 1088 -19 
Q 972 0 864 0 
Q 756 0 641 -19 
L 628 0 
Q 706 744 720 1991 
Q 734 3238 691 4128 
z
" transform="scale(0.015625)"/>
      </defs>
      <use xlink:href="#LinBiolinum-4e"/>
      <use xlink:href="#LinBiolinum-6f" x="71.777344"/>
      <use xlink:href="#LinBiolinum-74" x="121.777344"/>
      <use xlink:href="#LinBiolinum-20" x="155.761719"/>
      <use xlink:href="#LinBiolinum-41" x="180.761719"/>
      <use xlink:href="#LinBiolinum-63" x="243.652344"/>
      <use xlink:href="#LinBiolinum-63" x="286.523438"/>
      <use xlink:href="#LinBiolinum-65" x="329.394531"/>
      <use xlink:href="#LinBiolinum-70" x="374.658203"/>
      <use xlink:href="#LinBiolinum-74" x="426.953125"/>
      <use xlink:href="#LinBiolinum-61" x="460.9375"/>
      <use xlink:href="#LinBiolinum-62" x="509.033203"/>
      <use xlink:href="#LinBiolinum-6c" x="559.423828"/>
      <use xlink:href="#LinBiolinum-65" x="584.619141"/>
      <use xlink:href="#LinBiolinum-20" x="629.882812"/>
      <use xlink:href="#LinBiolinum-4d" x="654.882812"/>
      <use xlink:href="#LinBiolinum-65" x="743.457031"/>
      <use xlink:href="#LinBiolinum-61" x="788.720703"/>
      <use xlink:href="#LinBiolinum-6e" x="836.816406"/>
      <use xlink:href="#LinBiolinum-20" x="890.673828"/>
      <use xlink:href="#LinBiolinum-50" x="915.673828"/>
      <use xlink:href="#LinBiolinum-65" x="971.533203"/>
      <use xlink:href="#LinBiolinum-72" x="1016.796875"/>
      <use xlink:href="#LinBiolinum-6d" x="1052.294922"/>
      <use xlink:href="#LinBiolinum-75" x="1132.958984"/>
      <use xlink:href="#LinBiolinum-74" x="1186.621094"/>
      <use xlink:href="#LinBiolinum-61" x="1220.605469"/>
      <use xlink:href="#LinBiolinum-74" x="1268.701172"/>
      <use xlink:href="#LinBiolinum-69" x="1302.685547"/>
      <use xlink:href="#LinBiolinum-6f" x="1328.662109"/>
      <use xlink:href="#LinBiolinum-6e" x="1378.662109"/>
      <use xlink:href="#LinBiolinum-20" x="1432.519531"/>
      <use xlink:href="#LinBiolinum-49" x="1457.519531"/>
      <use xlink:href="#LinBiolinum-6d" x="1486.914062"/>
      <use xlink:href="#LinBiolinum-70" x="1567.578125"/>
      <use xlink:href="#LinBiolinum-6f" x="1619.873047"/>
      <use xlink:href="#LinBiolinum-72" x="1669.873047"/>
      <use xlink:href="#LinBiolinum-74" x="1705.371094"/>
      <use xlink:href="#LinBiolinum-61" x="1739.355469"/>
      <use xlink:href="#LinBiolinum-6e" x="1787.451172"/>
      <use xlink:href="#LinBiolinum-63" x="1841.308594"/>
      <use xlink:href="#LinBiolinum-65" x="1884.179688"/>
     </g>
    </g>
    <g id="line2d_26">
     <path d="M 719.99875 121.43625 
L 731.99875 121.43625 
L 743.99875 121.43625 
" style="fill: none; stroke: #000000; stroke-linecap: square"/>
    </g>
    <g id="text_16">
     <!-- Standart Derivation of Importances -->
     <g transform="translate(753.59875 125.63625)scale(0.12 -0.12)">
      <defs>
       <path id="LinBiolinum-66" d="M 634 2747 
L 634 2994 
Q 634 3531 984 3975 
Q 1163 4206 1448 4337 
Q 1734 4469 2034 4469 
Q 2219 4469 2322 4403 
L 2328 4384 
Q 2231 4194 2150 3859 
L 2081 3853 
Q 1959 4078 1709 4078 
Q 1434 4078 1273 3914 
Q 1113 3750 1113 3481 
Q 1113 3438 1130 3184 
Q 1147 2931 1147 2803 
L 1147 2747 
L 1422 2747 
Q 1600 2747 1869 2759 
L 1900 2713 
Q 1850 2584 1825 2450 
Q 1697 2463 1363 2463 
L 1147 2463 
L 1147 1275 
Q 1147 431 1209 0 
L 1197 -19 
Q 1081 0 889 0 
Q 697 0 581 -19 
L 569 0 
Q 631 403 634 1275 
L 634 2463 
L 628 2463 
Q 334 2463 153 2450 
L 122 2497 
Q 213 2638 263 2759 
Q 359 2747 634 2747 
z
" transform="scale(0.015625)"/>
      </defs>
      <use xlink:href="#LinBiolinum-53"/>
      <use xlink:href="#LinBiolinum-74" x="50.585938"/>
      <use xlink:href="#LinBiolinum-61" x="84.570312"/>
      <use xlink:href="#LinBiolinum-6e" x="132.666016"/>
      <use xlink:href="#LinBiolinum-64" x="186.523438"/>
      <use xlink:href="#LinBiolinum-61" x="239.501953"/>
      <use xlink:href="#LinBiolinum-72" x="287.597656"/>
      <use xlink:href="#LinBiolinum-74" x="323.095703"/>
      <use xlink:href="#LinBiolinum-20" x="357.080078"/>
      <use xlink:href="#LinBiolinum-44" x="382.080078"/>
      <use xlink:href="#LinBiolinum-65" x="453.076172"/>
      <use xlink:href="#LinBiolinum-72" x="498.339844"/>
      <use xlink:href="#LinBiolinum-69" x="533.837891"/>
      <use xlink:href="#LinBiolinum-76" x="559.814453"/>
      <use xlink:href="#LinBiolinum-61" x="605.46875"/>
      <use xlink:href="#LinBiolinum-74" x="653.564453"/>
      <use xlink:href="#LinBiolinum-69" x="687.548828"/>
      <use xlink:href="#LinBiolinum-6f" x="713.525391"/>
      <use xlink:href="#LinBiolinum-6e" x="763.525391"/>
      <use xlink:href="#LinBiolinum-20" x="817.382812"/>
      <use xlink:href="#LinBiolinum-6f" x="842.382812"/>
      <use xlink:href="#LinBiolinum-66" x="892.382812"/>
      <use xlink:href="#LinBiolinum-20" x="923.779297"/>
      <use xlink:href="#LinBiolinum-49" x="948.779297"/>
      <use xlink:href="#LinBiolinum-6d" x="978.173828"/>
      <use xlink:href="#LinBiolinum-70" x="1058.837891"/>
      <use xlink:href="#LinBiolinum-6f" x="1111.132812"/>
      <use xlink:href="#LinBiolinum-72" x="1161.132812"/>
      <use xlink:href="#LinBiolinum-74" x="1196.630859"/>
      <use xlink:href="#LinBiolinum-61" x="1230.615234"/>
      <use xlink:href="#LinBiolinum-6e" x="1278.710938"/>
      <use xlink:href="#LinBiolinum-63" x="1332.568359"/>
      <use xlink:href="#LinBiolinum-65" x="1375.439453"/>
      <use xlink:href="#LinBiolinum-73" x="1420.703125"/>
     </g>
    </g>
   </g>
  </g>
  <g id="text_17">
   <!-- Visualisation of Mean Permutation Importance of each Feature  -->
   <g transform="translate(286.53625 19.2663)scale(0.1728 -0.1728)">
    <defs>
     <path id="LinBiolinumB-56" d="M 2331 1144 
Q 3309 3406 3506 4147 
Q 3584 4128 3878 4128 
Q 4109 4128 4184 4147 
Q 2944 1422 2297 -63 
L 1856 -63 
Q 1644 444 1241 1437 
Q 838 2431 541 3145 
Q 244 3859 103 4147 
Q 213 4128 750 4128 
Q 1128 4128 1234 4147 
Q 1603 2866 2331 1144 
z
" transform="scale(0.015625)"/>
     <path id="LinBiolinumB-69" d="M 656 3562 
Q 519 3694 519 3886 
Q 519 4078 656 4209 
Q 794 4341 998 4341 
Q 1203 4341 1340 4209 
Q 1478 4078 1478 3886 
Q 1478 3694 1340 3562 
Q 1203 3431 998 3431 
Q 794 3431 656 3562 
z
M 575 1503 
Q 575 2394 513 2741 
L 531 2766 
Q 563 2766 727 2756 
Q 891 2747 984 2747 
Q 1144 2747 1428 2778 
Q 1484 2778 1484 2713 
Q 1422 1931 1422 1575 
L 1422 1153 
Q 1422 456 1484 0 
L 1472 -19 
Q 1184 0 998 0 
Q 813 0 525 -19 
L 513 0 
Q 575 434 575 1153 
L 575 1503 
z
" transform="scale(0.015625)"/>
     <path id="LinBiolinumB-73" d="M 347 722 
L 538 728 
Q 800 216 1222 219 
Q 1369 219 1448 231 
Q 1528 244 1595 317 
Q 1663 391 1663 531 
Q 1663 716 1542 837 
Q 1422 959 1056 1159 
Q 731 1338 554 1533 
Q 378 1728 378 2034 
Q 378 2394 692 2601 
Q 1006 2809 1459 2809 
Q 2009 2809 2309 2644 
L 2322 2625 
L 2203 2047 
L 2028 2041 
Q 1803 2522 1447 2522 
Q 1134 2522 1131 2209 
Q 1131 2069 1228 1975 
Q 1325 1881 1516 1778 
Q 1541 1766 1683 1692 
Q 1825 1619 1856 1600 
Q 1888 1581 2000 1511 
Q 2113 1441 2147 1402 
Q 2181 1363 2254 1286 
Q 2328 1209 2351 1142 
Q 2375 1075 2400 983 
Q 2425 891 2425 781 
Q 2425 422 2128 179 
Q 1831 -63 1241 -63 
Q 709 -63 244 109 
L 347 722 
z
" transform="scale(0.015625)"/>
     <path id="LinBiolinumB-75" d="M 2381 409 
Q 1941 -66 1306 -63 
Q 866 -63 656 185 
Q 447 434 453 806 
L 469 1594 
Q 475 2169 416 2747 
L 428 2766 
Q 659 2747 878 2747 
L 1356 2766 
L 1363 2747 
Q 1331 2406 1313 1594 
L 1300 1019 
Q 1294 659 1389 543 
Q 1484 428 1663 428 
Q 1900 428 2140 623 
Q 2381 819 2381 1081 
L 2381 1594 
Q 2381 2388 2338 2747 
L 2350 2766 
Q 2569 2747 2784 2747 
L 3278 2766 
L 3284 2747 
Q 3228 2406 3225 1594 
L 3225 1228 
Q 3225 581 3334 0 
L 3322 -19 
Q 3200 0 2850 0 
Q 2628 0 2484 -19 
Q 2428 -19 2425 0 
L 2394 409 
L 2381 409 
z
" transform="scale(0.015625)"/>
     <path id="LinBiolinumB-61" d="M 1991 1422 
L 1478 1288 
Q 1075 1178 1075 684 
Q 1075 550 1172 434 
Q 1269 319 1409 319 
Q 1666 319 1881 538 
Q 1913 569 1945 666 
Q 1978 763 1978 825 
L 1991 1422 
z
M 2797 513 
Q 2797 366 2883 323 
Q 2969 281 3188 281 
Q 3238 238 3250 147 
Q 2975 -66 2491 -63 
Q 2284 -63 2168 23 
Q 2053 109 1984 306 
L 1972 306 
Q 1600 -66 1094 -63 
Q 734 -63 476 125 
Q 219 313 219 628 
Q 219 953 478 1190 
Q 738 1428 1203 1538 
L 1953 1734 
Q 1991 1747 1991 1813 
Q 1991 2172 1881 2317 
Q 1772 2463 1550 2463 
Q 1109 2463 763 1959 
L 550 1966 
L 422 2444 
L 441 2472 
Q 569 2588 928 2698 
Q 1288 2809 1606 2809 
Q 1866 2813 2145 2747 
Q 2425 2681 2566 2553 
Q 2822 2322 2822 1772 
Q 2822 1753 2809 1187 
Q 2797 622 2797 513 
z
" transform="scale(0.015625)"/>
     <path id="LinBiolinumB-6c" d="M 550 1281 
L 550 3034 
Q 550 3809 475 4238 
L 488 4256 
Q 666 4269 967 4342 
Q 1269 4416 1403 4469 
Q 1475 4469 1472 4403 
Q 1394 3788 1394 3200 
L 1394 1281 
Q 1394 513 1472 0 
L 1459 -19 
Q 1191 0 972 0 
L 481 -19 
L 475 0 
Q 550 488 550 1281 
z
" transform="scale(0.015625)"/>
     <path id="LinBiolinumB-74" d="M 153 2425 
Q 69 2425 72 2528 
Q 72 2600 115 2673 
Q 159 2747 206 2747 
L 575 2747 
Q 575 3125 531 3391 
L 544 3413 
Q 800 3469 1375 3700 
Q 1431 3700 1434 3634 
Q 1403 3166 1403 2747 
L 2088 2747 
Q 2138 2747 2138 2706 
L 2138 2509 
Q 2138 2425 1984 2425 
L 1403 2425 
L 1388 1741 
Q 1381 1391 1381 838 
Q 1381 788 1384 742 
Q 1388 697 1394 651 
Q 1400 606 1411 567 
Q 1422 528 1436 493 
Q 1450 459 1469 432 
Q 1488 406 1509 386 
Q 1531 366 1559 356 
Q 1588 347 1619 347 
Q 1838 347 1991 422 
Q 2100 353 2100 159 
Q 1728 -66 1159 -63 
Q 872 -63 705 126 
Q 538 316 538 563 
Q 538 903 556 1672 
L 575 2425 
L 153 2425 
z
" transform="scale(0.015625)"/>
     <path id="LinBiolinumB-6f" d="M 263 1313 
Q 263 2034 688 2425 
Q 1113 2816 1825 2809 
Q 2600 2809 2979 2412 
Q 3359 2016 3359 1369 
Q 3359 703 2950 320 
Q 2541 -63 1813 -63 
Q 1097 -63 680 304 
Q 263 672 263 1313 
z
M 1778 2491 
Q 1516 2491 1375 2336 
Q 1234 2181 1203 1982 
Q 1172 1784 1172 1459 
Q 1172 256 1900 256 
Q 2450 256 2450 1197 
Q 2450 1894 2309 2192 
Q 2169 2491 1778 2491 
z
" transform="scale(0.015625)"/>
     <path id="LinBiolinumB-6e" d="M 3278 1153 
Q 3278 450 3347 0 
L 3334 -19 
Q 3053 0 2834 0 
Q 2834 0 2406 -19 
L 2394 0 
Q 2431 341 2431 1153 
L 2431 1722 
Q 2431 2316 2100 2316 
Q 1747 2316 1356 1806 
L 1356 1153 
Q 1356 438 1394 0 
L 1375 -19 
Q 1197 0 978 0 
Q 978 0 453 -19 
L 441 0 
Q 513 441 513 1153 
L 513 1503 
Q 513 2353 441 2747 
L 453 2766 
Q 1003 2741 1288 2784 
Q 1331 2784 1343 2720 
Q 1356 2656 1356 2253 
L 1381 2234 
Q 1600 2509 1869 2659 
Q 2138 2809 2388 2809 
Q 2828 2809 3053 2582 
Q 3278 2356 3278 1863 
L 3278 1153 
z
" transform="scale(0.015625)"/>
     <path id="LinBiolinumB-20" transform="scale(0.015625)"/>
     <path id="LinBiolinumB-66" d="M 1069 4025 
Q 1491 4466 2303 4469 
Q 2566 4469 2656 4409 
L 2663 4391 
Q 2631 4341 2604 4219 
Q 2578 4097 2553 3953 
Q 2528 3809 2516 3744 
L 2322 3738 
Q 2272 3828 2240 3875 
Q 2209 3922 2134 3973 
Q 2059 4025 1978 4025 
Q 1722 4025 1565 3859 
Q 1409 3694 1409 3425 
Q 1409 3353 1425 3123 
Q 1441 2894 1441 2809 
L 1441 2747 
L 2131 2747 
Q 2181 2747 2181 2706 
L 2181 2509 
Q 2181 2425 2034 2425 
L 1441 2425 
L 1441 1281 
Q 1441 425 1491 0 
L 1478 -19 
Q 1253 0 1038 0 
L 556 -19 
L 550 0 
Q 594 325 594 1281 
L 594 2425 
L 172 2425 
Q 141 2425 141 2463 
L 141 2619 
Q 141 2747 288 2747 
L 594 2747 
L 594 2938 
Q 594 3531 1069 4025 
z
" transform="scale(0.015625)"/>
     <path id="LinBiolinumB-4d" d="M 978 4238 
L 1497 4238 
Q 2578 2003 3031 1156 
L 4691 4238 
L 5197 4238 
Q 5253 3756 5353 2840 
Q 5453 1925 5529 1264 
Q 5606 603 5697 -19 
Q 5600 0 5178 0 
Q 4897 0 4800 -19 
Q 4631 2016 4509 3025 
Q 4466 2944 4286 2614 
Q 4106 2284 4043 2168 
Q 3981 2053 3828 1767 
Q 3675 1481 3592 1315 
Q 3509 1150 3386 904 
Q 3263 659 3161 440 
Q 3059 222 2963 0 
L 2613 0 
Q 2369 519 1200 2806 
Q 1172 2584 1075 1856 
Q 978 1128 931 693 
Q 884 259 884 -19 
Q 813 0 575 0 
Q 331 0 263 -19 
Q 631 2003 978 4238 
z
" transform="scale(0.015625)"/>
     <path id="LinBiolinumB-65" d="M 1100 1759 
L 2075 1759 
Q 2088 1772 2088 1894 
Q 2088 2241 1950 2381 
Q 1813 2522 1644 2522 
Q 1419 2522 1300 2338 
Q 1106 2053 1100 1759 
z
M 2828 825 
Q 2925 825 2925 628 
Q 2450 -63 1728 -63 
Q 1038 -63 684 256 
Q 488 434 372 720 
Q 256 1006 256 1294 
Q 256 1997 681 2419 
Q 1106 2841 1684 2841 
Q 2331 2841 2615 2508 
Q 2900 2175 2900 1703 
Q 2900 1472 2713 1472 
L 1075 1472 
L 1075 1369 
Q 1075 825 1312 623 
Q 1550 422 1978 422 
Q 2169 422 2406 528 
Q 2644 634 2828 825 
z
" transform="scale(0.015625)"/>
     <path id="LinBiolinumB-50" d="M 1503 3584 
L 1503 2144 
Q 1625 2081 2009 2081 
Q 2328 2081 2514 2304 
Q 2700 2528 2700 2994 
Q 2700 3519 2525 3692 
Q 2350 3866 2016 3866 
Q 1697 3866 1600 3802 
Q 1503 3738 1503 3584 
z
M 594 2847 
Q 594 3584 519 4128 
L 531 4147 
Q 838 4128 1056 4128 
Q 1153 4128 1633 4150 
Q 2113 4172 2188 4172 
Q 2903 4172 3219 3956 
Q 3666 3644 3669 3109 
Q 3669 2891 3581 2664 
Q 3494 2438 3316 2230 
Q 3138 2022 2817 1887 
Q 2497 1753 2081 1753 
Q 1703 1753 1503 1819 
L 1503 1281 
Q 1503 553 1581 0 
L 1569 -19 
Q 1275 0 1056 0 
L 525 -19 
L 519 0 
Q 597 519 594 1281 
L 594 2847 
z
" transform="scale(0.015625)"/>
     <path id="LinBiolinumB-72" d="M 1441 2234 
Q 1594 2459 1801 2634 
Q 2009 2809 2216 2809 
Q 2388 2809 2541 2766 
L 2566 2741 
L 2438 2081 
L 2322 2069 
Q 2169 2191 1953 2188 
Q 1869 2188 1762 2156 
Q 1656 2125 1536 1984 
Q 1416 1844 1416 1619 
L 1416 1153 
Q 1416 456 1478 0 
L 1466 -19 
Q 1159 0 941 0 
L 513 -19 
L 506 0 
Q 569 434 569 1153 
L 569 1503 
Q 569 2353 500 2747 
L 513 2766 
Q 1063 2741 1344 2784 
Q 1388 2784 1400 2720 
Q 1413 2656 1413 2253 
L 1441 2234 
z
" transform="scale(0.015625)"/>
     <path id="LinBiolinumB-6d" d="M 1381 2234 
Q 1566 2478 1836 2643 
Q 2106 2809 2338 2809 
Q 2741 2809 2922 2684 
Q 3103 2559 3213 2297 
Q 3700 2809 4231 2809 
Q 4731 2809 4939 2553 
Q 5147 2297 5147 1791 
L 5147 1153 
Q 5147 550 5222 0 
L 5209 -19 
Q 4959 0 4744 0 
L 4231 -19 
L 4225 0 
Q 4303 519 4300 1153 
L 4300 1747 
Q 4300 2316 3950 2316 
Q 3759 2316 3617 2236 
Q 3475 2156 3250 1906 
Q 3256 1828 3256 1716 
L 3256 1153 
Q 3256 550 3334 0 
L 3322 -19 
Q 3072 0 2853 0 
L 2344 -19 
L 2338 0 
Q 2416 519 2413 1153 
L 2413 1797 
Q 2413 2103 2323 2209 
Q 2234 2316 2034 2316 
Q 1784 2316 1356 1797 
L 1356 1153 
Q 1356 456 1422 0 
L 1409 -19 
Q 1153 0 934 0 
L 441 -19 
L 434 0 
Q 513 519 513 1153 
L 513 1503 
Q 513 2353 441 2747 
L 453 2766 
Q 1003 2741 1288 2784 
Q 1331 2784 1343 2720 
Q 1356 2656 1356 2253 
L 1381 2234 
z
" transform="scale(0.015625)"/>
     <path id="LinBiolinumB-49" d="M 678 2847 
Q 678 3584 603 4128 
L 616 4147 
Q 922 4128 1141 4128 
Q 1141 4128 1672 4147 
L 1678 4128 
Q 1600 3622 1600 2847 
L 1600 1281 
Q 1600 553 1678 0 
L 1663 -19 
Q 1356 0 1141 0 
Q 1141 0 609 -19 
L 603 0 
Q 681 519 678 1281 
L 678 2847 
z
" transform="scale(0.015625)"/>
     <path id="LinBiolinumB-70" d="M 1356 1806 
L 1356 488 
Q 1631 256 1925 256 
Q 2200 256 2383 534 
Q 2566 813 2566 1269 
Q 2566 2394 2041 2394 
Q 1875 2394 1667 2222 
Q 1459 2050 1356 1806 
z
M 1381 2291 
Q 1759 2809 2278 2809 
Q 2700 2809 2988 2578 
Q 3475 2188 3475 1503 
Q 3475 831 3062 384 
Q 2650 -63 2041 -63 
Q 1638 -63 1356 116 
L 1356 -206 
Q 1356 -1056 1422 -1484 
L 1409 -1503 
Q 1147 -1484 928 -1484 
L 453 -1503 
L 447 -1484 
Q 509 -1081 513 -206 
L 513 1503 
Q 513 2353 441 2747 
L 453 2766 
Q 1003 2741 1288 2784 
Q 1331 2784 1343 2720 
Q 1356 2656 1356 2309 
L 1381 2291 
z
" transform="scale(0.015625)"/>
     <path id="LinBiolinumB-63" d="M 1881 2491 
Q 1709 2491 1557 2409 
Q 1406 2328 1316 2181 
Q 1234 2053 1196 1872 
Q 1159 1691 1159 1459 
Q 1159 909 1350 603 
Q 1441 463 1603 359 
Q 1766 256 1906 256 
Q 2400 256 2656 563 
L 2759 531 
Q 2759 422 2791 281 
Q 2572 97 2333 17 
Q 2094 -63 1734 -63 
Q 991 -63 616 347 
Q 269 725 269 1294 
Q 269 2016 708 2412 
Q 1147 2809 1825 2809 
Q 2056 2809 2340 2745 
Q 2625 2681 2778 2597 
L 2791 2578 
L 2638 1959 
L 2456 1953 
Q 2241 2491 1881 2491 
z
" transform="scale(0.015625)"/>
     <path id="LinBiolinumB-68" d="M 550 3034 
Q 550 3809 475 4238 
L 488 4256 
Q 666 4269 967 4342 
Q 1269 4416 1403 4469 
Q 1459 4469 1459 4403 
Q 1397 3891 1394 3200 
L 1394 2803 
L 1369 2247 
L 1394 2234 
Q 1606 2503 1917 2656 
Q 2228 2809 2491 2809 
Q 3316 2809 3316 1863 
L 3316 1153 
Q 3316 403 3378 0 
L 3366 -19 
Q 3194 0 2975 0 
L 2438 -19 
L 2431 0 
Q 2469 341 2472 1153 
L 2472 1722 
Q 2472 2316 2138 2316 
Q 1784 2316 1394 1806 
L 1394 1153 
Q 1394 438 1434 0 
L 1422 -19 
Q 1209 0 991 0 
L 481 -19 
L 475 0 
Q 553 488 550 1153 
L 550 3034 
z
" transform="scale(0.015625)"/>
     <path id="LinBiolinumB-46" d="M 2963 4128 
Q 3213 4128 3366 4147 
L 3378 4128 
Q 3366 3950 3366 3903 
Q 3366 3744 3378 3641 
L 3366 3616 
Q 2456 3694 1600 3694 
Q 1550 3522 1550 2847 
L 1550 2381 
Q 2247 2381 3003 2444 
L 3022 2425 
Q 3003 2341 3003 2187 
Q 3003 2034 3022 1947 
L 3003 1925 
Q 2369 1988 1550 1991 
L 1550 1281 
Q 1550 456 1613 0 
L 1600 -19 
Q 1319 0 1100 0 
L 556 -19 
L 550 0 
Q 628 519 628 1281 
L 628 2847 
Q 628 3584 550 4128 
L 563 4147 
Q 881 4128 1100 4128 
L 2963 4128 
z
" transform="scale(0.015625)"/>
    </defs>
    <use xlink:href="#LinBiolinumB-56"/>
    <use xlink:href="#LinBiolinumB-69" x="67.1875"/>
    <use xlink:href="#LinBiolinumB-73" x="98.144531"/>
    <use xlink:href="#LinBiolinumB-75" x="140.039062"/>
    <use xlink:href="#LinBiolinumB-61" x="199.121094"/>
    <use xlink:href="#LinBiolinumB-6c" x="250.683594"/>
    <use xlink:href="#LinBiolinumB-69" x="281.054688"/>
    <use xlink:href="#LinBiolinumB-73" x="312.011719"/>
    <use xlink:href="#LinBiolinumB-61" x="353.90625"/>
    <use xlink:href="#LinBiolinumB-74" x="405.46875"/>
    <use xlink:href="#LinBiolinumB-69" x="440.820312"/>
    <use xlink:href="#LinBiolinumB-6f" x="471.777344"/>
    <use xlink:href="#LinBiolinumB-6e" x="528.369141"/>
    <use xlink:href="#LinBiolinumB-20" x="588.330078"/>
    <use xlink:href="#LinBiolinumB-6f" x="613.330078"/>
    <use xlink:href="#LinBiolinumB-66" x="669.921875"/>
    <use xlink:href="#LinBiolinumB-20" x="707.519531"/>
    <use xlink:href="#LinBiolinumB-4d" x="732.519531"/>
    <use xlink:href="#LinBiolinumB-65" x="825.585938"/>
    <use xlink:href="#LinBiolinumB-61" x="875.585938"/>
    <use xlink:href="#LinBiolinumB-6e" x="927.148438"/>
    <use xlink:href="#LinBiolinumB-20" x="987.109375"/>
    <use xlink:href="#LinBiolinumB-50" x="1012.109375"/>
    <use xlink:href="#LinBiolinumB-65" x="1071.875"/>
    <use xlink:href="#LinBiolinumB-72" x="1121.875"/>
    <use xlink:href="#LinBiolinumB-6d" x="1163.964844"/>
    <use xlink:href="#LinBiolinumB-75" x="1253.125"/>
    <use xlink:href="#LinBiolinumB-74" x="1312.207031"/>
    <use xlink:href="#LinBiolinumB-61" x="1347.558594"/>
    <use xlink:href="#LinBiolinumB-74" x="1399.121094"/>
    <use xlink:href="#LinBiolinumB-69" x="1434.472656"/>
    <use xlink:href="#LinBiolinumB-6f" x="1465.429688"/>
    <use xlink:href="#LinBiolinumB-6e" x="1522.021484"/>
    <use xlink:href="#LinBiolinumB-20" x="1581.982422"/>
    <use xlink:href="#LinBiolinumB-49" x="1606.982422"/>
    <use xlink:href="#LinBiolinumB-6d" x="1642.041016"/>
    <use xlink:href="#LinBiolinumB-70" x="1731.201172"/>
    <use xlink:href="#LinBiolinumB-6f" x="1789.697266"/>
    <use xlink:href="#LinBiolinumB-72" x="1846.289062"/>
    <use xlink:href="#LinBiolinumB-74" x="1888.378906"/>
    <use xlink:href="#LinBiolinumB-61" x="1923.730469"/>
    <use xlink:href="#LinBiolinumB-6e" x="1975.292969"/>
    <use xlink:href="#LinBiolinumB-63" x="2035.253906"/>
    <use xlink:href="#LinBiolinumB-65" x="2082.128906"/>
    <use xlink:href="#LinBiolinumB-20" x="2132.128906"/>
    <use xlink:href="#LinBiolinumB-6f" x="2157.128906"/>
    <use xlink:href="#LinBiolinumB-66" x="2213.720703"/>
    <use xlink:href="#LinBiolinumB-20" x="2251.318359"/>
    <use xlink:href="#LinBiolinumB-65" x="2276.318359"/>
    <use xlink:href="#LinBiolinumB-61" x="2326.318359"/>
    <use xlink:href="#LinBiolinumB-63" x="2377.880859"/>
    <use xlink:href="#LinBiolinumB-68" x="2424.755859"/>
    <use xlink:href="#LinBiolinumB-20" x="2485.351562"/>
    <use xlink:href="#LinBiolinumB-46" x="2510.351562"/>
    <use xlink:href="#LinBiolinumB-65" x="2564.208984"/>
    <use xlink:href="#LinBiolinumB-61" x="2614.208984"/>
    <use xlink:href="#LinBiolinumB-74" x="2665.771484"/>
    <use xlink:href="#LinBiolinumB-75" x="2701.123047"/>
    <use xlink:href="#LinBiolinumB-72" x="2760.205078"/>
    <use xlink:href="#LinBiolinumB-65" x="2802.294922"/>
    <use xlink:href="#LinBiolinumB-20" x="2852.294922"/>
   </g>
  </g>
 </g>
 <defs>
  <clipPath id="p8913955ed9">
   <rect x="189.53875" y="72" width="806.4" height="498.96"/>
  </clipPath>
 </defs>
</svg>
